<svg width="503" height="140" viewBox="0 0 503 140" fill="none" xmlns="http://www.w3.org/2000/svg">
<rect width="503" height="140" rx="8" fill="#5B04AA"/>
<rect x="37" y="53" width="34" height="34" rx="17" fill="white" fill-opacity="0.4"/>
<path d="M61 69H47C45.8954 69 45 69.8954 45 71V78C45 79.1046 45.8954 80 47 80H61C62.1046 80 63 79.1046 63 78V71C63 69.8954 62.1046 69 61 69Z" stroke="white" stroke-width="2" stroke-linecap="round" stroke-linejoin="round"/>
<path d="M49 69V65C49 63.6739 49.5268 62.4021 50.4645 61.4645C51.4021 60.5268 52.6739 60 54 60C55.3261 60 56.5979 60.5268 57.5355 61.4645C58.4732 62.4021 59 63.6739 59 65V69" stroke="white" stroke-width="2" stroke-linecap="round" stroke-linejoin="round"/>
<path d="M79.2188 67H81.6953L82.5469 64.2656H86.5312L87.3828 67H89.8594L85.9297 55.7266H83.1562L79.2188 67ZM84.5156 57.9141H84.5625L85.9844 62.5H83.0938L84.5156 57.9141ZM96.0958 67.1719C98.2051 67.1719 99.5098 65.5312 99.5098 62.8125V62.8047C99.5098 60.0781 98.2051 58.4531 96.1036 58.4531C94.9083 58.4531 93.9786 59.0625 93.5176 60.0781H93.4708V55.7266H91.1895V67H93.4708V65.5703H93.5176C93.9708 66.5625 94.8926 67.1719 96.0958 67.1719ZM95.338 65.2812C94.2286 65.2812 93.4708 64.3281 93.4708 62.8125V62.8047C93.4708 61.2969 94.2364 60.3438 95.338 60.3438C96.4708 60.3438 97.1895 61.2734 97.1895 62.8047V62.8125C97.1895 64.3359 96.4708 65.2812 95.338 65.2812ZM100.996 67H103.277V62.3125C103.277 61.0938 103.934 60.4219 105.059 60.4219C105.387 60.4219 105.699 60.4688 105.887 60.5469V58.5391C105.715 58.4922 105.481 58.4531 105.231 58.4531C104.254 58.4531 103.574 59.0547 103.324 60.0859H103.277V58.625H100.996V67ZM108.326 57.5469C109.014 57.5469 109.545 57.0078 109.545 56.3594C109.545 55.7109 109.014 55.1719 108.326 55.1719C107.639 55.1719 107.108 55.7109 107.108 56.3594C107.108 57.0078 107.639 57.5469 108.326 57.5469ZM107.186 67H109.467V58.625H107.186V67ZM111.313 67H113.594V62.3125C113.594 61.0938 114.25 60.4219 115.375 60.4219C115.703 60.4219 116.016 60.4688 116.203 60.5469V58.5391C116.032 58.4922 115.797 58.4531 115.547 58.4531C114.571 58.4531 113.891 59.0547 113.641 60.0859H113.594V58.625H111.313V67ZM120.942 69.7344H123.223V65.5703H123.27C123.723 66.5625 124.668 67.1719 125.864 67.1719C127.957 67.1719 129.254 65.5312 129.254 62.8125V62.8047C129.254 60.0781 127.957 58.4531 125.832 58.4531C124.645 58.4531 123.731 59.0703 123.278 60.0859H123.223V58.625H120.942V69.7344ZM125.082 65.2812C123.973 65.2812 123.215 64.3281 123.215 62.8203V62.8125C123.215 61.2969 123.973 60.3438 125.082 60.3438C126.215 60.3438 126.934 61.2734 126.934 62.8047V62.8125C126.934 64.3359 126.215 65.2812 125.082 65.2812ZM134.6 67.1719C137.131 67.1719 138.749 65.5469 138.749 62.8125V62.7969C138.749 60.0859 137.1 58.4531 134.592 58.4531C132.092 58.4531 130.452 60.1016 130.452 62.7969V62.8125C130.452 65.5391 132.053 67.1719 134.6 67.1719ZM134.608 65.3828C133.483 65.3828 132.772 64.4531 132.772 62.8125V62.7969C132.772 61.1797 133.491 60.2422 134.592 60.2422C135.702 60.2422 136.428 61.1797 136.428 62.7969V62.8125C136.428 64.4453 135.717 65.3828 134.608 65.3828ZM140.243 67H142.524V62.3125C142.524 61.0938 143.18 60.4219 144.305 60.4219C144.633 60.4219 144.946 60.4688 145.133 60.5469V58.5391C144.961 58.4922 144.727 58.4531 144.477 58.4531C143.501 58.4531 142.821 59.0547 142.571 60.0859H142.524V58.625H140.243V67ZM150.026 67.1719C150.503 67.1719 150.87 67.125 151.128 67.0859V65.4141C150.987 65.4297 150.839 65.4531 150.635 65.4531C149.948 65.4531 149.596 65.1875 149.596 64.4062V60.3438H151.128V58.625H149.596V56.5781H147.292V58.625H146.128V60.3438H147.292V64.6562C147.292 66.4531 148.167 67.1719 150.026 67.1719ZM157.559 57.7188C158.497 57.7188 159.051 56.9453 159.051 55.3984V55.2812H157.794V55.3281C157.794 55.9531 157.63 56.2344 157.309 56.2344C157.075 56.2344 156.856 56.1016 156.606 55.9141L156.262 55.6797C155.966 55.4688 155.606 55.2891 155.137 55.2891C154.247 55.2891 153.645 56.0312 153.645 57.6094V57.7266H154.903V57.6797C154.903 57.0547 155.067 56.7734 155.387 56.7734C155.614 56.7734 155.833 56.9141 156.083 57.0859L156.419 57.3203C156.723 57.5391 157.091 57.7188 157.559 57.7188ZM155.145 67.1328C156.247 67.1328 157.137 66.6094 157.614 65.75H157.661V67H159.942V61.2578C159.942 59.5703 158.544 58.4531 156.38 58.4531C154.169 58.4531 152.841 59.5625 152.716 61.1094L152.708 61.2031H154.794L154.809 61.1328C154.919 60.5938 155.434 60.1953 156.286 60.1953C157.176 60.1953 157.661 60.6562 157.661 61.3984V61.9141L155.591 62.0391C153.512 62.1719 152.333 63.0625 152.333 64.5859V64.6016C152.333 66.0781 153.466 67.1328 155.145 67.1328ZM154.591 64.4844V64.4688C154.591 63.875 155.051 63.5 155.934 63.4453L157.661 63.3359V63.9375C157.661 64.8125 156.911 65.4688 155.887 65.4688C155.098 65.4688 154.591 65.1016 154.591 64.4844ZM165.577 67.1719C168.108 67.1719 169.725 65.5469 169.725 62.8125V62.7969C169.725 60.0859 168.077 58.4531 165.569 58.4531C163.069 58.4531 161.429 60.1016 161.429 62.7969V62.8125C161.429 65.5391 163.03 67.1719 165.577 67.1719ZM165.585 65.3828C164.46 65.3828 163.749 64.4531 163.749 62.8125V62.7969C163.749 61.1797 164.468 60.2422 165.569 60.2422C166.679 60.2422 167.405 61.1797 167.405 62.7969V62.8125C167.405 64.4453 166.694 65.3828 165.585 65.3828Z" fill="white"/>
<path d="M80.4536 84H81.6841V80.4795H83.9673C85.8198 80.4795 87.1323 79.1738 87.1323 77.3008V77.2871C87.1323 75.4141 85.8198 74.1357 83.9673 74.1357H80.4536V84ZM83.6528 75.2295C85.061 75.2295 85.8745 76.002 85.8745 77.3008V77.3145C85.8745 78.6133 85.061 79.3857 83.6528 79.3857H81.6841V75.2295H83.6528ZM91.2818 84.1367C93.2437 84.1367 94.5699 82.7148 94.5699 80.4453V80.4316C94.5699 78.1621 93.2369 76.7539 91.275 76.7539C89.3131 76.7539 87.9869 78.1689 87.9869 80.4316V80.4453C87.9869 82.708 89.3062 84.1367 91.2818 84.1367ZM91.2886 83.084C90.0308 83.084 89.2037 82.1201 89.2037 80.4453V80.4316C89.2037 78.7705 90.0377 77.8066 91.275 77.8066C92.5328 77.8066 93.3531 78.7637 93.3531 80.4316V80.4453C93.3531 82.1133 92.5396 83.084 91.2886 83.084ZM96.0875 84H97.277V79.6113C97.277 78.5312 97.8786 77.8887 98.8014 77.8887C99.0885 77.8887 99.3414 77.9229 99.4372 77.957V76.8018C99.3414 76.7881 99.1637 76.7539 98.9586 76.7539C98.1588 76.7539 97.5436 77.2734 97.3043 78.0938H97.277V76.8906H96.0875V84ZM103.375 84.1367C103.607 84.1367 103.86 84.1094 104.01 84.0889V83.125C103.908 83.1318 103.771 83.1523 103.628 83.1523C102.992 83.1523 102.657 82.9404 102.657 82.1816V77.875H104.01V76.8906H102.657V74.9697H101.426V76.8906H100.387V77.875H101.426V82.1885C101.426 83.5488 102.069 84.1367 103.375 84.1367ZM107.545 84.1367C108.495 84.1367 109.349 83.624 109.766 82.8447H109.794V84H110.983V79.085C110.983 77.6631 109.93 76.7539 108.249 76.7539C106.574 76.7539 105.555 77.6973 105.453 78.8662L105.446 78.9414H106.595L106.608 78.8799C106.745 78.2441 107.319 77.8066 108.235 77.8066C109.226 77.8066 109.794 78.333 109.794 79.2012V79.7959L107.757 79.9121C106.123 80.0078 105.179 80.7666 105.179 81.9766V81.9902C105.179 83.2822 106.13 84.1367 107.545 84.1367ZM106.396 81.9902V81.9766C106.396 81.3135 106.943 80.8896 107.893 80.835L109.794 80.7188V81.2998C109.794 82.332 108.932 83.1045 107.811 83.1045C106.957 83.1045 106.396 82.6738 106.396 81.9902ZM115.994 86.3926H117.184V82.8105H117.211C117.655 83.6309 118.482 84.1367 119.487 84.1367C121.271 84.1367 122.488 82.6943 122.488 80.4521V80.4453C122.488 78.2031 121.285 76.7539 119.467 76.7539C118.448 76.7539 117.655 77.2666 117.211 78.0938H117.184V76.8906H115.994V86.3926ZM119.234 83.084C118.038 83.084 117.177 82.0381 117.177 80.4521V80.4453C117.177 78.8525 118.031 77.8066 119.234 77.8066C120.492 77.8066 121.271 78.8115 121.271 80.4453V80.4521C121.271 82.0723 120.492 83.084 119.234 83.084ZM124.006 84H125.195V79.6113C125.195 78.5312 125.797 77.8887 126.72 77.8887C127.007 77.8887 127.26 77.9229 127.355 77.957V76.8018C127.26 76.7881 127.082 76.7539 126.877 76.7539C126.077 76.7539 125.462 77.2734 125.223 78.0938H125.195V76.8906H124.006V84ZM129.311 75.6875C129.728 75.6875 130.056 75.3525 130.056 74.9424C130.056 74.5254 129.728 74.1973 129.311 74.1973C128.9 74.1973 128.566 74.5254 128.566 74.9424C128.566 75.3525 128.9 75.6875 129.311 75.6875ZM128.716 84H129.905V76.8906H128.716V84ZM131.84 84H133.029V79.8164C133.029 78.6064 133.761 77.8066 134.882 77.8066C135.976 77.8066 136.516 78.4424 136.516 79.5977V84H137.705V79.3857C137.705 77.7656 136.803 76.7539 135.244 76.7539C134.164 76.7539 133.44 77.2393 133.057 77.9023H133.029V76.8906H131.84V84ZM142.484 84.1367C144.09 84.1367 145.259 83.0908 145.45 81.7373L145.457 81.6895H144.288L144.275 81.7441C144.076 82.5371 143.454 83.084 142.484 83.084C141.253 83.084 140.405 82.1064 140.405 80.4521V80.4453C140.405 78.832 141.233 77.8066 142.47 77.8066C143.516 77.8066 144.09 78.4355 144.268 79.1465L144.281 79.2012H145.444L145.437 79.1465C145.286 77.9297 144.24 76.7539 142.47 76.7539C140.494 76.7539 139.189 78.1895 139.189 80.4316V80.4385C139.189 82.7012 140.467 84.1367 142.484 84.1367ZM147.535 75.6875C147.952 75.6875 148.281 75.3525 148.281 74.9424C148.281 74.5254 147.952 74.1973 147.535 74.1973C147.125 74.1973 146.79 74.5254 146.79 74.9424C146.79 75.3525 147.125 75.6875 147.535 75.6875ZM146.941 84H148.13V76.8906H146.941V84ZM150.065 86.3926H151.254V82.8105H151.282C151.726 83.6309 152.553 84.1367 153.558 84.1367C155.342 84.1367 156.559 82.6943 156.559 80.4521V80.4453C156.559 78.2031 155.356 76.7539 153.537 76.7539C152.519 76.7539 151.726 77.2666 151.282 78.0938H151.254V76.8906H150.065V86.3926ZM153.305 83.084C152.109 83.084 151.247 82.0381 151.247 80.4521V80.4453C151.247 78.8525 152.102 77.8066 153.305 77.8066C154.563 77.8066 155.342 78.8115 155.342 80.4453V80.4521C155.342 82.0723 154.563 83.084 153.305 83.084ZM160.155 84.1367C161.105 84.1367 161.959 83.624 162.376 82.8447H162.404V84H163.593V79.085C163.593 77.6631 162.54 76.7539 160.859 76.7539C159.184 76.7539 158.165 77.6973 158.063 78.8662L158.056 78.9414H159.205L159.218 78.8799C159.355 78.2441 159.929 77.8066 160.845 77.8066C161.836 77.8066 162.404 78.333 162.404 79.2012V79.7959L160.367 79.9121C158.733 80.0078 157.789 80.7666 157.789 81.9766V81.9902C157.789 83.2822 158.74 84.1367 160.155 84.1367ZM159.006 81.9902V81.9766C159.006 81.3135 159.553 80.8896 160.503 80.835L162.404 80.7188V81.2998C162.404 82.332 161.542 83.1045 160.421 83.1045C159.567 83.1045 159.006 82.6738 159.006 81.9902ZM165.48 84H166.669V74.1357H165.48V84Z" fill="white" fill-opacity="0.5"/>
<path fill-rule="evenodd" clip-rule="evenodd" d="M431.857 55.0922C433.597 54.9922 435.335 55.0002 437.075 55.0002C437.087 55.0002 445.892 55.0002 445.892 55.0002C447.666 55.0002 449.404 54.9922 451.143 55.0922C452.724 55.1822 454.264 55.3742 455.797 55.8032C459.024 56.7052 461.842 58.5892 463.879 61.2602C465.904 63.9142 467 67.1632 467 70.4992C467 73.8392 465.904 77.0862 463.879 79.7402C461.842 82.4102 459.024 84.2952 455.797 85.1972C454.264 85.6262 452.724 85.8172 451.143 85.9082C449.404 86.0082 447.666 85.9992 445.926 85.9992C445.914 85.9992 437.107 86.0002 437.107 86.0002C435.335 85.9992 433.597 86.0082 431.857 85.9082C430.277 85.8172 428.737 85.6262 427.204 85.1972C423.977 84.2952 421.159 82.4102 419.122 79.7402C417.097 77.0862 416 73.8392 416 70.5002C416 67.1632 417.097 63.9142 419.122 61.2602C421.159 58.5892 423.977 56.7052 427.204 55.8032C428.737 55.3742 430.277 55.1822 431.857 55.0922Z" fill="#34C759"/>
<g filter="url(#filter0_dd_47_2289)">
<path fill-rule="evenodd" clip-rule="evenodd" d="M451.5 84C458.956 84 465 77.9558 465 70.5C465 63.0442 458.956 57 451.5 57C444.044 57 438 63.0442 438 70.5C438 77.9558 444.044 84 451.5 84Z" fill="white"/>
</g>
<defs>
<filter id="filter0_dd_47_2289" x="430" y="52" width="43" height="43" filterUnits="userSpaceOnUse" color-interpolation-filters="sRGB">
<feFlood flood-opacity="0" result="BackgroundImageFix"/>
<feColorMatrix in="SourceAlpha" type="matrix" values="0 0 0 0 0 0 0 0 0 0 0 0 0 0 0 0 0 0 127 0" result="hardAlpha"/>
<feOffset dy="3"/>
<feGaussianBlur stdDeviation="0.5"/>
<feColorMatrix type="matrix" values="0 0 0 0 0 0 0 0 0 0 0 0 0 0 0 0 0 0 0.06 0"/>
<feBlend mode="normal" in2="BackgroundImageFix" result="effect1_dropShadow_47_2289"/>
<feColorMatrix in="SourceAlpha" type="matrix" values="0 0 0 0 0 0 0 0 0 0 0 0 0 0 0 0 0 0 127 0" result="hardAlpha"/>
<feOffset dy="3"/>
<feGaussianBlur stdDeviation="4"/>
<feColorMatrix type="matrix" values="0 0 0 0 0 0 0 0 0 0 0 0 0 0 0 0 0 0 0.15 0"/>
<feBlend mode="normal" in2="effect1_dropShadow_47_2289" result="effect2_dropShadow_47_2289"/>
<feBlend mode="normal" in="SourceGraphic" in2="effect2_dropShadow_47_2289" result="shape"/>
</filter>
</defs>
</svg>
