<svg width="138" height="50" viewBox="0 0 138 50" fill="none" xmlns="http://www.w3.org/2000/svg">
<circle cx="25" cy="25" r="25" fill="#0062E0"/>
<path d="M31.36 19.64C32.6184 20.8988 33.4753 22.5024 33.8223 24.2482C34.1693 25.9939 33.9909 27.8034 33.3096 29.4478C32.6284 31.0921 31.4748 32.4976 29.9948 33.4864C28.5148 34.4752 26.7749 35.0029 24.995 35.0029C23.2151 35.0029 21.4752 34.4752 19.9952 33.4864C18.5152 32.4976 17.3616 31.0921 16.6804 29.4478C15.9991 27.8034 15.8207 25.9939 16.1677 24.2482C16.5147 22.5024 17.3716 20.8988 18.63 19.64" stroke="white" stroke-width="2" stroke-linecap="round" stroke-linejoin="round"/>
<path d="M25 15V25" stroke="white" stroke-width="2" stroke-linecap="round" stroke-linejoin="round"/>
<path d="M80.0882 29.002H84.2282V31H77.5682V18.436H80.0882V29.002ZM87.1079 19.84C86.6639 19.84 86.2919 19.702 85.9919 19.426C85.7039 19.138 85.5599 18.784 85.5599 18.364C85.5599 17.944 85.7039 17.596 85.9919 17.32C86.2919 17.032 86.6639 16.888 87.1079 16.888C87.5519 16.888 87.9179 17.032 88.2059 17.32C88.5059 17.596 88.6559 17.944 88.6559 18.364C88.6559 18.784 88.5059 19.138 88.2059 19.426C87.9179 19.702 87.5519 19.84 87.1079 19.84ZM88.3499 21.028V31H85.8299V21.028H88.3499ZM94.7457 20.866C95.4897 20.866 96.1437 21.016 96.7077 21.316C97.2717 21.604 97.7157 21.982 98.0397 22.45V21.028H100.578V31.072C100.578 31.996 100.392 32.818 100.02 33.538C99.6477 34.27 99.0897 34.846 98.3457 35.266C97.6017 35.698 96.7017 35.914 95.6457 35.914C94.2297 35.914 93.0657 35.584 92.1537 34.924C91.2537 34.264 90.7437 33.364 90.6237 32.224H93.1257C93.2577 32.68 93.5397 33.04 93.9717 33.304C94.4157 33.58 94.9497 33.718 95.5737 33.718C96.3057 33.718 96.8997 33.496 97.3557 33.052C97.8117 32.62 98.0397 31.96 98.0397 31.072V29.524C97.7157 29.992 97.2657 30.382 96.6897 30.694C96.1257 31.006 95.4777 31.162 94.7457 31.162C93.9057 31.162 93.1377 30.946 92.4417 30.514C91.7457 30.082 91.1937 29.476 90.7857 28.696C90.3897 27.904 90.1917 26.998 90.1917 25.978C90.1917 24.97 90.3897 24.076 90.7857 23.296C91.1937 22.516 91.7397 21.916 92.4237 21.496C93.1197 21.076 93.8937 20.866 94.7457 20.866ZM98.0397 26.014C98.0397 25.402 97.9197 24.88 97.6797 24.448C97.4397 24.004 97.1157 23.668 96.7077 23.44C96.2997 23.2 95.8617 23.08 95.3937 23.08C94.9257 23.08 94.4937 23.194 94.0977 23.422C93.7017 23.65 93.3777 23.986 93.1257 24.43C92.8857 24.862 92.7657 25.378 92.7657 25.978C92.7657 26.578 92.8857 27.106 93.1257 27.562C93.3777 28.006 93.7017 28.348 94.0977 28.588C94.5057 28.828 94.9377 28.948 95.3937 28.948C95.8617 28.948 96.2997 28.834 96.7077 28.606C97.1157 28.366 97.4397 28.03 97.6797 27.598C97.9197 27.154 98.0397 26.626 98.0397 26.014ZM102.391 25.978C102.391 24.97 102.589 24.076 102.985 23.296C103.393 22.516 103.939 21.916 104.623 21.496C105.319 21.076 106.093 20.866 106.945 20.866C107.689 20.866 108.337 21.016 108.889 21.316C109.453 21.616 109.903 21.994 110.239 22.45V21.028H112.777V31H110.239V29.542C109.915 30.01 109.465 30.4 108.889 30.712C108.325 31.012 107.671 31.162 106.927 31.162C106.087 31.162 105.319 30.946 104.623 30.514C103.939 30.082 103.393 29.476 102.985 28.696C102.589 27.904 102.391 26.998 102.391 25.978ZM110.239 26.014C110.239 25.402 110.119 24.88 109.879 24.448C109.639 24.004 109.315 23.668 108.907 23.44C108.499 23.2 108.061 23.08 107.593 23.08C107.125 23.08 106.693 23.194 106.297 23.422C105.901 23.65 105.577 23.986 105.325 24.43C105.085 24.862 104.965 25.378 104.965 25.978C104.965 26.578 105.085 27.106 105.325 27.562C105.577 28.006 105.901 28.348 106.297 28.588C106.705 28.828 107.137 28.948 107.593 28.948C108.061 28.948 108.499 28.834 108.907 28.606C109.315 28.366 109.639 28.03 109.879 27.598C110.119 27.154 110.239 26.626 110.239 26.014ZM114.59 25.978C114.59 24.97 114.788 24.076 115.184 23.296C115.592 22.516 116.144 21.916 116.84 21.496C117.536 21.076 118.31 20.866 119.162 20.866C119.81 20.866 120.428 21.01 121.016 21.298C121.604 21.574 122.072 21.946 122.42 22.414V17.68H124.976V31H122.42V29.524C122.108 30.016 121.67 30.412 121.106 30.712C120.542 31.012 119.888 31.162 119.144 31.162C118.304 31.162 117.536 30.946 116.84 30.514C116.144 30.082 115.592 29.476 115.184 28.696C114.788 27.904 114.59 26.998 114.59 25.978ZM122.438 26.014C122.438 25.402 122.318 24.88 122.078 24.448C121.838 24.004 121.514 23.668 121.106 23.44C120.698 23.2 120.26 23.08 119.792 23.08C119.324 23.08 118.892 23.194 118.496 23.422C118.1 23.65 117.776 23.986 117.524 24.43C117.284 24.862 117.164 25.378 117.164 25.978C117.164 26.578 117.284 27.106 117.524 27.562C117.776 28.006 118.1 28.348 118.496 28.588C118.904 28.828 119.336 28.948 119.792 28.948C120.26 28.948 120.698 28.834 121.106 28.606C121.514 28.366 121.838 28.03 122.078 27.598C122.318 27.154 122.438 26.626 122.438 26.014ZM131.865 31.162C130.905 31.162 130.041 30.952 129.273 30.532C128.505 30.1 127.899 29.494 127.455 28.714C127.023 27.934 126.807 27.034 126.807 26.014C126.807 24.994 127.029 24.094 127.473 23.314C127.929 22.534 128.547 21.934 129.327 21.514C130.107 21.082 130.977 20.866 131.937 20.866C132.897 20.866 133.767 21.082 134.547 21.514C135.327 21.934 135.939 22.534 136.383 23.314C136.839 24.094 137.067 24.994 137.067 26.014C137.067 27.034 136.833 27.934 136.365 28.714C135.909 29.494 135.285 30.1 134.493 30.532C133.713 30.952 132.837 31.162 131.865 31.162ZM131.865 28.966C132.321 28.966 132.747 28.858 133.143 28.642C133.551 28.414 133.875 28.078 134.115 27.634C134.355 27.19 134.475 26.65 134.475 26.014C134.475 25.066 134.223 24.34 133.719 23.836C133.227 23.32 132.621 23.062 131.901 23.062C131.181 23.062 130.575 23.32 130.083 23.836C129.603 24.34 129.363 25.066 129.363 26.014C129.363 26.962 129.597 27.694 130.065 28.21C130.545 28.714 131.145 28.966 131.865 28.966Z" fill="#333332"/>
</svg>
