<svg width="110" height="24" viewBox="0 0 110 24" fill="none" xmlns="http://www.w3.org/2000/svg">
<g clip-path="url(#clip0_13_1490)">
<path d="M20.84 4.60999C20.3292 4.099 19.7228 3.69364 19.0554 3.41708C18.3879 3.14052 17.6725 2.99817 16.95 2.99817C16.2275 2.99817 15.5121 3.14052 14.8446 3.41708C14.1772 3.69364 13.5708 4.099 13.06 4.60999L12 5.66999L10.94 4.60999C9.9083 3.5783 8.50903 2.9987 7.05 2.9987C5.59096 2.9987 4.19169 3.5783 3.16 4.60999C2.1283 5.64169 1.54871 7.04096 1.54871 8.49999C1.54871 9.95903 2.1283 11.3583 3.16 12.39L4.22 13.45L12 21.23L19.78 13.45L20.84 12.39C21.351 11.8792 21.7563 11.2728 22.0329 10.6053C22.3095 9.93789 22.4518 9.22248 22.4518 8.49999C22.4518 7.77751 22.3095 7.0621 22.0329 6.39464C21.7563 5.72718 21.351 5.12075 20.84 4.60999V4.60999Z" stroke="black" stroke-width="2" stroke-linecap="round" stroke-linejoin="round"/>
<path d="M40.9375 17.5H43.2969V13.0625H47.8828V11.1953H43.2969V8.17188H48.3203V6.22656H40.9375V17.5ZM51.9708 17.6328C53.0723 17.6328 53.963 17.1094 54.4395 16.25H54.4864V17.5H56.7676V11.7578C56.7676 10.0703 55.3692 8.95312 53.2051 8.95312C50.9942 8.95312 49.6661 10.0625 49.5411 11.6094L49.5333 11.7031H51.6192L51.6348 11.6328C51.7442 11.0938 52.2598 10.6953 53.1114 10.6953C54.002 10.6953 54.4864 11.1562 54.4864 11.8984V12.4141L52.4161 12.5391C50.338 12.6719 49.1583 13.5625 49.1583 15.0859V15.1016C49.1583 16.5781 50.2911 17.6328 51.9708 17.6328ZM51.4161 14.9844V14.9688C51.4161 14.375 51.877 14 52.7598 13.9453L54.4864 13.8359V14.4375C54.4864 15.3125 53.7364 15.9688 52.713 15.9688C51.9239 15.9688 51.4161 15.6016 51.4161 14.9844ZM60.7228 17.5H63.2931L66.1681 9.125H63.7853L62.0587 15.4844H62.0119L60.2619 9.125H57.8244L60.7228 17.5ZM70.8264 17.6719C73.3576 17.6719 74.9748 16.0469 74.9748 13.3125V13.2969C74.9748 10.5859 73.3264 8.95312 70.8186 8.95312C68.3186 8.95312 66.6779 10.6016 66.6779 13.2969V13.3125C66.6779 16.0391 68.2795 17.6719 70.8264 17.6719ZM70.8342 15.8828C69.7092 15.8828 68.9983 14.9531 68.9983 13.3125V13.2969C68.9983 11.6797 69.717 10.7422 70.8186 10.7422C71.9279 10.7422 72.6545 11.6797 72.6545 13.2969V13.3125C72.6545 14.9453 71.9436 15.8828 70.8342 15.8828ZM76.469 17.5H78.7503V12.8125C78.7503 11.5938 79.4065 10.9219 80.5315 10.9219C80.8597 10.9219 81.1722 10.9688 81.3597 11.0469V9.03906C81.1878 8.99219 80.9534 8.95312 80.7034 8.95312C79.7268 8.95312 79.0472 9.55469 78.7972 10.5859H78.7503V9.125H76.469V17.5ZM83.7992 8.04688C84.4867 8.04688 85.0179 7.50781 85.0179 6.85938C85.0179 6.21094 84.4867 5.67188 83.7992 5.67188C83.1117 5.67188 82.5804 6.21094 82.5804 6.85938C82.5804 7.50781 83.1117 8.04688 83.7992 8.04688ZM82.6586 17.5H84.9398V9.125H82.6586V17.5ZM90.1137 17.6719C90.5903 17.6719 90.9575 17.625 91.2153 17.5859V15.9141C91.0746 15.9297 90.9262 15.9531 90.7231 15.9531C90.0356 15.9531 89.684 15.6875 89.684 14.9062V10.8438H91.2153V9.125H89.684V7.07812H87.3793V9.125H86.2153V10.8438H87.3793V15.1562C87.3793 16.9531 88.2543 17.6719 90.1137 17.6719ZM96.5063 17.6719C99.0376 17.6719 100.655 16.0469 100.655 13.3125V13.2969C100.655 10.5859 99.0063 8.95312 96.4985 8.95312C93.9985 8.95312 92.3579 10.6016 92.3579 13.2969V13.3125C92.3579 16.0391 93.9595 17.6719 96.5063 17.6719ZM96.5142 15.8828C95.3892 15.8828 94.6782 14.9531 94.6782 13.3125V13.2969C94.6782 11.6797 95.397 10.7422 96.4985 10.7422C97.6079 10.7422 98.3345 11.6797 98.3345 13.2969V13.3125C98.3345 14.9453 97.6235 15.8828 96.5142 15.8828ZM105.594 17.6719C107.751 17.6719 109.258 16.5938 109.258 14.9531V14.9453C109.258 13.7109 108.54 13.0234 106.79 12.6562L105.368 12.3516C104.524 12.1719 104.235 11.8906 104.235 11.4609V11.4531C104.235 10.9141 104.727 10.5625 105.516 10.5625C106.36 10.5625 106.852 11.0156 106.93 11.6172L106.938 11.6797H109.04V11.6016C108.985 10.1328 107.743 8.95312 105.516 8.95312C103.383 8.95312 102.008 9.98438 102.008 11.5781V11.5859C102.008 12.8359 102.829 13.6484 104.454 13.9922L105.876 14.2891C106.696 14.4688 106.977 14.7266 106.977 15.1719V15.1797C106.977 15.7188 106.454 16.0547 105.594 16.0547C104.68 16.0547 104.188 15.6719 104.04 15.0156L104.024 14.9453H101.797L101.805 15.0156C101.985 16.6016 103.274 17.6719 105.594 17.6719Z" fill="#333332"/>
</g>
<defs>
<clipPath id="clip0_13_1490">
<rect width="110" height="24" fill="white"/>
</clipPath>
</defs>
</svg>
