<svg width="145" height="168" viewBox="0 0 145 168" fill="none" xmlns="http://www.w3.org/2000/svg">
<path fill-rule="evenodd" clip-rule="evenodd" d="M90.163 0C102.21 0 108.232 0 114.717 2.05C121.797 4.627 127.373 10.203 129.95 17.283C132 23.767 132 29.791 132 41.837V78.163C132 90.21 132 96.232 129.95 102.717C127.373 109.797 121.797 115.373 114.717 117.949C108.232 120 102.21 120 90.163 120H53.837C41.79 120 35.767 120 29.283 117.949C22.203 115.373 16.627 109.797 14.05 102.717C12 96.232 12 90.21 12 78.163V41.837C12 29.791 12 23.767 14.05 17.283C16.627 10.203 22.203 4.627 29.283 2.05C35.767 0 41.79 0 53.837 0H90.163Z" fill="url(#paint0_linear_1_275)"/>
<path fill-rule="evenodd" clip-rule="evenodd" d="M48 25V98L111 62L48 25Z" fill="white"/>
<path d="M32.6902 161H35.0633V154.21H39.4666C43.0393 154.21 45.5706 151.692 45.5706 148.08V148.054C45.5706 144.441 43.0393 141.976 39.4666 141.976H32.6902V161ZM38.8601 144.085C41.576 144.085 43.1448 145.575 43.1448 148.08V148.106C43.1448 150.611 41.576 152.101 38.8601 152.101H35.0633V144.085H38.8601ZM48.3768 161H50.6708V141.976H48.3768V161ZM58.0912 161.264C59.9238 161.264 61.5717 160.275 62.3759 158.772H62.4286V161H64.7226V151.521C64.7226 148.779 62.6923 147.025 59.4491 147.025C56.2192 147.025 54.2548 148.845 54.0571 151.099L54.0439 151.244H56.2587L56.2851 151.125C56.5488 149.899 57.6562 149.056 59.4228 149.056C61.3344 149.056 62.4286 150.071 62.4286 151.745V152.892L58.4999 153.116C55.3491 153.301 53.5297 154.764 53.5297 157.098V157.124C53.5297 159.616 55.3622 161.264 58.0912 161.264ZM55.8764 157.124V157.098C55.8764 155.819 56.9311 155.001 58.7636 154.896L62.4286 154.672V155.792C62.4286 157.783 60.7675 159.273 58.6054 159.273C56.9574 159.273 55.8764 158.442 55.8764 157.124ZM69.269 165.614C71.7476 165.614 72.9473 164.48 73.9229 161.857L79.2754 147.289H76.8628L73.0659 158.706H73.0132L69.2295 147.289H66.7773L71.8662 161.013L71.5894 161.791C71.0356 163.347 70.2314 163.716 68.7812 163.716C68.5044 163.716 68.2407 163.676 68.043 163.637V165.509C68.333 165.562 68.8208 165.614 69.269 165.614ZM82.6881 144.969C83.4923 144.969 84.1251 144.323 84.1251 143.532C84.1251 142.728 83.4923 142.095 82.6881 142.095C81.897 142.095 81.251 142.728 81.251 143.532C81.251 144.323 81.897 144.969 82.6881 144.969ZM81.5411 161H83.835V147.289H81.5411V161ZM87.2741 161H89.568V152.932C89.568 150.598 90.9787 149.056 93.1408 149.056C95.2501 149.056 96.2916 150.282 96.2916 152.51V161H98.5856V152.101C98.5856 148.977 96.8454 147.025 93.8395 147.025C91.7565 147.025 90.359 147.961 89.6207 149.24H89.568V147.289H87.2741V161ZM107.628 165.878C111.345 165.878 113.679 163.795 113.679 160.618V147.289H111.385V149.609H111.332C110.488 148.08 108.959 147.025 107.021 147.025C103.541 147.025 101.155 149.794 101.155 154.052V154.065C101.155 158.35 103.514 161.132 106.968 161.132C108.933 161.132 110.515 160.156 111.332 158.64H111.385V160.394C111.385 162.516 110.014 163.848 107.601 163.848C105.729 163.848 104.424 163.241 103.989 162.252L103.936 162.134H101.629L101.655 162.252C102.104 164.283 104.239 165.878 107.628 165.878ZM107.469 159.102C105.03 159.102 103.501 157.177 103.501 154.065V154.052C103.501 151.007 105.03 149.056 107.469 149.056C109.79 149.056 111.385 151.033 111.385 154.052V154.065C111.385 157.111 109.803 159.102 107.469 159.102Z" fill="#333332"/>
<defs>
<linearGradient id="paint0_linear_1_275" x1="12" y1="0" x2="12" y2="120" gradientUnits="userSpaceOnUse">
<stop stop-color="#FD2A69"/>
<stop offset="1" stop-color="#FB593C"/>
</linearGradient>
</defs>
</svg>
