<svg width="207" height="158" viewBox="0 0 207 158" fill="none" xmlns="http://www.w3.org/2000/svg">
<rect width="207" height="158" rx="8" fill="#37C656"/>
<rect x="16" y="28.5" width="34" height="34" rx="17" fill="white" fill-opacity="0.4"/>
<path d="M32.3346 36.0882L31.3385 40.6286C31.9362 40.5628 33.583 40.4707 35.3892 40.6286C37.647 40.826 37.3814 42.7343 36.7173 43.4581C36.0533 44.182 36.1197 43.8529 29.7448 44.1162C24.6449 44.3267 22.9272 51.7931 22.7059 55.5H28.0183L30.6081 44.1162L36.7173 55.5H43.1586L39.1079 47.6695C39.1079 47.6695 43.1586 45.2348 43.2914 40.8918C43.3977 37.4175 40.3253 36.2418 38.7759 36.0882H32.3346Z" fill="white"/>
<circle cx="27.1176" cy="38.1471" r="2.64706" fill="white"/>
<path d="M66.9375 42.5H69.2969V38.4141H71.1875L73.2891 42.5H75.9609L73.5859 38.0625C74.8359 37.5703 75.625 36.3359 75.625 34.8516V34.8359C75.625 32.5703 74.125 31.2266 71.5938 31.2266H66.9375V42.5ZM69.2969 36.625V33.0703H71.3047C72.4688 33.0703 73.2109 33.7578 73.2109 34.8359V34.8516C73.2109 35.9609 72.5078 36.625 71.3359 36.625H69.2969ZM81.0723 42.6719C83.6036 42.6719 85.2208 41.0469 85.2208 38.3125V38.2969C85.2208 35.5859 83.5723 33.9531 81.0645 33.9531C78.5645 33.9531 76.9239 35.6016 76.9239 38.2969V38.3125C76.9239 41.0391 78.5255 42.6719 81.0723 42.6719ZM81.0801 40.8828C79.9551 40.8828 79.2442 39.9531 79.2442 38.3125V38.2969C79.2442 36.6797 79.963 35.7422 81.0645 35.7422C82.1739 35.7422 82.9005 36.6797 82.9005 38.2969V38.3125C82.9005 39.9453 82.1895 40.8828 81.0801 40.8828ZM90.5587 42.6719C93.09 42.6719 94.7072 41.0469 94.7072 38.3125V38.2969C94.7072 35.5859 93.0587 33.9531 90.5509 33.9531C88.0509 33.9531 86.4103 35.6016 86.4103 38.2969V38.3125C86.4103 41.0391 88.0119 42.6719 90.5587 42.6719ZM90.5665 40.8828C89.4415 40.8828 88.7306 39.9531 88.7306 38.3125V38.2969C88.7306 36.6797 89.4494 35.7422 90.5509 35.7422C91.6603 35.7422 92.3869 36.6797 92.3869 38.2969V38.3125C92.3869 39.9453 91.6759 40.8828 90.5665 40.8828ZM96.2014 42.5H98.4826V37.4453C98.4826 36.5 99.0686 35.8438 99.9358 35.8438C100.78 35.8438 101.287 36.375 101.287 37.2734V42.5H103.483V37.4062C103.483 36.4766 104.053 35.8438 104.92 35.8438C105.803 35.8438 106.287 36.375 106.287 37.3438V42.5H108.569V36.7734C108.569 35.0859 107.467 33.9531 105.826 33.9531C104.6 33.9531 103.6 34.625 103.225 35.6797H103.178C102.897 34.5781 102.045 33.9531 100.873 33.9531C99.7483 33.9531 98.8733 34.5781 98.5295 35.5312H98.4826V34.125H96.2014V42.5ZM115.289 42.6719C117.399 42.6719 118.703 41.0312 118.703 38.3125V38.3047C118.703 35.5781 117.399 33.9531 115.297 33.9531C114.102 33.9531 113.172 34.5625 112.711 35.5781H112.664V31.2266H110.383V42.5H112.664V41.0703H112.711C113.164 42.0625 114.086 42.6719 115.289 42.6719ZM114.532 40.7812C113.422 40.7812 112.664 39.8281 112.664 38.3125V38.3047C112.664 36.7969 113.43 35.8438 114.532 35.8438C115.664 35.8438 116.383 36.7734 116.383 38.3047V38.3125C116.383 39.8359 115.664 40.7812 114.532 40.7812ZM122.682 42.6328C123.784 42.6328 124.674 42.1094 125.151 41.25H125.198V42.5H127.479V36.7578C127.479 35.0703 126.08 33.9531 123.916 33.9531C121.705 33.9531 120.377 35.0625 120.252 36.6094L120.244 36.7031H122.33L122.346 36.6328C122.455 36.0938 122.971 35.6953 123.823 35.6953C124.713 35.6953 125.198 36.1562 125.198 36.8984V37.4141L123.127 37.5391C121.049 37.6719 119.869 38.5625 119.869 40.0859V40.1016C119.869 41.5781 121.002 42.6328 122.682 42.6328ZM122.127 39.9844V39.9688C122.127 39.375 122.588 39 123.471 38.9453L125.198 38.8359V39.4375C125.198 40.3125 124.448 40.9688 123.424 40.9688C122.635 40.9688 122.127 40.6016 122.127 39.9844Z" fill="white"/>
<path d="M70.6659 59.6641C72.9217 59.6641 74.3094 58.5566 74.3094 56.8066V56.7998C74.3094 55.2959 73.4618 54.4756 71.4383 54.0312L70.3446 53.792C69.0594 53.5117 68.4647 53.0059 68.4647 52.1992V52.1924C68.4647 51.2422 69.326 50.6133 70.6454 50.6064C71.8963 50.6064 72.7372 51.2012 72.8876 52.2061L72.9012 52.3018H74.1317L74.1249 52.1992C74.0155 50.5859 72.6073 49.4717 70.6795 49.4717C68.6493 49.4717 67.2137 50.6064 67.2069 52.2266V52.2334C67.2069 53.6758 68.1092 54.5439 70.037 54.9678L71.1307 55.207C72.4842 55.5078 73.0516 55.9932 73.0516 56.8613V56.8682C73.0516 57.8867 72.1561 58.5293 70.7342 58.5293C69.3055 58.5293 68.3485 57.9209 68.2049 56.9297L68.1913 56.834H66.9608L66.9676 56.9297C67.0907 58.6182 68.5331 59.6641 70.6659 59.6641ZM78.3085 59.6367C79.3886 59.6367 80.1132 59.1514 80.496 58.4883H80.5234V59.5H81.7128V52.3906H80.5234V56.5742C80.5234 57.7842 79.7919 58.584 78.6708 58.584C77.5771 58.584 77.037 57.9482 77.037 56.793V52.3906H75.8476V57.0049C75.8476 58.625 76.7499 59.6367 78.3085 59.6367ZM84.5771 51.5771L86.0742 49.5264H84.8301L83.6611 51.5771H84.5771ZM83.6543 59.5H84.8438V52.3906H83.6543V59.5ZM89.0889 59.6367C89.3214 59.6367 89.5743 59.6094 89.7247 59.5889V58.625C89.6221 58.6318 89.4854 58.6523 89.3419 58.6523C88.7061 58.6523 88.3712 58.4404 88.3712 57.6816V53.375H89.7247V52.3906H88.3712V50.4697H87.1407V52.3906H86.1016V53.375H87.1407V57.6885C87.1407 59.0488 87.7833 59.6367 89.0889 59.6367ZM94.0382 59.6367C95.59 59.6367 96.7521 58.707 96.9845 57.5312L96.9982 57.4629H95.8292L95.8087 57.5244C95.6037 58.1328 94.9679 58.584 94.0656 58.584C92.8009 58.584 91.9943 57.7295 91.9669 56.2666H97.0871V55.8291C97.0871 53.6963 95.9044 52.2539 93.963 52.2539C92.0216 52.2539 90.7638 53.7646 90.7638 55.9658V55.9727C90.7638 58.208 91.9943 59.6367 94.0382 59.6367ZM93.9562 53.3066C94.9953 53.3066 95.7609 53.9561 95.8771 55.3369H91.9874C92.1173 54.0107 92.924 53.3066 93.9562 53.3066Z" fill="white" fill-opacity="0.5"/>
<rect x="16" y="81.5" width="164" height="49" rx="8" fill="#207E34"/>
<path d="M50.9204 110.5H52.9849V100.636H50.9204V110.5ZM54.7691 110.5H56.7652V106.289C56.7652 105.332 57.3326 104.676 58.2281 104.676C59.1236 104.676 59.5748 105.223 59.5748 106.18V110.5H61.5709V105.77C61.5709 104.054 60.6549 103.021 59.0416 103.021C57.9342 103.021 57.1822 103.534 56.8062 104.375H56.7652V103.172H54.7691V110.5ZM64.1891 102.229C64.7907 102.229 65.2555 101.757 65.2555 101.189C65.2555 100.622 64.7907 100.15 64.1891 100.15C63.5875 100.15 63.1227 100.622 63.1227 101.189C63.1227 101.757 63.5875 102.229 64.1891 102.229ZM63.1911 110.5H65.1872V103.172H63.1911V110.5ZM70.1911 110.65C72.1462 110.65 73.4109 109.434 73.5066 107.834V107.793H71.6472L71.6403 107.854C71.5036 108.593 71.0046 109.085 70.2048 109.085C69.2204 109.085 68.6052 108.271 68.6052 106.836V106.829C68.6052 105.428 69.2204 104.587 70.198 104.587C71.0251 104.587 71.5105 105.12 71.6335 105.817L71.6472 105.879H73.4997V105.831C73.4245 104.245 72.1599 103.021 70.1706 103.021C67.9763 103.021 66.5749 104.478 66.5749 106.822V106.829C66.5749 109.194 67.9558 110.65 70.1911 110.65ZM75.824 102.229C76.4256 102.229 76.8904 101.757 76.8904 101.189C76.8904 100.622 76.4256 100.15 75.824 100.15C75.2224 100.15 74.7576 100.622 74.7576 101.189C74.7576 101.757 75.2224 102.229 75.824 102.229ZM74.826 110.5H76.8221V103.172H74.826V110.5ZM80.6571 110.616C81.621 110.616 82.4003 110.158 82.8172 109.406H82.8583V110.5H84.8544V105.476C84.8544 103.999 83.6307 103.021 81.7372 103.021C79.8026 103.021 78.6405 103.992 78.5311 105.346L78.5243 105.428H80.3495L80.3631 105.366C80.4588 104.895 80.91 104.546 81.6551 104.546C82.4344 104.546 82.8583 104.949 82.8583 105.599V106.05L81.0467 106.159C79.2284 106.275 78.1961 107.055 78.1961 108.388V108.401C78.1961 109.693 79.1874 110.616 80.6571 110.616ZM80.1717 108.299V108.285C80.1717 107.766 80.5751 107.438 81.3475 107.39L82.8583 107.294V107.82C82.8583 108.586 82.202 109.16 81.3065 109.16C80.6161 109.16 80.1717 108.839 80.1717 108.299ZM86.4609 110.5H88.457V106.398C88.457 105.332 89.0312 104.744 90.0156 104.744C90.3027 104.744 90.5761 104.785 90.7402 104.854V103.097C90.5898 103.056 90.3847 103.021 90.1659 103.021C89.3115 103.021 88.7167 103.548 88.498 104.45H88.457V103.172H86.4609V110.5ZM95.0128 110.5H97.0089V100.636H95.0128V110.5ZM99.7091 102.229C100.311 102.229 100.776 101.757 100.776 101.189C100.776 100.622 100.311 100.15 99.7091 100.15C99.1076 100.15 98.6427 100.622 98.6427 101.189C98.6427 101.757 99.1076 102.229 99.7091 102.229ZM98.7111 110.5H100.707V103.172H98.7111V110.5ZM102.362 110.5H104.358V106.077C104.358 105.25 104.87 104.676 105.629 104.676C106.367 104.676 106.812 105.141 106.812 105.927V110.5H108.733V106.043C108.733 105.229 109.232 104.676 109.99 104.676C110.763 104.676 111.187 105.141 111.187 105.988V110.5H113.183V105.489C113.183 104.013 112.219 103.021 110.783 103.021C109.71 103.021 108.835 103.609 108.507 104.532H108.466C108.22 103.568 107.475 103.021 106.449 103.021C105.465 103.021 104.699 103.568 104.399 104.402H104.358V103.172H102.362V110.5ZM114.762 112.893H116.758V109.249H116.799C117.196 110.117 118.023 110.65 119.069 110.65C120.901 110.65 122.035 109.215 122.035 106.836V106.829C122.035 104.443 120.901 103.021 119.041 103.021C118.002 103.021 117.202 103.562 116.806 104.45H116.758V103.172H114.762V112.893ZM118.385 108.996C117.414 108.996 116.751 108.162 116.751 106.843V106.836C116.751 105.51 117.414 104.676 118.385 104.676C119.376 104.676 120.005 105.489 120.005 106.829V106.836C120.005 108.169 119.376 108.996 118.385 108.996ZM126.725 110.65C128.817 110.65 129.828 109.413 130.054 108.333L130.075 108.258H128.243L128.229 108.299C128.085 108.709 127.586 109.16 126.766 109.16C125.747 109.16 125.112 108.477 125.091 107.308H130.136V106.692C130.136 104.478 128.789 103.021 126.643 103.021C124.496 103.021 123.122 104.512 123.122 106.843V106.85C123.122 109.194 124.483 110.65 126.725 110.65ZM126.677 104.512C127.504 104.512 128.099 105.038 128.222 106.05H125.112C125.242 105.059 125.857 104.512 126.677 104.512ZM131.346 110.5H137.396V108.996H133.848V108.955L137.314 104.437V103.172H131.401V104.676H135.031V104.71L131.346 109.365V110.5ZM141.06 110.616C142.024 110.616 142.803 110.158 143.22 109.406H143.261V110.5H145.257V105.476C145.257 103.999 144.034 103.021 142.14 103.021C140.206 103.021 139.043 103.992 138.934 105.346L138.927 105.428H140.752L140.766 105.366C140.862 104.895 141.313 104.546 142.058 104.546C142.837 104.546 143.261 104.949 143.261 105.599V106.05L141.45 106.159C139.631 106.275 138.599 107.055 138.599 108.388V108.401C138.599 109.693 139.59 110.616 141.06 110.616ZM140.575 108.299V108.285C140.575 107.766 140.978 107.438 141.75 107.39L143.261 107.294V107.82C143.261 108.586 142.605 109.16 141.709 109.16C141.019 109.16 140.575 108.839 140.575 108.299Z" fill="white"/>
</svg>
