<svg width="46" height="46" viewBox="0 0 46 46" fill="none" xmlns="http://www.w3.org/2000/svg">
<g clip-path="url(#clip0_1_342)">
<g clip-path="url(#clip1_1_342)">
<rect width="46" height="46" fill="white"/>
<rect width="46" height="46" rx="10.18" fill="white"/>
<path d="M11.8486 12.5778H13.0234V8.31519H13.0584L14.7617 12.5778H15.5915L17.2904 8.31519H17.3297V12.5778H18.5045V6.27561H16.9803L15.1897 10.8046H15.1635L13.3728 6.27561H11.8486V12.5778ZM22.8431 12.687C24.7167 12.687 25.8828 11.4335 25.8828 9.42888V9.42014C25.8828 7.41987 24.7123 6.16642 22.8431 6.16642C20.9782 6.16642 19.8034 7.4155 19.8034 9.42014V9.42888C19.8034 11.4335 20.9695 12.687 22.8431 12.687ZM22.8431 11.5689C21.808 11.5689 21.1485 10.7478 21.1485 9.42888V9.42014C21.1485 8.10118 21.8124 7.28448 22.8431 7.28448C23.8782 7.28448 24.5377 8.10555 24.5377 9.42014V9.42888C24.5377 10.7347 23.8913 11.5689 22.8431 11.5689ZM27.1817 12.5778H28.4963V8.45058H28.5225L31.3788 12.5778H32.523V6.27561H31.2084V10.3722H31.1822L28.3347 6.27561H27.1817V12.5778Z" fill="#FE3C3B"/>
<path d="M15.6459 37.6854C19.6849 37.6854 22.6477 35.1977 22.6477 31.8296V31.8017C22.6477 28.9366 20.6492 27.1058 17.7143 26.8543V26.7984C20.2299 26.2673 21.9909 24.5622 21.9909 22.0746V22.0466C21.9909 18.9859 19.4613 16.8477 15.618 16.8477C11.8445 16.8477 9.24504 19.0418 8.9236 22.3261L8.90962 22.4659H11.3274L11.3414 22.3261C11.551 20.2857 13.2421 19.0279 15.618 19.0279C18.0777 19.0279 19.4613 20.2438 19.4613 22.3541V22.382C19.4613 24.3945 17.7842 25.876 15.3804 25.876H12.9626V28.0003H15.4922C18.3153 28.0003 20.0902 29.3839 20.0902 31.8576V31.8855C20.0902 34.0238 18.2873 35.5052 15.6459 35.5052C12.9626 35.5052 11.1457 34.1356 10.9361 32.151L10.9221 32.0113H8.50433L8.5183 32.179C8.78384 35.3655 11.4811 37.6854 15.6459 37.6854ZM30.8714 37.35H33.3032V17.1831H30.8435L25.4768 21.0404V23.57L30.8155 19.8524H30.8714V37.35Z" fill="#262626"/>
</g>
</g>
<defs>
<clipPath id="clip0_1_342">
<rect width="46" height="46" rx="10.1802" fill="white"/>
</clipPath>
<clipPath id="clip1_1_342">
<rect width="46" height="46" fill="white"/>
</clipPath>
</defs>
</svg>
