<svg width="317" height="158" viewBox="0 0 317 158" fill="none" xmlns="http://www.w3.org/2000/svg">
<rect width="317" height="158" rx="8" fill="#3253FA"/>
<rect x="16" y="37" width="34" height="34" rx="17" fill="white" fill-opacity="0.1"/>
<path d="M24 54H25M33 45V46M41 54H42M26.6 47.6L27.3 48.3M39.4 47.6L38.7 48.3M30 58C29.1605 57.3704 28.5403 56.4925 28.2274 55.4908C27.9145 54.4892 27.9247 53.4144 28.2566 52.4189C28.5884 51.4233 29.2251 50.5574 30.0764 49.9438C30.9278 49.3302 31.9506 49 33 49C34.0494 49 35.0722 49.3302 35.9236 49.9438C36.7749 50.5574 37.4116 51.4233 37.7434 52.4189C38.0753 53.4144 38.0855 54.4892 37.7726 55.4908C37.4597 56.4925 36.8395 57.3704 36 58C35.6096 58.3865 35.3156 58.8594 35.1419 59.3806C34.9681 59.9018 34.9195 60.4566 35 61C35 61.5304 34.7893 62.0391 34.4142 62.4142C34.0391 62.7893 33.5304 63 33 63C32.4696 63 31.9609 62.7893 31.5858 62.4142C31.2107 62.0391 31 61.5304 31 61C31.0805 60.4566 31.0319 59.9018 30.8581 59.3806C30.6844 58.8594 30.3904 58.3865 30 58M30.7 59H35.3" stroke="white" stroke-width="2" stroke-linecap="round" stroke-linejoin="round"/>
<path d="M66.9375 51H74.2266V49.0547H69.2969V39.7266H66.9375V51ZM76.627 41.6875H78.2755L79.4239 40.0547L80.6036 41.6875H82.252L80.3692 39.0156H78.4942L76.627 41.6875ZM78.2364 51.1328C79.338 51.1328 80.2286 50.6094 80.7051 49.75H80.752V51H83.0333V45.2578C83.0333 43.5703 81.6348 42.4531 79.4708 42.4531C77.2598 42.4531 75.9317 43.5625 75.8067 45.1094L75.7989 45.2031H77.8848L77.9005 45.1328C78.0098 44.5938 78.5255 44.1953 79.377 44.1953C80.2676 44.1953 80.752 44.6562 80.752 45.3984V45.9141L78.6817 46.0391C76.6036 46.1719 75.4239 47.0625 75.4239 48.5859V48.6016C75.4239 50.0781 76.5567 51.1328 78.2364 51.1328ZM77.6817 48.4844V48.4688C77.6817 47.875 78.1426 47.5 79.0255 47.4453L80.752 47.3359V47.9375C80.752 48.8125 80.002 49.4688 78.9786 49.4688C78.1895 49.4688 77.6817 49.1016 77.6817 48.4844ZM84.8244 51H87.1056V45.9453C87.1056 45 87.6915 44.3438 88.5587 44.3438C89.4025 44.3438 89.9103 44.875 89.9103 45.7734V51H92.1056V45.9062C92.1056 44.9766 92.6759 44.3438 93.5431 44.3438C94.4259 44.3438 94.9103 44.875 94.9103 45.8438V51H97.1915V45.2734C97.1915 43.5859 96.09 42.4531 94.4494 42.4531C93.2228 42.4531 92.2228 43.125 91.8478 44.1797H91.8009C91.5197 43.0781 90.6681 42.4531 89.4962 42.4531C88.3712 42.4531 87.4962 43.0781 87.1525 44.0312H87.1056V42.625H84.8244V51ZM98.9514 53.7344H101.233V49.5703H101.28C101.733 50.5625 102.678 51.1719 103.873 51.1719C105.967 51.1719 107.264 49.5312 107.264 46.8125V46.8047C107.264 44.0781 105.967 42.4531 103.842 42.4531C102.655 42.4531 101.74 43.0703 101.287 44.0859H101.233V42.625H98.9514V53.7344ZM103.092 49.2812C101.983 49.2812 101.225 48.3281 101.225 46.8203V46.8125C101.225 45.2969 101.983 44.3438 103.092 44.3438C104.225 44.3438 104.944 45.2734 104.944 46.8047V46.8125C104.944 48.3359 104.225 49.2812 103.092 49.2812ZM111.258 51.1328C112.36 51.1328 113.25 50.6094 113.727 49.75H113.774V51H116.055V45.2578C116.055 43.5703 114.657 42.4531 112.492 42.4531C110.282 42.4531 108.953 43.5625 108.828 45.1094L108.821 45.2031H110.907L110.922 45.1328C111.032 44.5938 111.547 44.1953 112.399 44.1953C113.289 44.1953 113.774 44.6562 113.774 45.3984V45.9141L111.703 46.0391C109.625 46.1719 108.446 47.0625 108.446 48.5859V48.6016C108.446 50.0781 109.578 51.1328 111.258 51.1328ZM110.703 48.4844V48.4688C110.703 47.875 111.164 47.5 112.047 47.4453L113.774 47.3359V47.9375C113.774 48.8125 113.024 49.4688 112 49.4688C111.211 49.4688 110.703 49.1016 110.703 48.4844ZM120.948 51.1719C122.159 51.1719 123.08 50.5625 123.526 49.5703H123.573V51H125.854V39.7266H123.573V44.0781H123.526C123.073 43.0625 122.135 42.4531 120.948 42.4531C118.838 42.4531 117.541 44.0781 117.541 46.8047V46.8125C117.541 49.5312 118.838 51.1719 120.948 51.1719ZM121.713 49.2812C120.573 49.2812 119.862 48.3359 119.862 46.8125V46.8047C119.862 45.2734 120.58 44.3438 121.713 44.3438C122.815 44.3438 123.58 45.2969 123.58 46.8047V46.8125C123.58 48.3281 122.823 49.2812 121.713 49.2812ZM130.184 51.1328C131.286 51.1328 132.176 50.6094 132.653 49.75H132.7V51H134.981V45.2578C134.981 43.5703 133.582 42.4531 131.418 42.4531C129.207 42.4531 127.879 43.5625 127.754 45.1094L127.747 45.2031H129.832L129.848 45.1328C129.957 44.5938 130.473 44.1953 131.325 44.1953C132.215 44.1953 132.7 44.6562 132.7 45.3984V45.9141L130.629 46.0391C128.551 46.1719 127.372 47.0625 127.372 48.5859V48.6016C127.372 50.0781 128.504 51.1328 130.184 51.1328ZM129.629 48.4844V48.4688C129.629 47.875 130.09 47.5 130.973 47.4453L132.7 47.3359V47.9375C132.7 48.8125 131.95 49.4688 130.926 49.4688C130.137 49.4688 129.629 49.1016 129.629 48.4844Z" fill="white"/>
<path d="M71.5242 68.1641C74.156 68.1641 75.7078 66.585 75.7078 63.9189V62.9824H71.6951V64.0625H74.4773V64.2402C74.4773 65.8945 73.2742 67.0293 71.5242 67.0293C69.5144 67.0293 68.2635 65.498 68.2635 63.0166V63.0098C68.2635 60.5762 69.4939 59.1064 71.5242 59.1064C72.9119 59.1064 73.8689 59.8242 74.3269 61.0752L74.3543 61.1504H75.6463L75.6121 61.0205C75.1541 59.2773 73.7937 57.9717 71.5242 57.9717C68.7693 57.9717 67.0056 59.9268 67.0056 63.0098V63.0166C67.0056 66.1611 68.7693 68.1641 71.5242 68.1641ZM79.495 68.1367C80.4452 68.1367 81.2997 67.624 81.7167 66.8447H81.744V68H82.9335V63.085C82.9335 61.6631 81.8807 60.7539 80.1991 60.7539C78.5243 60.7539 77.5057 61.6973 77.4032 62.8662L77.3963 62.9414H78.5448L78.5585 62.8799C78.6952 62.2441 79.2694 61.8066 80.1854 61.8066C81.1766 61.8066 81.744 62.333 81.744 63.2012V63.7959L79.7069 63.9121C78.0731 64.0078 77.1297 64.7666 77.1297 65.9766V65.9902C77.1297 67.2822 78.0799 68.1367 79.495 68.1367ZM78.3465 65.9902V65.9766C78.3465 65.3135 78.8934 64.8896 79.8436 64.835L81.744 64.7188V65.2998C81.744 66.332 80.8827 67.1045 79.7616 67.1045C78.9071 67.1045 78.3465 66.6738 78.3465 65.9902ZM84.7587 68H85.9482V63.6113C85.9482 62.5312 86.5497 61.8887 87.4726 61.8887C87.7597 61.8887 88.0126 61.9229 88.1083 61.957V60.8018C88.0126 60.7881 87.8349 60.7539 87.6298 60.7539C86.83 60.7539 86.2148 61.2734 85.9755 62.0938H85.9482V60.8906H84.7587V68ZM91.335 68.1367C92.2852 68.1367 93.1396 67.624 93.5566 66.8447H93.584V68H94.7734V63.085C94.7734 61.6631 93.7207 60.7539 92.0391 60.7539C90.3643 60.7539 89.3457 61.6973 89.2432 62.8662L89.2363 62.9414H90.3848L90.3984 62.8799C90.5352 62.2441 91.1094 61.8066 92.0254 61.8066C93.0166 61.8066 93.584 62.333 93.584 63.2012V63.7959L91.5469 63.9121C89.9131 64.0078 88.9697 64.7666 88.9697 65.9766V65.9902C88.9697 67.2822 89.9199 68.1367 91.335 68.1367ZM90.1865 65.9902V65.9766C90.1865 65.3135 90.7334 64.8896 91.6836 64.835L93.584 64.7188V65.2998C93.584 66.332 92.7227 67.1045 91.6016 67.1045C90.7471 67.1045 90.1865 66.6738 90.1865 65.9902ZM99.6065 70.5293C101.534 70.5293 102.744 69.4492 102.744 67.8018V60.8906H101.555V62.0938H101.527C101.09 61.3008 100.297 60.7539 99.2921 60.7539C97.4874 60.7539 96.2501 62.1895 96.2501 64.3975V64.4043C96.2501 66.626 97.4737 68.0684 99.2647 68.0684C100.283 68.0684 101.104 67.5625 101.527 66.7764H101.555V67.6855C101.555 68.7861 100.844 69.4766 99.5928 69.4766C98.6221 69.4766 97.9454 69.1621 97.7198 68.6494L97.6925 68.5879H96.4962L96.5098 68.6494C96.7423 69.7021 97.8497 70.5293 99.6065 70.5293ZM99.5245 67.0156C98.2598 67.0156 97.4669 66.0176 97.4669 64.4043V64.3975C97.4669 62.8184 98.2598 61.8066 99.5245 61.8066C100.728 61.8066 101.555 62.832 101.555 64.3975V64.4043C101.555 65.9834 100.734 67.0156 99.5245 67.0156ZM107.523 68.1367C109.074 68.1367 110.236 67.207 110.469 66.0312L110.483 65.9629H109.314L109.293 66.0244C109.088 66.6328 108.452 67.084 107.55 67.084C106.285 67.084 105.479 66.2295 105.451 64.7666H110.571V64.3291C110.571 62.1963 109.389 60.7539 107.447 60.7539C105.506 60.7539 104.248 62.2646 104.248 64.4658V64.4727C104.248 66.708 105.479 68.1367 107.523 68.1367ZM107.441 61.8066C108.48 61.8066 109.245 62.4561 109.361 63.8369H105.472C105.602 62.5107 106.408 61.8066 107.441 61.8066ZM112.089 68H113.279V63.543C113.279 62.5518 113.962 61.8066 114.905 61.8066C115.787 61.8066 116.362 62.374 116.362 63.2354V68H117.551V63.4814C117.551 62.5107 118.214 61.8066 119.157 61.8066C120.094 61.8066 120.634 62.3877 120.634 63.3652V68H121.823V63.0918C121.823 61.6768 120.914 60.7539 119.506 60.7539C118.508 60.7539 117.674 61.2666 117.278 62.1211H117.25C116.943 61.2529 116.225 60.7539 115.254 60.7539C114.338 60.7539 113.627 61.2256 113.306 61.9297H113.279V60.8906H112.089V68Z" fill="white" fill-opacity="0.5"/>
<rect x="16" y="90" width="165" height="32" rx="8" fill="white" fill-opacity="0.1"/>
<path d="M16 98C16 93.5817 19.5817 90 24 90H55V122H24C19.5817 122 16 118.418 16 114V98Z" fill="white"/>
</svg>
