<svg width="46" height="46" viewBox="0 0 46 46" fill="none" xmlns="http://www.w3.org/2000/svg">
<g clip-path="url(#clip0_1_355)">
<g clip-path="url(#clip1_1_355)">
<rect width="46" height="46" fill="white"/>
<rect width="46" height="46" fill="url(#paint0_linear_1_355)"/>
<path fill-rule="evenodd" clip-rule="evenodd" d="M17.5796 9.97019C16.8669 10.1169 16.3555 10.7444 16.3555 11.472L16.3555 16.7389V28.3667C16.3555 28.402 16.3558 28.4387 16.3561 28.4766C16.3619 29.2602 16.3714 30.5448 14.0555 30.6667C11.6297 30.7943 9.20389 32.4529 9.19995 34.495C9.19995 34.4979 9.20201 34.5003 9.20483 34.5008C9.20783 34.5013 9.20994 34.504 9.2097 34.5071C9.20327 34.5892 9.2 34.672 9.2 34.7556C9.2 36.7315 11.0307 38.3333 13.2889 38.3333C13.9817 38.3333 14.6343 38.1826 15.2061 37.9165C16.6976 37.434 18.1444 36.1902 18.1444 33.0944V17.8899C18.1444 17.5261 18.4001 17.2124 18.7565 17.139L31.0232 14.6135C31.4988 14.5156 31.9444 14.8789 31.9444 15.3644V25.1722C31.9444 25.2076 31.9447 25.2443 31.945 25.2821C31.9508 26.0658 31.9603 27.3503 29.6444 27.4722C27.2186 27.5999 24.7928 29.2584 24.7889 31.3006C24.7889 31.3035 24.7909 31.3059 24.7937 31.3064C24.7967 31.3069 24.7988 31.3095 24.7985 31.3125C24.7921 31.3947 24.7888 31.4776 24.7888 31.5611C24.7888 33.5371 26.6195 35.1389 28.8777 35.1389C29.5704 35.1389 30.2229 34.9882 30.7947 34.7221C32.2863 34.2398 33.7333 32.996 33.7333 29.9V13.5445C33.7333 13.5445 33.7333 13.5444 33.7333 13.5444C33.7333 13.5444 33.7333 13.5444 33.7333 13.5444V7.89856C33.7333 7.25114 33.1391 6.76679 32.5049 6.89734L17.5796 9.97019Z" fill="white"/>
</g>
</g>
<defs>
<linearGradient id="paint0_linear_1_355" x1="23" y1="0" x2="23" y2="46" gradientUnits="userSpaceOnUse">
<stop stop-color="#FB5976"/>
<stop offset="1" stop-color="#FA243B"/>
</linearGradient>
<clipPath id="clip0_1_355">
<rect width="46" height="46" rx="10.1802" fill="white"/>
</clipPath>
<clipPath id="clip1_1_355">
<rect width="46" height="46" fill="white"/>
</clipPath>
</defs>
</svg>
