<svg width="46" height="46" viewBox="0 0 46 46" fill="none" xmlns="http://www.w3.org/2000/svg">
<g clip-path="url(#clip0_1_343)">
<rect x="23.1283" y="35.0909" width="22.9463" height="10.9837" fill="#FFCC00"/>
<rect width="46.0746" height="34.7371" fill="url(#paint0_linear_1_343)"/>
<rect y="17.1419" width="12.1412" height="28.9327" fill="#F082CA"/>
<g clip-path="url(#clip1_1_343)">
<circle cx="46.6551" cy="-0.669733" r="14.4217" stroke="white" stroke-width="7.67966"/>
<path fill-rule="evenodd" clip-rule="evenodd" d="M46.655 10.8341C53.0084 10.8341 58.1589 5.68365 58.1589 -0.669743C58.1589 -7.02313 53.0084 -12.1736 46.655 -12.1736C40.3016 -12.1736 35.1512 -7.02313 35.1512 -0.669743C35.1512 5.68365 40.3016 10.8341 46.655 10.8341ZM46.655 16.6988C56.2474 16.6988 64.0236 8.92263 64.0236 -0.669743C64.0236 -10.2621 56.2474 -18.0383 46.655 -18.0383C37.0627 -18.0383 29.2865 -10.2621 29.2865 -0.669743C29.2865 8.92263 37.0627 16.6988 46.655 16.6988Z" fill="#D2D1D6"/>
</g>
<path d="M24.4196 -0.628906H10.3141V9.95417C10.3141 10.5155 9.69649 10.8575 9.2207 10.5597L0.203469 4.91515L-6.01953 14.1737L43.1117 46.7562L49.3347 37.2281L24.4196 20.5207V-0.628906Z" fill="#F2F1F6"/>
<path d="M12.5017 -1.33948H17.3238H22.1459V22.8604H12.5017V-1.33948Z" fill="url(#paint1_linear_1_343)"/>
<path d="M10.5372 23.2142H17.3686H24.1999V46.0746H10.5372V23.2142Z" fill="#EEF0F6"/>
<g filter="url(#filter0_d_1_343)">
<circle cx="17.2346" cy="28.6614" r="10.6265" fill="url(#paint2_linear_1_343)" stroke="white" stroke-width="1.78597"/>
<path d="M18.5027 22.1598C18.1325 21.1866 16.6906 21.1866 16.3204 22.1598L12.2273 33.34C11.9666 34.052 12.8483 34.6261 13.394 34.0999L17.1636 30.4649C17.302 30.3315 17.5211 30.3315 17.6595 30.4649L21.4291 34.0999C21.9748 34.6261 22.8564 34.0519 22.5958 33.34L18.5027 22.1598Z" fill="white"/>
</g>
</g>
<defs>
<filter id="filter0_d_1_343" x="0.357187" y="13.1235" width="33.7547" height="33.7548" filterUnits="userSpaceOnUse" color-interpolation-filters="sRGB">
<feFlood flood-opacity="0" result="BackgroundImageFix"/>
<feColorMatrix in="SourceAlpha" type="matrix" values="0 0 0 0 0 0 0 0 0 0 0 0 0 0 0 0 0 0 127 0" result="hardAlpha"/>
<feOffset dy="1.33948"/>
<feGaussianBlur stdDeviation="2.67895"/>
<feComposite in2="hardAlpha" operator="out"/>
<feColorMatrix type="matrix" values="0 0 0 0 0 0 0 0 0 0 0 0 0 0 0 0 0 0 0.25 0"/>
<feBlend mode="normal" in2="BackgroundImageFix" result="effect1_dropShadow_1_343"/>
<feBlend mode="normal" in="SourceGraphic" in2="effect1_dropShadow_1_343" result="shape"/>
</filter>
<linearGradient id="paint0_linear_1_343" x1="23.0373" y1="0" x2="23.0373" y2="34.7371" gradientUnits="userSpaceOnUse">
<stop stop-color="#7FED7D"/>
<stop offset="1" stop-color="#2ED058"/>
</linearGradient>
<linearGradient id="paint1_linear_1_343" x1="17.3238" y1="-1.33948" x2="17.3238" y2="22.8604" gradientUnits="userSpaceOnUse">
<stop stop-color="#0C91FF"/>
<stop offset="1" stop-color="#0077F7"/>
</linearGradient>
<linearGradient id="paint2_linear_1_343" x1="17.2346" y1="17.1419" x2="17.2346" y2="40.1809" gradientUnits="userSpaceOnUse">
<stop stop-color="#0C91FF"/>
<stop offset="1" stop-color="#017AFF"/>
</linearGradient>
<clipPath id="clip0_1_343">
<rect width="46" height="46" rx="10.0014" fill="white"/>
</clipPath>
<clipPath id="clip1_1_343">
<rect x="28.3936" width="17.6811" height="18.3062" fill="white"/>
</clipPath>
</defs>
</svg>
