<svg width="120" height="168" viewBox="0 0 120 168" fill="none" xmlns="http://www.w3.org/2000/svg">
<path fill-rule="evenodd" clip-rule="evenodd" d="M78.163 0C90.21 0 96.232 0 102.717 2.05C109.797 4.627 115.373 10.203 117.95 17.283C120 23.767 120 29.791 120 41.837V78.163C120 90.21 120 96.232 117.95 102.717C115.373 109.797 109.797 115.373 102.717 117.949C96.232 120 90.21 120 78.163 120H41.837C29.79 120 23.767 120 17.283 117.949C10.203 115.373 4.627 109.797 2.05 102.717C0 96.232 0 90.21 0 78.163V41.837C0 29.791 0 23.767 2.05 17.283C4.627 10.203 10.203 4.627 17.283 2.05C23.767 0 29.79 0 41.837 0H78.163Z" fill="white"/>
<path fill-rule="evenodd" clip-rule="evenodd" d="M24 89.653C24 94.8152 28.1172 99 34.5098 99H35.1373C42.8436 99 46.9608 93.4873 46.9608 86.9972V46.0341C46.9608 45.2963 47.5386 44.5794 48.2484 44.4334L81.4575 37.3965C82.1686 37.2502 82.7451 37.7324 82.7451 38.4612V65.8936C82.6731 68.1866 82.2695 69.4711 81.5034 70.487C80.7486 71.4879 79.5233 72.1724 78.0654 72.2942H74.2353C69.1564 72.2942 65.0392 76.479 65.0392 81.6413C65.0392 86.8035 69.1564 90.9883 75.549 90.9883H76.1765C83.8828 90.9883 88 85.4756 88 78.9855V28.89V21.2011C88 19.7314 86.8544 18.7664 85.4237 19.0492L44.2822 27.3779C42.8593 27.6591 41.7059 29.0752 41.7059 30.5708V36.9017V73.9053C41.6339 76.1983 41.2303 77.4828 40.4642 78.4987C39.7094 79.4996 38.4841 80.1841 37.0262 80.306H33.1961C28.1172 80.306 24 84.4908 24 89.653Z" fill="url(#paint0_angular_1_332)"/>
<path d="M28.5448 161H30.7596V146.3H30.8387L36.9164 161H38.9203L44.9979 146.3H45.077V161H47.2919V141.976H44.5497L37.9579 158.007H37.8788L31.287 141.976H28.5448V161ZM55.622 161.264C57.705 161.264 59.1025 160.328 59.8407 159.049H59.8935V161H62.1874V147.289H59.8935V155.357C59.8935 157.691 58.4828 159.233 56.3207 159.233C54.2114 159.233 53.1699 158.007 53.1699 155.779V147.289H50.8759V156.188C50.8759 159.312 52.6161 161.264 55.622 161.264ZM70.3594 161.264C73.418 161.264 75.6855 159.576 75.6855 157.177V157.164C75.6855 155.212 74.6836 154.118 71.915 153.446L69.7397 152.918C68.2236 152.549 67.604 151.903 67.604 150.967V150.954C67.604 149.741 68.6323 148.937 70.2935 148.937C71.9941 148.937 73.0093 149.82 73.1938 151.152L73.207 151.244H75.3955L75.3823 151.073C75.2109 148.779 73.2993 147.025 70.2935 147.025C67.3271 147.025 65.2573 148.7 65.2573 151.06V151.073C65.2573 153.05 66.5098 154.25 69.0938 154.87L71.269 155.397C72.8247 155.779 73.3389 156.333 73.3389 157.322V157.335C73.3389 158.574 72.2314 159.352 70.3726 159.352C68.5005 159.352 67.4854 158.548 67.2085 157.177L67.1821 157.045H64.8882L64.9014 157.164C65.1782 159.616 67.1294 161.264 70.3594 161.264ZM79.6783 144.969C80.4825 144.969 81.1153 144.323 81.1153 143.532C81.1153 142.728 80.4825 142.095 79.6783 142.095C78.8873 142.095 78.2413 142.728 78.2413 143.532C78.2413 144.323 78.8873 144.969 79.6783 144.969ZM78.5313 161H80.8253V147.289H78.5313V161ZM89.9464 161.264C93.0446 161.264 95.299 159.247 95.6681 156.636L95.6813 156.544H93.4269L93.4005 156.649C93.0182 158.179 91.8185 159.233 89.9464 159.233C87.5734 159.233 85.9386 157.348 85.9386 154.158V154.145C85.9386 151.033 87.5338 149.056 89.9201 149.056C91.9371 149.056 93.0446 150.269 93.3873 151.64L93.4137 151.745H95.6549L95.6417 151.64C95.3517 149.293 93.3346 147.025 89.9201 147.025C86.11 147.025 83.5919 149.794 83.5919 154.118V154.131C83.5919 158.495 86.0573 161.264 89.9464 161.264Z" fill="#333332"/>
<defs>
<radialGradient id="paint0_angular_1_332" cx="0" cy="0" r="1" gradientUnits="userSpaceOnUse" gradientTransform="translate(56 59) scale(32 40)">
<stop offset="0.0496563" stop-color="#68AADB"/>
<stop offset="0.176517" stop-color="#629FF1"/>
<stop offset="0.346663" stop-color="#9572FD"/>
<stop offset="0.686292" stop-color="#EF6773"/>
<stop offset="0.809772" stop-color="#ED6677"/>
<stop offset="0.872173" stop-color="#D27198"/>
</radialGradient>
</defs>
</svg>
