<svg width="120" height="168" viewBox="0 0 120 168" fill="none" xmlns="http://www.w3.org/2000/svg">
<path fill-rule="evenodd" clip-rule="evenodd" d="M78.163 0C90.21 0 96.232 0 102.717 2.05C109.797 4.627 115.373 10.203 117.95 17.283C120 23.767 120 29.791 120 41.837V78.163C120 90.21 120 96.232 117.95 102.717C115.373 109.797 109.797 115.373 102.717 117.949C96.232 120 90.21 120 78.163 120H41.837C29.79 120 23.767 120 17.283 117.949C10.203 115.373 4.627 109.797 2.05 102.717C0 96.232 0 90.21 0 78.163V41.837C0 29.791 0 23.767 2.05 17.283C4.627 10.203 10.203 4.627 17.283 2.05C23.767 0 29.79 0 41.837 0H78.163Z" fill="#E4DDC9"/>
<mask id="mask0_1_307" style="mask-type:alpha" maskUnits="userSpaceOnUse" x="0" y="0" width="120" height="120">
<path fill-rule="evenodd" clip-rule="evenodd" d="M78.163 0C90.21 0 96.232 0 102.717 2.05C109.797 4.627 115.373 10.203 117.95 17.283C120 23.767 120 29.791 120 41.837V78.163C120 90.21 120 96.232 117.95 102.717C115.373 109.797 109.797 115.373 102.717 117.949C96.232 120 90.21 120 78.163 120H41.837C29.79 120 23.767 120 17.283 117.949C10.203 115.373 4.627 109.797 2.05 102.717C0 96.232 0 90.21 0 78.163V41.837C0 29.791 0 23.767 2.05 17.283C4.627 10.203 10.203 4.627 17.283 2.05C23.767 0 29.79 0 41.837 0H78.163Z" fill="white"/>
</mask>
<g mask="url(#mask0_1_307)">
<rect width="84" height="20" fill="#76C63B"/>
<rect x="90" y="1" width="30" height="20" fill="#FBC6D1"/>
<path d="M-8.50065 59.9745L-8.50065 59.9745L-8.50065 59.9745L-8.50212 59.9745L-9.5 60V81V81.6077L-8.90372 81.4906L-8.90365 81.4906L-8.90333 81.4906L-8.90124 81.4902L-8.89179 81.4883L-8.85201 81.4808C-8.81631 81.4742 -8.76238 81.4643 -8.69098 81.4517C-8.54818 81.4265 -8.33553 81.3906 -8.05907 81.3479C-7.50612 81.2625 -6.6982 81.1504 -5.68375 81.0445C-3.65428 80.8325 -0.801361 80.6456 2.48819 80.7463C9.07724 80.9479 17.3673 82.3016 24.3087 86.867C31.2326 91.4208 34.0444 94.8497 37.4841 99.0968L37.5976 99.2369C41.0377 103.485 45.132 108.541 54.4665 116.24L54.4817 116.252L54.4979 116.264C66.3112 124.535 84.1148 128.454 95.5864 129.853C101.327 130.554 109.927 131.215 117.084 131.701C120.664 131.944 123.886 132.144 126.213 132.283C127.376 132.352 128.316 132.406 128.965 132.443C129.101 132.451 129.224 132.458 129.333 132.464C129.486 132.472 129.613 132.479 129.712 132.485L129.907 132.496L129.956 132.498L129.969 132.499L129.972 132.499L129.973 132.499C129.973 132.499 129.973 132.499 129.974 132.469L129.973 132.499L130.5 132.528V132V112V111.449L129.951 111.502L130 112C129.951 111.502 129.951 111.502 129.951 111.502L129.951 111.502L129.949 111.503L129.94 111.504L129.903 111.507L129.759 111.521C129.632 111.532 129.444 111.55 129.2 111.571C128.712 111.614 128.001 111.675 127.109 111.743C125.326 111.881 122.821 112.052 119.938 112.188C114.166 112.458 106.898 112.582 100.859 112.003C88.7615 110.843 73.8148 107.118 62.3479 96.0105C58.9983 92.7658 56.0383 89.345 53.0465 85.8874C51.9645 84.637 50.8783 83.3817 49.768 82.1282C45.5975 77.4197 41.1119 72.7675 35.3062 68.612C26.7932 62.5188 16.2095 60.4435 7.54809 59.908C-0.288576 59.4236 -6.6037 60.1975 -8.46616 60.4314C-8.47726 60.3199 -8.48581 60.2076 -8.49167 60.1212C-8.4947 60.0766 -8.49697 60.0394 -8.49847 60.0136L-8.50014 59.984L-8.50054 59.9765L-8.50063 59.9748L-8.50065 59.9745Z" fill="#FFDE02" stroke="#FEB312"/>
<path fill-rule="evenodd" clip-rule="evenodd" d="M101 120H83V37.686H0V19.8347H83V0H101V19.8347H120V37.686H101V73.3884H120V91.2397H101V120Z" fill="white"/>
<path d="M101 120.5H101.5V120V91.7397H120H120.5V91.2397V73.3884V72.8884H120H101.5V38.186H120H120.5V37.686V19.8347V19.3347H120H101.5V0V-0.5H101H83H82.5V0V19.3347H0H-0.5V19.8347V37.686V38.186H0H82.5V120V120.5H83H101Z" stroke="black" stroke-opacity="0.1"/>
<path fill-rule="evenodd" clip-rule="evenodd" d="M87.3132 71H86.898V34H-2V24H97V29V71H96.5848C95.1738 70.358 93.6036 70 91.949 70C90.2943 70 88.7242 70.358 87.3132 71Z" fill="#409BFF"/>
<circle cx="92" cy="82" r="11" fill="#007AFF"/>
<path fill-rule="evenodd" clip-rule="evenodd" d="M96.5 88.5L92 74.3076L87.5 88.5L92 84.3076L96.5 88.5Z" fill="white"/>
<path d="M41.5 83.5C33.9185 83.5 28.0857 80.7256 24.0669 76.4183C20.0411 72.1036 17.8094 66.2213 17.4994 59.9752C17.2996 55.9496 18.5974 51.218 20.1625 48.2577C21.2421 48.918 22.6474 49.4458 24.1446 49.8222C25.876 50.2574 27.7694 50.5 29.5 50.5C32.1239 50.5 34.8188 50.1881 37.055 49.4754C38.9265 48.8788 40.5522 47.9766 41.5 46.6711C42.4477 47.9766 44.0734 48.8788 45.9449 49.4754C48.1812 50.1881 50.876 50.5 53.5 50.5C55.2305 50.5 57.1239 50.2574 58.8553 49.8222C60.3635 49.443 61.7782 48.9104 62.8609 48.2433C63.5819 49.4801 64.2645 51.2781 64.7597 53.2678C65.3136 55.4931 65.6206 57.9082 65.5008 59.971C65.1379 66.2183 62.9053 72.1019 58.8923 76.4175C54.8868 80.725 49.0809 83.5 41.5 83.5Z" fill="#007AFF" stroke="white"/>
<mask id="mask1_1_307" style="mask-type:alpha" maskUnits="userSpaceOnUse" x="16" y="45" width="51" height="39">
<path d="M41.5 83.5C33.9185 83.5 28.0857 80.7256 24.0669 76.4183C20.0411 72.1036 17.8094 66.2213 17.4994 59.9752C17.2996 55.9496 18.5974 51.218 20.1625 48.2577C21.2421 48.918 22.6474 49.4458 24.1446 49.8222C25.876 50.2574 27.7694 50.5 29.5 50.5C32.1239 50.5 34.8188 50.1881 37.055 49.4754C38.9265 48.8788 40.5522 47.9766 41.5 46.6711C42.4477 47.9766 44.0734 48.8788 45.9449 49.4754C48.1812 50.1881 50.876 50.5 53.5 50.5C55.2305 50.5 57.1239 50.2574 58.8553 49.8222C60.3635 49.443 61.7782 48.9104 62.8609 48.2433C63.5819 49.4801 64.2645 51.2781 64.7597 53.2678C65.3136 55.4931 65.6206 57.9082 65.5008 59.971C65.1379 66.2183 62.9053 72.1019 58.8923 76.4175C54.8868 80.725 49.0809 83.5 41.5 83.5Z" fill="white" stroke="white"/>
</mask>
<g mask="url(#mask1_1_307)">
<g filter="url(#filter0_d_1_307)">
<rect x="16" y="46" width="50" height="10" fill="#DE1D26"/>
</g>
<path d="M41.5 83.25C33.9844 83.25 28.2189 80.5019 24.2497 76.2478C20.2699 71.9824 18.0566 66.1591 17.7491 59.9628C17.5568 56.0898 18.7715 51.5426 20.2629 48.6074C21.3369 49.2218 22.6764 49.7108 24.0837 50.0646C25.834 50.5046 27.7478 50.75 29.5 50.75C32.1407 50.75 34.8629 50.4365 37.131 49.7136C38.898 49.1503 40.4884 48.3059 41.5 47.0793C42.5116 48.3059 44.102 49.1503 45.869 49.7136C48.1371 50.4365 50.8592 50.75 53.5 50.75C55.2521 50.75 57.166 50.5046 58.9163 50.0646C60.3377 49.7073 61.6899 49.212 62.7693 48.5889C63.4282 49.7871 64.0538 51.4669 64.5171 53.3281C65.0668 55.5365 65.3692 57.9256 65.2512 59.9565C64.8911 66.1555 62.6765 71.9809 58.7093 76.2472C54.7532 80.5015 49.0148 83.25 41.5 83.25Z" stroke="white" stroke-width="1.5"/>
<path fill-rule="evenodd" clip-rule="evenodd" d="M27.28 63.756H28.81C28.798 63.372 28.837 62.991 28.927 62.613C29.017 62.235 29.164 61.896 29.368 61.596C29.572 61.296 29.833 61.053 30.151 60.867C30.469 60.681 30.85 60.588 31.294 60.588C31.63 60.588 31.948 60.642 32.248 60.75C32.548 60.858 32.809 61.014 33.031 61.218C33.253 61.422 33.43 61.665 33.562 61.947C33.694 62.229 33.76 62.544 33.76 62.892C33.76 63.336 33.691 63.726 33.553 64.062C33.415 64.398 33.211 64.71 32.941 64.998C32.671 65.286 32.332 65.571 31.924 65.853C31.516 66.135 31.042 66.444 30.502 66.78C30.058 67.044 29.632 67.326 29.224 67.626C28.816 67.926 28.45 68.274 28.126 68.67C27.802 69.066 27.535 69.531 27.325 70.065C27.115 70.599 26.98 71.244 26.92 72H35.254V70.65H28.702C28.774 70.254 28.927 69.903 29.161 69.597C29.395 69.291 29.677 69.006 30.007 68.742C30.337 68.478 30.7 68.229 31.096 67.995C31.492 67.761 31.888 67.524 32.284 67.284C32.68 67.032 33.064 66.768 33.436 66.492C33.808 66.216 34.138 65.907 34.426 65.565C34.714 65.223 34.945 64.836 35.119 64.404C35.293 63.972 35.38 63.474 35.38 62.91C35.38 62.31 35.275 61.782 35.065 61.326C34.855 60.87 34.57 60.489 34.21 60.183C33.85 59.877 33.427 59.643 32.941 59.481C32.455 59.319 31.936 59.238 31.384 59.238C30.712 59.238 30.112 59.352 29.584 59.58C29.056 59.808 28.615 60.123 28.261 60.525C27.907 60.927 27.646 61.404 27.478 61.956C27.31 62.508 27.244 63.108 27.28 63.756ZM39.286 62.55C39.286 62.226 39.346 61.944 39.466 61.704C39.586 61.464 39.745 61.26 39.943 61.092C40.141 60.924 40.378 60.798 40.654 60.714C40.93 60.63 41.218 60.588 41.518 60.588C42.142 60.588 42.655 60.753 43.057 61.083C43.459 61.413 43.66 61.902 43.66 62.55C43.66 63.198 43.462 63.702 43.066 64.062C42.67 64.422 42.166 64.602 41.554 64.602C41.242 64.602 40.948 64.56 40.672 64.476C40.396 64.392 40.156 64.266 39.952 64.098C39.748 63.93 39.586 63.717 39.466 63.459C39.346 63.201 39.286 62.898 39.286 62.55ZM37.666 62.496C37.666 63.072 37.828 63.603 38.152 64.089C38.476 64.575 38.908 64.926 39.448 65.142C38.728 65.394 38.176 65.799 37.792 66.357C37.408 66.915 37.216 67.572 37.216 68.328C37.216 68.976 37.327 69.543 37.549 70.029C37.771 70.515 38.077 70.92 38.467 71.244C38.857 71.568 39.316 71.808 39.844 71.964C40.372 72.12 40.942 72.198 41.554 72.198C42.142 72.198 42.694 72.114 43.21 71.946C43.726 71.778 44.173 71.529 44.551 71.199C44.929 70.869 45.229 70.464 45.451 69.984C45.673 69.504 45.784 68.952 45.784 68.328C45.784 67.536 45.598 66.867 45.226 66.321C44.854 65.775 44.284 65.382 43.516 65.142C44.056 64.902 44.485 64.545 44.803 64.071C45.121 63.597 45.28 63.072 45.28 62.496C45.28 62.088 45.208 61.689 45.064 61.299C44.92 60.909 44.695 60.561 44.389 60.255C44.083 59.949 43.684 59.703 43.192 59.517C42.7 59.331 42.106 59.238 41.41 59.238C40.918 59.238 40.447 59.31 39.997 59.454C39.547 59.598 39.148 59.808 38.8 60.084C38.452 60.36 38.176 60.699 37.972 61.101C37.768 61.503 37.666 61.968 37.666 62.496ZM38.836 68.4C38.836 68.028 38.905 67.692 39.043 67.392C39.181 67.092 39.373 66.834 39.619 66.618C39.865 66.402 40.153 66.237 40.483 66.123C40.813 66.009 41.164 65.952 41.536 65.952C41.896 65.952 42.235 66.015 42.553 66.141C42.871 66.267 43.15 66.438 43.39 66.654C43.63 66.87 43.819 67.125 43.957 67.419C44.095 67.713 44.164 68.034 44.164 68.382C44.164 68.742 44.101 69.072 43.975 69.372C43.849 69.672 43.669 69.933 43.435 70.155C43.201 70.377 42.925 70.551 42.607 70.677C42.289 70.803 41.938 70.866 41.554 70.866C40.762 70.866 40.111 70.647 39.601 70.209C39.091 69.771 38.836 69.168 38.836 68.4ZM48.88 65.718C48.88 65.406 48.883 65.061 48.889 64.683C48.895 64.305 48.925 63.927 48.979 63.549C49.033 63.171 49.111 62.802 49.213 62.442C49.315 62.082 49.465 61.767 49.663 61.497C49.861 61.227 50.11 61.008 50.41 60.84C50.71 60.672 51.076 60.588 51.508 60.588C51.94 60.588 52.306 60.672 52.606 60.84C52.906 61.008 53.155 61.227 53.353 61.497C53.551 61.767 53.701 62.082 53.803 62.442C53.905 62.802 53.983 63.171 54.037 63.549C54.091 63.927 54.121 64.305 54.127 64.683C54.133 65.061 54.136 65.406 54.136 65.718C54.136 66.198 54.121 66.735 54.091 67.329C54.061 67.923 53.965 68.481 53.803 69.003C53.641 69.525 53.38 69.966 53.02 70.326C52.66 70.686 52.156 70.866 51.508 70.866C50.86 70.866 50.356 70.686 49.996 70.326C49.636 69.966 49.375 69.525 49.213 69.003C49.051 68.481 48.955 67.923 48.925 67.329C48.895 66.735 48.88 66.198 48.88 65.718ZM47.26 65.736C47.26 66.204 47.272 66.69 47.296 67.194C47.32 67.698 47.38 68.19 47.476 68.67C47.572 69.15 47.71 69.603 47.89 70.029C48.07 70.455 48.316 70.83 48.628 71.154C48.94 71.478 49.333 71.733 49.807 71.919C50.281 72.105 50.848 72.198 51.508 72.198C52.18 72.198 52.75 72.105 53.218 71.919C53.686 71.733 54.076 71.478 54.388 71.154C54.7 70.83 54.946 70.455 55.126 70.029C55.306 69.603 55.444 69.15 55.54 68.67C55.636 68.19 55.696 67.698 55.72 67.194C55.744 66.69 55.756 66.204 55.756 65.736C55.756 65.268 55.744 64.782 55.72 64.278C55.696 63.774 55.636 63.282 55.54 62.802C55.444 62.322 55.306 61.866 55.126 61.434C54.946 61.002 54.7 60.624 54.388 60.3C54.076 59.976 53.683 59.718 53.209 59.526C52.735 59.334 52.168 59.238 51.508 59.238C50.848 59.238 50.281 59.334 49.807 59.526C49.333 59.718 48.94 59.976 48.628 60.3C48.316 60.624 48.07 61.002 47.89 61.434C47.71 61.866 47.572 62.322 47.476 62.802C47.38 63.282 47.32 63.774 47.296 64.278C47.272 64.782 47.26 65.268 47.26 65.736Z" fill="white"/>
</g>
</g>
<path d="M29.3651 161H31.58V146.3H31.6591L37.7367 161H39.7406L45.8183 146.3H45.8974V161H48.1122V141.976H45.37L38.7782 158.007H38.6991L32.1073 141.976H29.3651V161ZM55.3745 161.264C57.207 161.264 58.8549 160.275 59.6591 158.772H59.7119V161H62.0058V151.521C62.0058 148.779 59.9756 147.025 56.7324 147.025C53.5024 147.025 51.5381 148.845 51.3403 151.099L51.3271 151.244H53.542L53.5683 151.125C53.832 149.899 54.9394 149.056 56.706 149.056C58.6176 149.056 59.7119 150.071 59.7119 151.745V152.892L55.7832 153.116C52.6323 153.301 50.813 154.764 50.813 157.098V157.124C50.813 159.616 52.6455 161.264 55.3745 161.264ZM53.1596 157.124V157.098C53.1596 155.819 54.2143 155.001 56.0468 154.896L59.7119 154.672V155.792C59.7119 157.783 58.0507 159.273 55.8886 159.273C54.2407 159.273 53.1596 158.442 53.1596 157.124ZM65.2339 165.614H67.5279V158.706H67.5806C68.4375 160.288 70.0328 161.264 71.9707 161.264C75.4117 161.264 77.7583 158.482 77.7583 154.158V154.145C77.7583 149.82 75.438 147.025 71.9312 147.025C69.9668 147.025 68.4375 148.014 67.5806 149.609H67.5279V147.289H65.2339V165.614ZM71.4829 159.233C69.1758 159.233 67.5147 157.216 67.5147 154.158V154.145C67.5147 151.073 69.1626 149.056 71.4829 149.056C73.9087 149.056 75.4117 150.994 75.4117 154.145V154.158C75.4117 157.282 73.9087 159.233 71.4829 159.233ZM85.2579 161.264C88.3165 161.264 90.5841 159.576 90.5841 157.177V157.164C90.5841 155.212 89.5821 154.118 86.8136 153.446L84.6383 152.918C83.1222 152.549 82.5025 151.903 82.5025 150.967V150.954C82.5025 149.741 83.5309 148.937 85.192 148.937C86.8927 148.937 87.9078 149.82 88.0924 151.152L88.1056 151.244H90.2941L90.2809 151.073C90.1095 148.779 88.1979 147.025 85.192 147.025C82.2257 147.025 80.1559 148.7 80.1559 151.06V151.073C80.1559 153.05 81.4083 154.25 83.9923 154.87L86.1676 155.397C87.7233 155.779 88.2374 156.333 88.2374 157.322V157.335C88.2374 158.574 87.13 159.352 85.2711 159.352C83.399 159.352 82.3839 158.548 82.107 157.177L82.0807 157.045H79.7867L79.7999 157.164C80.0768 159.616 82.0279 161.264 85.2579 161.264Z" fill="#333332"/>
<defs>
<filter id="filter0_d_1_307" x="16" y="46" width="50" height="12" filterUnits="userSpaceOnUse" color-interpolation-filters="sRGB">
<feFlood flood-opacity="0" result="BackgroundImageFix"/>
<feColorMatrix in="SourceAlpha" type="matrix" values="0 0 0 0 0 0 0 0 0 0 0 0 0 0 0 0 0 0 127 0" result="hardAlpha"/>
<feOffset dy="2"/>
<feColorMatrix type="matrix" values="0 0 0 0 1 0 0 0 0 1 0 0 0 0 1 0 0 0 1 0"/>
<feBlend mode="normal" in2="BackgroundImageFix" result="effect1_dropShadow_1_307"/>
<feBlend mode="normal" in="SourceGraphic" in2="effect1_dropShadow_1_307" result="shape"/>
</filter>
</defs>
</svg>
