<svg width="120" height="168" viewBox="0 0 120 168" fill="none" xmlns="http://www.w3.org/2000/svg">
<path fill-rule="evenodd" clip-rule="evenodd" d="M78.163 0C90.21 0 96.232 0 102.717 2.05C109.797 4.627 115.373 10.203 117.95 17.283C120 23.767 120 29.791 120 41.837V78.163C120 90.21 120 96.232 117.95 102.717C115.373 109.797 109.797 115.373 102.717 117.949C96.232 120 90.21 120 78.163 120H41.837C29.79 120 23.767 120 17.283 117.949C10.203 115.373 4.627 109.797 2.05 102.717C0 96.232 0 90.21 0 78.163V41.837C0 29.791 0 23.767 2.05 17.283C4.627 10.203 10.203 4.627 17.283 2.05C23.767 0 29.79 0 41.837 0H78.163Z" fill="url(#paint0_linear_1_302)"/>
<path fill-rule="evenodd" clip-rule="evenodd" d="M16 57.5C16 36.3416 35.8018 20.9648 60 21C84.1982 21.0352 104 36.3416 104 57.5C104 78.6584 82.5244 94 60 94C56.3024 94 52.2085 93.4631 48.8225 93.2075C45.4365 92.9519 38.5542 99.3896 30 98.5918C34.6536 95.3982 36.4662 91.689 37.0052 88.4646C24.7824 82.1824 16 71.0306 16 57.5Z" fill="white"/>
<path d="M3.13159 161H5.34644V146.3H5.42554L11.5032 161H13.5071L19.5847 146.3H19.6638V161H21.8787V141.976H19.1365L12.5447 158.007H12.4656L5.87378 141.976H3.13159V161ZM31.1712 161.264C34.1639 161.264 36.4051 159.471 36.8533 157.203L36.8797 157.071H34.6253L34.5858 157.19C34.1903 158.363 32.9642 159.233 31.2239 159.233C28.785 159.233 27.2293 157.585 27.1766 154.764H37.0511V153.92C37.0511 149.807 34.7703 147.025 31.0262 147.025C27.2821 147.025 24.8563 149.939 24.8563 154.184V154.197C24.8563 158.508 27.2293 161.264 31.1712 161.264ZM31.013 149.056C33.0169 149.056 34.4935 150.308 34.7176 152.971H27.2161C27.4666 150.414 29.0223 149.056 31.013 149.056ZM44.5507 161.264C47.6093 161.264 49.8769 159.576 49.8769 157.177V157.164C49.8769 155.212 48.8749 154.118 46.1063 153.446L43.931 152.918C42.4149 152.549 41.7953 151.903 41.7953 150.967V150.954C41.7953 149.741 42.8236 148.937 44.4848 148.937C46.1854 148.937 47.2006 149.82 47.3852 151.152L47.3983 151.244H49.5868L49.5736 151.073C49.4022 148.779 47.4906 147.025 44.4848 147.025C41.5185 147.025 39.4486 148.7 39.4486 151.06V151.073C39.4486 153.05 40.7011 154.25 43.2851 154.87L45.4603 155.397C47.016 155.779 47.5302 156.333 47.5302 157.322V157.335C47.5302 158.574 46.4227 159.352 44.5639 159.352C42.6918 159.352 41.6767 158.548 41.3998 157.177L41.3734 157.045H39.0795L39.0927 157.164C39.3695 159.616 41.3207 161.264 44.5507 161.264ZM57.4423 161.264C60.5009 161.264 62.7685 159.576 62.7685 157.177V157.164C62.7685 155.212 61.7666 154.118 58.998 153.446L56.8227 152.918C55.3066 152.549 54.687 151.903 54.687 150.967V150.954C54.687 149.741 55.7153 148.937 57.3764 148.937C59.0771 148.937 60.0923 149.82 60.2768 151.152L60.29 151.244H62.4785L62.4653 151.073C62.2939 148.779 60.3823 147.025 57.3764 147.025C54.4101 147.025 52.3403 148.7 52.3403 151.06V151.073C52.3403 153.05 53.5927 154.25 56.1767 154.87L58.352 155.397C59.9077 155.779 60.4218 156.333 60.4218 157.322V157.335C60.4218 158.574 59.3144 159.352 57.4555 159.352C55.5835 159.352 54.5683 158.548 54.2915 157.177L54.2651 157.045H51.9712L51.9843 157.164C52.2612 159.616 54.2124 161.264 57.4423 161.264ZM69.4771 161.264C71.3096 161.264 72.9576 160.275 73.7618 158.772H73.8145V161H76.1084V151.521C76.1084 148.779 74.0782 147.025 70.835 147.025C67.605 147.025 65.6407 148.845 65.4429 151.099L65.4297 151.244H67.6446L67.6709 151.125C67.9346 149.899 69.042 149.056 70.8086 149.056C72.7202 149.056 73.8145 150.071 73.8145 151.745V152.892L69.8858 153.116C66.7349 153.301 64.9156 154.764 64.9156 157.098V157.124C64.9156 159.616 66.7481 161.264 69.4771 161.264ZM67.2622 157.124V157.098C67.2622 155.819 68.3169 155.001 70.1494 154.896L73.8145 154.672V155.792C73.8145 157.783 72.1534 159.273 69.9912 159.273C68.3433 159.273 67.2622 158.442 67.2622 157.124ZM85.1373 165.878C88.8551 165.878 91.1886 163.795 91.1886 160.618V147.289H88.8946V149.609H88.8419C87.9982 148.08 86.4689 147.025 84.5309 147.025C81.0504 147.025 78.6642 149.794 78.6642 154.052V154.065C78.6642 158.35 81.024 161.132 84.4781 161.132C86.4425 161.132 88.0245 160.156 88.8419 158.64H88.8946V160.394C88.8946 162.516 87.5235 163.848 85.1109 163.848C83.2389 163.848 81.9337 163.241 81.4986 162.252L81.4459 162.134H79.1388L79.1651 162.252C79.6134 164.283 81.7491 165.878 85.1373 165.878ZM84.9791 159.102C82.5401 159.102 81.0108 157.177 81.0108 154.065V154.052C81.0108 151.007 82.5401 149.056 84.9791 149.056C87.2994 149.056 88.8946 151.033 88.8946 154.052V154.065C88.8946 157.111 87.3126 159.102 84.9791 159.102ZM100.112 161.264C103.105 161.264 105.346 159.471 105.794 157.203L105.82 157.071H103.566L103.527 157.19C103.131 158.363 101.905 159.233 100.165 159.233C97.7258 159.233 96.1701 157.585 96.1174 154.764H105.992V153.92C105.992 149.807 103.711 147.025 99.967 147.025C96.2228 147.025 93.7971 149.939 93.7971 154.184V154.197C93.7971 158.508 96.1701 161.264 100.112 161.264ZM99.9538 149.056C101.958 149.056 103.434 150.308 103.658 152.971H96.1569C96.4074 150.414 97.9631 149.056 99.9538 149.056ZM113.491 161.264C116.55 161.264 118.818 159.576 118.818 157.177V157.164C118.818 155.212 117.816 154.118 115.047 153.446L112.872 152.918C111.356 152.549 110.736 151.903 110.736 150.967V150.954C110.736 149.741 111.764 148.937 113.426 148.937C115.126 148.937 116.141 149.82 116.326 151.152L116.339 151.244H118.528L118.514 151.073C118.343 148.779 116.431 147.025 113.426 147.025C110.459 147.025 108.389 148.7 108.389 151.06V151.073C108.389 153.05 109.642 154.25 112.226 154.87L114.401 155.397C115.957 155.779 116.471 156.333 116.471 157.322V157.335C116.471 158.574 115.364 159.352 113.505 159.352C111.633 159.352 110.617 158.548 110.341 157.177L110.314 157.045H108.02L108.033 157.164C108.31 159.616 110.261 161.264 113.491 161.264Z" fill="#333332"/>
<defs>
<linearGradient id="paint0_linear_1_302" x1="0" y1="0" x2="0" y2="120" gradientUnits="userSpaceOnUse">
<stop stop-color="#67FF81"/>
<stop offset="1" stop-color="#01B41F"/>
</linearGradient>
</defs>
</svg>
