<svg width="207" height="158" viewBox="0 0 207 158" fill="none" xmlns="http://www.w3.org/2000/svg">
<rect width="207" height="158" rx="8" fill="#38E0D5"/>
<rect x="16" y="19" width="34" height="34" rx="17" fill="white" fill-opacity="0.4"/>
<path d="M42 35H40.41L41.71 33.71C41.8032 33.6168 41.8772 33.5061 41.9277 33.3842C41.9781 33.2624 42.0041 33.1319 42.0041 33C42.0041 32.8681 41.9781 32.7376 41.9277 32.6158C41.8772 32.4939 41.8032 32.3832 41.71 32.29C41.6168 32.1968 41.5061 32.1228 41.3842 32.0723C41.2624 32.0219 41.1319 31.9959 41 31.9959C40.8681 31.9959 40.7376 32.0219 40.6158 32.0723C40.4939 32.1228 40.3832 32.1968 40.29 32.29L37.59 35H35.41L37.71 32.71C37.8032 32.6168 37.8772 32.5061 37.9277 32.3842C37.9781 32.2624 38.0041 32.1319 38.0041 32C38.0041 31.8681 37.9781 31.7376 37.9277 31.6158C37.8772 31.4939 37.8032 31.3832 37.71 31.29C37.6168 31.1968 37.5061 31.1228 37.3842 31.0723C37.2624 31.0219 37.1319 30.9959 37 30.9959C36.8681 30.9959 36.7376 31.0219 36.6158 31.0723C36.4939 31.1228 36.3832 31.1968 36.29 31.29L34 33.59V31.41L36.71 28.71C36.8032 28.6168 36.8772 28.5061 36.9277 28.3842C36.9781 28.2624 37.0041 28.1319 37.0041 28C37.0041 27.8681 36.9781 27.7376 36.9277 27.6158C36.8772 27.4939 36.8032 27.3832 36.71 27.29C36.6168 27.1968 36.5061 27.1228 36.3842 27.0723C36.2624 27.0219 36.1319 26.9959 36 26.9959C35.7337 26.9959 35.4783 27.1017 35.29 27.29L34 28.59V27C34 26.7348 33.8946 26.4804 33.7071 26.2929C33.5196 26.1054 33.2652 26 33 26C32.7348 26 32.4804 26.1054 32.2929 26.2929C32.1054 26.4804 32 26.7348 32 27V28.59L30.71 27.29C30.6168 27.1968 30.5061 27.1228 30.3842 27.0723C30.2624 27.0219 30.1319 26.9959 30 26.9959C29.8681 26.9959 29.7376 27.0219 29.6158 27.0723C29.4939 27.1228 29.3832 27.1968 29.29 27.29C29.1017 27.4783 28.9959 27.7337 28.9959 28C28.9959 28.2663 29.1017 28.5217 29.29 28.71L32 31.41V33.59L29.71 31.29C29.6168 31.1968 29.5061 31.1228 29.3842 31.0723C29.2624 31.0219 29.1319 30.9959 29 30.9959C28.8681 30.9959 28.7376 31.0219 28.6158 31.0723C28.4939 31.1228 28.3832 31.1968 28.29 31.29C28.1968 31.3832 28.1228 31.4939 28.0723 31.6158C28.0219 31.7376 27.9959 31.8681 27.9959 32C27.9959 32.1319 28.0219 32.2624 28.0723 32.3842C28.1228 32.5061 28.1968 32.6168 28.29 32.71L30.59 35H28.41L25.71 32.29C25.5217 32.1017 25.2663 31.9959 25 31.9959C24.7337 31.9959 24.4783 32.1017 24.29 32.29C24.1017 32.4783 23.9959 32.7337 23.9959 33C23.9959 33.2663 24.1017 33.5217 24.29 33.71L25.59 35H24C23.7348 35 23.4804 35.1054 23.2929 35.2929C23.1054 35.4804 23 35.7348 23 36C23 36.2652 23.1054 36.5196 23.2929 36.7071C23.4804 36.8946 23.7348 37 24 37H25.59L24.29 38.29C24.1963 38.383 24.1219 38.4936 24.0711 38.6154C24.0203 38.7373 23.9942 38.868 23.9942 39C23.9942 39.132 24.0203 39.2627 24.0711 39.3846C24.1219 39.5064 24.1963 39.617 24.29 39.71C24.383 39.8037 24.4936 39.8781 24.6154 39.9289C24.7373 39.9797 24.868 40.0058 25 40.0058C25.132 40.0058 25.2627 39.9797 25.3846 39.9289C25.5064 39.8781 25.617 39.8037 25.71 39.71L28.41 37H30.59L28.29 39.29C28.1963 39.383 28.1219 39.4936 28.0711 39.6154C28.0203 39.7373 27.9942 39.868 27.9942 40C27.9942 40.132 28.0203 40.2627 28.0711 40.3846C28.1219 40.5064 28.1963 40.617 28.29 40.71C28.383 40.8037 28.4936 40.8781 28.6154 40.9289C28.7373 40.9797 28.868 41.0058 29 41.0058C29.132 41.0058 29.2627 40.9797 29.3846 40.9289C29.5064 40.8781 29.617 40.8037 29.71 40.71L32 38.41V40.59L29.29 43.29C29.1017 43.4783 28.9959 43.7337 28.9959 44C28.9959 44.2663 29.1017 44.5217 29.29 44.71C29.4783 44.8983 29.7337 45.0041 30 45.0041C30.2663 45.0041 30.5217 44.8983 30.71 44.71L32 43.41V45C32 45.2652 32.1054 45.5196 32.2929 45.7071C32.4804 45.8946 32.7348 46 33 46C33.2652 46 33.5196 45.8946 33.7071 45.7071C33.8946 45.5196 34 45.2652 34 45V43.41L35.29 44.71C35.383 44.8037 35.4936 44.8781 35.6154 44.9289C35.7373 44.9797 35.868 45.0058 36 45.0058C36.132 45.0058 36.2627 44.9797 36.3846 44.9289C36.5064 44.8781 36.617 44.8037 36.71 44.71C36.8037 44.617 36.8781 44.5064 36.9289 44.3846C36.9797 44.2627 37.0058 44.132 37.0058 44C37.0058 43.868 36.9797 43.7373 36.9289 43.6154C36.8781 43.4936 36.8037 43.383 36.71 43.29L34 40.59V38.41L36.29 40.71C36.383 40.8037 36.4936 40.8781 36.6154 40.9289C36.7373 40.9797 36.868 41.0058 37 41.0058C37.132 41.0058 37.2627 40.9797 37.3846 40.9289C37.5064 40.8781 37.617 40.8037 37.71 40.71C37.8037 40.617 37.8781 40.5064 37.9289 40.3846C37.9797 40.2627 38.0058 40.132 38.0058 40C38.0058 39.868 37.9797 39.7373 37.9289 39.6154C37.8781 39.4936 37.8037 39.383 37.71 39.29L35.41 37H37.59L40.29 39.71C40.383 39.8037 40.4936 39.8781 40.6154 39.9289C40.7373 39.9797 40.868 40.0058 41 40.0058C41.132 40.0058 41.2627 39.9797 41.3846 39.9289C41.5064 39.8781 41.617 39.8037 41.71 39.71C41.8037 39.617 41.8781 39.5064 41.9289 39.3846C41.9797 39.2627 42.0058 39.132 42.0058 39C42.0058 38.868 41.9797 38.7373 41.9289 38.6154C41.8781 38.4936 41.8037 38.383 41.71 38.29L40.41 37H42C42.2652 37 42.5196 36.8946 42.7071 36.7071C42.8946 36.5196 43 36.2652 43 36C43 35.7348 42.8946 35.4804 42.7071 35.2929C42.5196 35.1054 42.2652 35 42 35Z" fill="#333332"/>
<path d="M66.2188 33H68.6953L69.5469 30.2656H73.5312L74.3828 33H76.8594L72.9297 21.7266H70.1562L66.2188 33ZM71.5156 23.9141H71.5625L72.9844 28.5H70.0938L71.5156 23.9141ZM78.1348 33H80.4161V28.3125C80.4161 27.0938 81.0723 26.4219 82.1973 26.4219C82.5255 26.4219 82.838 26.4688 83.0255 26.5469V24.5391C82.8536 24.4922 82.6192 24.4531 82.3692 24.4531C81.3926 24.4531 80.713 25.0547 80.463 26.0859H80.4161V24.625H78.1348V33ZM91.592 33.1719C93.8264 33.1719 95.2717 31.7812 95.3811 29.9531V29.9062H93.2561L93.2483 29.9766C93.092 30.8203 92.5217 31.3828 91.6076 31.3828C90.4826 31.3828 89.7795 30.4531 89.7795 28.8125V28.8047C89.7795 27.2031 90.4826 26.2422 91.5998 26.2422C92.5451 26.2422 93.0998 26.8516 93.2404 27.6484L93.2561 27.7188H95.3733V27.6641C95.2873 25.8516 93.842 24.4531 91.5686 24.4531C89.0608 24.4531 87.4592 26.1172 87.4592 28.7969V28.8047C87.4592 31.5078 89.0373 33.1719 91.592 33.1719ZM100.641 33.1719C103.172 33.1719 104.789 31.5469 104.789 28.8125V28.7969C104.789 26.0859 103.141 24.4531 100.633 24.4531C98.1331 24.4531 96.4925 26.1016 96.4925 28.7969V28.8125C96.4925 31.5391 98.094 33.1719 100.641 33.1719ZM100.649 31.3828C99.5237 31.3828 98.8128 30.4531 98.8128 28.8125V28.7969C98.8128 27.1797 99.5315 26.2422 100.633 26.2422C101.742 26.2422 102.469 27.1797 102.469 28.7969V28.8125C102.469 30.4453 101.758 31.3828 100.649 31.3828ZM106.284 33H108.565V28.1875C108.565 27.0938 109.213 26.3438 110.237 26.3438C111.26 26.3438 111.776 26.9688 111.776 28.0625V33H114.057V27.5938C114.057 25.6328 113.01 24.4531 111.166 24.4531C109.901 24.4531 109.041 25.0391 108.612 26H108.565V24.625H106.284V33ZM118.918 33.1719C120.129 33.1719 121.051 32.5625 121.497 31.5703H121.543V33H123.825V21.7266H121.543V26.0781H121.497C121.043 25.0625 120.106 24.4531 118.918 24.4531C116.809 24.4531 115.512 26.0781 115.512 28.8047V28.8125C115.512 31.5312 116.809 33.1719 118.918 33.1719ZM119.684 31.2812C118.543 31.2812 117.832 30.3359 117.832 28.8125V28.8047C117.832 27.2734 118.551 26.3438 119.684 26.3438C120.786 26.3438 121.551 27.2969 121.551 28.8047V28.8125C121.551 30.3281 120.793 31.2812 119.684 31.2812ZM126.85 23.5469C127.538 23.5469 128.069 23.0078 128.069 22.3594C128.069 21.7109 127.538 21.1719 126.85 21.1719C126.163 21.1719 125.631 21.7109 125.631 22.3594C125.631 23.0078 126.163 23.5469 126.85 23.5469ZM125.709 33H127.991V24.625H125.709V33ZM133.665 33.1719C135.899 33.1719 137.344 31.7812 137.454 29.9531V29.9062H135.329L135.321 29.9766C135.165 30.8203 134.594 31.3828 133.68 31.3828C132.555 31.3828 131.852 30.4531 131.852 28.8125V28.8047C131.852 27.2031 132.555 26.2422 133.672 26.2422C134.618 26.2422 135.172 26.8516 135.313 27.6484L135.329 27.7188H137.446V27.6641C137.36 25.8516 135.915 24.4531 133.641 24.4531C131.133 24.4531 129.532 26.1172 129.532 28.7969V28.8047C129.532 31.5078 131.11 33.1719 133.665 33.1719ZM140.057 23.5469C140.745 23.5469 141.276 23.0078 141.276 22.3594C141.276 21.7109 140.745 21.1719 140.057 21.1719C139.37 21.1719 138.839 21.7109 138.839 22.3594C138.839 23.0078 139.37 23.5469 140.057 23.5469ZM138.917 33H141.198V24.625H138.917V33ZM146.887 33.1719C149.419 33.1719 151.036 31.5469 151.036 28.8125V28.7969C151.036 26.0859 149.387 24.4531 146.88 24.4531C144.38 24.4531 142.739 26.1016 142.739 28.7969V28.8125C142.739 31.5391 144.341 33.1719 146.887 33.1719ZM146.895 31.3828C145.77 31.3828 145.059 30.4531 145.059 28.8125V28.7969C145.059 27.1797 145.778 26.2422 146.88 26.2422C147.989 26.2422 148.716 27.1797 148.716 28.7969V28.8125C148.716 30.4453 148.005 31.3828 146.895 31.3828ZM152.53 33H154.811V28.1875C154.811 27.0938 155.46 26.3438 156.483 26.3438C157.507 26.3438 158.022 26.9688 158.022 28.0625V33H160.304V27.5938C160.304 25.6328 159.257 24.4531 157.413 24.4531C156.147 24.4531 155.288 25.0391 154.858 26H154.811V24.625H152.53V33ZM164.556 33.1328C165.657 33.1328 166.548 32.6094 167.024 31.75H167.071V33H169.352V27.2578C169.352 25.5703 167.954 24.4531 165.79 24.4531C163.579 24.4531 162.251 25.5625 162.126 27.1094L162.118 27.2031H164.204L164.22 27.1328C164.329 26.5938 164.845 26.1953 165.696 26.1953C166.587 26.1953 167.071 26.6562 167.071 27.3984V27.9141L165.001 28.0391C162.923 28.1719 161.743 29.0625 161.743 30.5859V30.6016C161.743 32.0781 162.876 33.1328 164.556 33.1328ZM164.001 30.4844V30.4688C164.001 29.875 164.462 29.5 165.345 29.4453L167.071 29.3359V29.9375C167.071 30.8125 166.321 31.4688 165.298 31.4688C164.509 31.4688 164.001 31.1016 164.001 30.4844ZM174.245 33.1719C175.456 33.1719 176.378 32.5625 176.823 31.5703H176.87V33H179.151V21.7266H176.87V26.0781H176.823C176.37 25.0625 175.433 24.4531 174.245 24.4531C172.136 24.4531 170.839 26.0781 170.839 28.8047V28.8125C170.839 31.5312 172.136 33.1719 174.245 33.1719ZM175.011 31.2812C173.87 31.2812 173.159 30.3359 173.159 28.8125V28.8047C173.159 27.2734 173.878 26.3438 175.011 26.3438C176.112 26.3438 176.878 27.2969 176.878 28.8047V28.8125C176.878 30.3281 176.12 31.2812 175.011 31.2812ZM184.833 33.1719C187.364 33.1719 188.981 31.5469 188.981 28.8125V28.7969C188.981 26.0859 187.333 24.4531 184.825 24.4531C182.325 24.4531 180.685 26.1016 180.685 28.7969V28.8125C180.685 31.5391 182.286 33.1719 184.833 33.1719ZM184.841 31.3828C183.716 31.3828 183.005 30.4531 183.005 28.8125V28.7969C183.005 27.1797 183.724 26.2422 184.825 26.2422C185.935 26.2422 186.661 27.1797 186.661 28.7969V28.8125C186.661 30.4453 185.95 31.3828 184.841 31.3828Z" fill="#333332"/>
<path d="M70.2808 50.1641C72.5367 50.1641 73.9244 49.0566 73.9244 47.3066V47.2998C73.9244 45.7959 73.0767 44.9756 71.0533 44.5312L69.9595 44.292C68.6744 44.0117 68.0797 43.5059 68.0797 42.6992V42.6924C68.0797 41.7422 68.941 41.1133 70.2603 41.1064C71.5113 41.1064 72.3521 41.7012 72.5025 42.7061L72.5162 42.8018H73.7467L73.7398 42.6992C73.6304 41.0859 72.2222 39.9717 70.2945 39.9717C68.2642 39.9717 66.8287 41.1064 66.8218 42.7266V42.7334C66.8218 44.1758 67.7242 45.0439 69.6519 45.4678L70.7457 45.707C72.0992 46.0078 72.6666 46.4932 72.6666 47.3613V47.3682C72.6666 48.3867 71.7711 49.0293 70.3492 49.0293C68.9205 49.0293 67.9634 48.4209 67.8199 47.4297L67.8062 47.334H66.5758L66.5826 47.4297C66.7056 49.1182 68.148 50.1641 70.2808 50.1641ZM77.5748 50.1367C78.525 50.1367 79.3795 49.624 79.7965 48.8447H79.8239V50H81.0133V45.085C81.0133 43.6631 79.9606 42.7539 78.2789 42.7539C76.6041 42.7539 75.5856 43.6973 75.483 44.8662L75.4762 44.9414H76.6247L76.6383 44.8799C76.775 44.2441 77.3493 43.8066 78.2653 43.8066C79.2565 43.8066 79.8239 44.333 79.8239 45.2012V45.7959L77.7868 45.9121C76.153 46.0078 75.2096 46.7666 75.2096 47.9766V47.9902C75.2096 49.2822 76.1598 50.1367 77.5748 50.1367ZM76.4264 47.9902V47.9766C76.4264 47.3135 76.9733 46.8896 77.9235 46.835L79.8239 46.7188V47.2998C79.8239 48.332 78.9625 49.1045 77.8414 49.1045C76.987 49.1045 76.4264 48.6738 76.4264 47.9902ZM82.9001 50H84.0896V40.1357H82.9001V50ZM88.0887 50.1367C89.0389 50.1367 89.8933 49.624 90.3103 48.8447H90.3377V50H91.5271V45.085C91.5271 43.6631 90.4744 42.7539 88.7928 42.7539C87.118 42.7539 86.0994 43.6973 85.9969 44.8662L85.99 44.9414H87.1385L87.1521 44.8799C87.2889 44.2441 87.8631 43.8066 88.7791 43.8066C89.7703 43.8066 90.3377 44.333 90.3377 45.2012V45.7959L88.3006 45.9121C86.6668 46.0078 85.7234 46.7666 85.7234 47.9766V47.9902C85.7234 49.2822 86.6736 50.1367 88.0887 50.1367ZM86.9402 47.9902V47.9766C86.9402 47.3135 87.4871 46.8896 88.4373 46.835L90.3377 46.7188V47.2998C90.3377 48.332 89.4764 49.1045 88.3553 49.1045C87.5008 49.1045 86.9402 48.6738 86.9402 47.9902ZM99.2109 50.1367C100.229 50.1367 101.022 49.624 101.467 48.7969H101.494V50H102.684V40.1357H101.494V44.0801H101.467C101.022 43.2598 100.195 42.7539 99.1904 42.7539C97.4062 42.7539 96.1894 44.1963 96.1894 46.4385V46.4453C96.1894 48.6875 97.3925 50.1367 99.2109 50.1367ZM99.4433 49.084C98.1855 49.084 97.4062 48.0791 97.4062 46.4453V46.4385C97.4062 44.8184 98.1855 43.8066 99.4433 43.8066C100.64 43.8066 101.501 44.8525 101.501 46.4385V46.4453C101.501 48.0381 100.646 49.084 99.4433 49.084ZM107.53 50.1367C109.082 50.1367 110.244 49.207 110.477 48.0312L110.49 47.9629H109.321L109.301 48.0244C109.096 48.6328 108.46 49.084 107.558 49.084C106.293 49.084 105.486 48.2295 105.459 46.7666H110.579V46.3291C110.579 44.1963 109.396 42.7539 107.455 42.7539C105.514 42.7539 104.256 44.2646 104.256 46.4658V46.4727C104.256 48.708 105.486 50.1367 107.53 50.1367ZM107.448 43.8066C108.487 43.8066 109.253 44.4561 109.369 45.8369H105.479C105.609 44.5107 106.416 43.8066 107.448 43.8066ZM118.208 50.1367C119.76 50.1367 120.922 49.207 121.154 48.0312L121.168 47.9629H119.999L119.979 48.0244C119.774 48.6328 119.138 49.084 118.235 49.084C116.971 49.084 116.164 48.2295 116.137 46.7666H121.257V46.3291C121.257 44.1963 120.074 42.7539 118.133 42.7539C116.192 42.7539 114.934 44.2646 114.934 46.4658V46.4727C114.934 48.708 116.164 50.1367 118.208 50.1367ZM118.126 43.8066C119.165 43.8066 119.931 44.4561 120.047 45.8369H116.157C116.287 44.5107 117.094 43.8066 118.126 43.8066ZM125.297 50.1367C126.883 50.1367 128.059 49.2617 128.059 48.0176V48.0107C128.059 46.999 127.539 46.4316 126.104 46.083L124.976 45.8096C124.19 45.6182 123.868 45.2832 123.868 44.7979V44.791C123.868 44.1621 124.402 43.7451 125.263 43.7451C126.145 43.7451 126.671 44.2031 126.767 44.8936L126.774 44.9414H127.908L127.902 44.8525C127.813 43.6631 126.821 42.7539 125.263 42.7539C123.725 42.7539 122.652 43.6221 122.652 44.8457V44.8525C122.652 45.8779 123.301 46.5 124.641 46.8213L125.769 47.0947C126.575 47.293 126.842 47.5801 126.842 48.0928V48.0996C126.842 48.7422 126.268 49.1455 125.304 49.1455C124.333 49.1455 123.807 48.7285 123.663 48.0176L123.65 47.9492H122.46L122.467 48.0107C122.611 49.2822 123.622 50.1367 125.297 50.1367ZM131.921 50.1367C132.154 50.1367 132.407 50.1094 132.557 50.0889V49.125C132.454 49.1318 132.318 49.1523 132.174 49.1523C131.538 49.1523 131.203 48.9404 131.203 48.1816V43.875H132.557V42.8906H131.203V40.9697H129.973V42.8906H128.934V43.875H129.973V48.1885C129.973 49.5488 130.616 50.1367 131.921 50.1367ZM136.091 50.1367C137.041 50.1367 137.896 49.624 138.313 48.8447H138.34V50H139.53V45.085C139.53 43.6631 138.477 42.7539 136.795 42.7539C135.12 42.7539 134.102 43.6973 133.999 44.8662L133.993 44.9414H135.141L135.155 44.8799C135.291 44.2441 135.866 43.8066 136.782 43.8066C137.773 43.8066 138.34 44.333 138.34 45.2012V45.7959L136.303 45.9121C134.669 46.0078 133.726 46.7666 133.726 47.9766V47.9902C133.726 49.2822 134.676 50.1367 136.091 50.1367ZM134.943 47.9902V47.9766C134.943 47.3135 135.49 46.8896 136.44 46.835L138.34 46.7188V47.2998C138.34 48.332 137.479 49.1045 136.358 49.1045C135.503 49.1045 134.943 48.6738 134.943 47.9902ZM141.355 50H142.544V45.6113C142.544 44.5312 143.146 43.8887 144.069 43.8887C144.356 43.8887 144.609 43.9229 144.705 43.957V42.8018C144.609 42.7881 144.431 42.7539 144.226 42.7539C143.426 42.7539 142.811 43.2734 142.572 44.0938H142.544V42.8906H141.355V50Z" fill="#333332" fill-opacity="0.5"/>
<path d="M30.4901 103.755L34.9801 108.245L39.4702 103.755" stroke="#333332" stroke-width="2" stroke-linecap="round" stroke-linejoin="round"/>
<path d="M55.9525 120H76.4407V115.312H63.6673V115.078L69.5657 109.688C74.429 105.215 76.0501 102.988 76.0501 99.5703V99.5312C76.0501 94.7266 71.9485 91.3281 65.9915 91.3281C60.0345 91.3281 55.6204 95.0586 55.6204 100.371V100.527H61.0892L61.1087 100.352C61.1868 97.8125 63.14 95.918 66.0306 95.918C68.5306 95.918 70.2884 97.5586 70.3079 99.8633V99.9023C70.3079 101.855 69.5462 103.242 65.9134 106.641L55.9525 115.957V120ZM87.4584 120H93.2982V91.8164H87.4389L80.1537 96.875V102.109L87.3412 97.2266H87.4584V120Z" fill="#333332"/>
<path d="M105.722 104.59C109.765 104.59 112.324 102.207 112.324 98.0859V98.0664C112.324 93.9648 109.726 91.543 105.722 91.543C101.718 91.543 99.1206 94.0039 99.1206 98.0664V98.0859C99.1206 102.207 101.64 104.59 105.722 104.59ZM105.722 101.465C104.16 101.465 103.183 100.254 103.183 98.0859V98.0664C103.183 95.918 104.179 94.668 105.722 94.668C107.265 94.668 108.261 95.8984 108.261 98.0664V98.0859C108.261 100.234 107.285 101.465 105.722 101.465ZM128.732 120.488C135.548 120.488 140.49 116.211 141.037 110.215L141.056 110H135.314L135.275 110.195C134.513 113.535 132.13 115.488 128.732 115.488C124.22 115.488 121.33 111.816 121.33 105.879V105.859C121.33 99.9609 124.22 96.3281 128.732 96.3281C132.248 96.3281 134.552 98.3594 135.216 101.465L135.294 101.797H141.037L141.017 101.621C140.47 95.6445 135.568 91.3281 128.732 91.3281C120.509 91.3281 115.314 96.7969 115.314 105.879V105.898C115.314 114.98 120.49 120.488 128.732 120.488Z" fill="#333332" fill-opacity="0.1"/>
<path d="M166.43 108.245L161.94 103.755L157.45 108.245" stroke="#333332" stroke-width="2" stroke-linecap="round" stroke-linejoin="round"/>
</svg>
