<svg width="138" height="168" viewBox="0 0 138 168" fill="none" xmlns="http://www.w3.org/2000/svg">
<path fill-rule="evenodd" clip-rule="evenodd" d="M86.163 0C98.21 0 104.232 0 110.717 2.05C117.797 4.627 123.373 10.203 125.95 17.283C128 23.767 128 29.791 128 41.837V78.163C128 90.21 128 96.232 125.95 102.717C123.373 109.797 117.797 115.373 110.717 117.949C104.232 120 98.21 120 86.163 120H49.837C37.79 120 31.767 120 25.283 117.949C18.203 115.373 12.627 109.797 10.05 102.717C8 96.232 8 90.21 8 78.163V41.837C8 29.791 8 23.767 10.05 17.283C12.627 10.203 18.203 4.627 25.283 2.05C31.767 0 37.79 0 49.837 0H86.163Z" fill="white"/>
<rect x="67.7017" y="22" width="11.8682" height="57.561" transform="rotate(45 67.7017 22)" fill="url(#paint0_linear_1_265)"/>
<g filter="url(#filter0_d_1_265)">
<rect x="59.6376" y="30.3921" width="11.8682" height="57.561" transform="rotate(-45 59.6376 30.3921)" fill="url(#paint1_linear_1_265)"/>
</g>
<path d="M35.2093 94.561H36.5218V85.85H36.5687L40.1702 94.561H41.3577L44.9593 85.85H45.0062V94.561H46.3187V83.2875H44.6937L40.7874 92.7875H40.7405L36.8343 83.2875H35.2093V94.561ZM49.391 97.2953C50.8598 97.2953 51.5707 96.6235 52.1488 95.0688L55.3207 86.436H53.891L51.641 93.2016H51.6098L49.3676 86.436H47.9144L50.9301 94.5688L50.766 95.0297C50.4379 95.9516 49.9613 96.1703 49.1019 96.1703C48.9379 96.1703 48.7816 96.1469 48.6644 96.1235V97.2328C48.8363 97.2641 49.1254 97.2953 49.391 97.2953ZM56.7602 94.561H59.1196V89.811H64.1977V94.561H66.5571V83.2875H64.1977V87.8657H59.1196V83.2875H56.7602V94.561ZM72.3951 94.7328C74.9263 94.7328 76.5435 93.1078 76.5435 90.3735V90.3578C76.5435 87.6469 74.8951 86.0141 72.3872 86.0141C69.8872 86.0141 68.2466 87.6625 68.2466 90.3578V90.3735C68.2466 93.1 69.8482 94.7328 72.3951 94.7328ZM72.4029 92.9438C71.2779 92.9438 70.5669 92.0141 70.5669 90.3735V90.3578C70.5669 88.7407 71.2857 87.8032 72.3872 87.8032C73.4966 87.8032 74.2232 88.7407 74.2232 90.3578V90.3735C74.2232 92.0063 73.5122 92.9438 72.4029 92.9438ZM78.0377 94.561H80.319V89.5063C80.319 88.561 80.9049 87.9047 81.7721 87.9047C82.6158 87.9047 83.1236 88.436 83.1236 89.3344V94.561H85.319V89.4672C85.319 88.5375 85.8893 87.9047 86.7565 87.9047C87.6393 87.9047 88.1236 88.436 88.1236 89.4047V94.561H90.4049V88.8344C90.4049 87.1469 89.3033 86.0141 87.6627 86.0141C86.4361 86.0141 85.4361 86.686 85.0611 87.7407H85.0143C84.733 86.6391 83.8815 86.0141 82.7096 86.0141C81.5846 86.0141 80.7096 86.6391 80.3658 87.5922H80.319V86.186H78.0377V94.561ZM95.9772 94.7328C98.3679 94.7328 99.5241 93.3188 99.7819 92.0844L99.8054 91.9985H97.7116L97.696 92.0453C97.5319 92.5141 96.9616 93.0297 96.0241 93.0297C94.86 93.0297 94.1335 92.2485 94.11 90.9125H99.8757V90.2094C99.8757 87.6782 98.3366 86.0141 95.8835 86.0141C93.4304 86.0141 91.86 87.7172 91.86 90.3813V90.3891C91.86 93.0688 93.4147 94.7328 95.9772 94.7328ZM95.9225 87.7172C96.8679 87.7172 97.5475 88.3188 97.6882 89.475H94.1335C94.2819 88.3422 94.985 87.7172 95.9225 87.7172Z" fill="black"/>
<path d="M17.3919 161H19.6068V146.3H19.6859L25.7635 161H27.7674L33.845 146.3H33.9241V161H36.139V141.976H33.3968L26.805 158.007H26.7259L20.1341 141.976H17.3919V161ZM41.1073 165.614C43.5858 165.614 44.7855 164.48 45.7611 161.857L51.1137 147.289H48.7011L44.9042 158.706H44.8515L41.0678 147.289H38.6156L43.7045 161.013L43.4276 161.791C42.8739 163.347 42.0697 163.716 40.6195 163.716C40.3427 163.716 40.079 163.676 39.8812 163.637V165.509C40.1713 165.562 40.6591 165.614 41.1073 165.614ZM53.5903 161H55.9633V152.338H66.4048V161H68.7778V141.976H66.4048V150.203H55.9633V141.976H53.5903V161ZM78.1099 161.264C81.8936 161.264 84.4512 158.521 84.4512 154.145V154.118C84.4512 149.741 81.8804 147.025 78.0967 147.025C74.313 147.025 71.7554 149.754 71.7554 154.118V154.145C71.7554 158.508 74.2998 161.264 78.1099 161.264ZM78.1231 159.233C75.6973 159.233 74.1021 157.375 74.1021 154.145V154.118C74.1021 150.915 75.7105 149.056 78.0967 149.056C80.5225 149.056 82.1045 150.901 82.1045 154.118V154.145C82.1045 157.361 80.5357 159.233 78.1231 159.233ZM87.086 161H89.38V152.404C89.38 150.493 90.6983 149.056 92.5177 149.056C94.2184 149.056 95.3258 150.15 95.3258 151.811V161H97.6197V152.286C97.6197 150.414 98.8985 149.056 100.718 149.056C102.524 149.056 103.566 150.176 103.566 152.062V161H105.859V151.534C105.859 148.805 104.106 147.025 101.39 147.025C99.4654 147.025 97.857 148.014 97.0924 149.662H97.0397C96.4464 147.988 95.0621 147.025 93.19 147.025C91.4234 147.025 90.0524 147.935 89.4327 149.293H89.38V147.289H87.086V161ZM114.743 161.264C117.736 161.264 119.977 159.471 120.425 157.203L120.452 157.071H118.197L118.158 157.19C117.762 158.363 116.536 159.233 114.796 159.233C112.357 159.233 110.801 157.585 110.749 154.764H120.623V153.92C120.623 149.807 118.342 147.025 114.598 147.025C110.854 147.025 108.428 149.939 108.428 154.184V154.197C108.428 158.508 110.801 161.264 114.743 161.264ZM114.585 149.056C116.589 149.056 118.066 150.308 118.29 152.971H110.788C111.039 150.414 112.594 149.056 114.585 149.056Z" fill="#333332"/>
<defs>
<filter id="filter0_d_1_265" x="55.6376" y="21.9999" width="57.0939" height="57.0939" filterUnits="userSpaceOnUse" color-interpolation-filters="sRGB">
<feFlood flood-opacity="0" result="BackgroundImageFix"/>
<feColorMatrix in="SourceAlpha" type="matrix" values="0 0 0 0 0 0 0 0 0 0 0 0 0 0 0 0 0 0 127 0" result="hardAlpha"/>
<feOffset dy="4"/>
<feGaussianBlur stdDeviation="2"/>
<feComposite in2="hardAlpha" operator="out"/>
<feColorMatrix type="matrix" values="0 0 0 0 0 0 0 0 0 0 0 0 0 0 0 0 0 0 0.1 0"/>
<feBlend mode="normal" in2="BackgroundImageFix" result="effect1_dropShadow_1_265"/>
<feBlend mode="normal" in="SourceGraphic" in2="effect1_dropShadow_1_265" result="shape"/>
</filter>
<linearGradient id="paint0_linear_1_265" x1="73.6358" y1="22" x2="73.0801" y2="64.0307" gradientUnits="userSpaceOnUse">
<stop stop-color="#006BFF"/>
<stop offset="1" stop-color="#5AC6FD"/>
</linearGradient>
<linearGradient id="paint1_linear_1_265" x1="65.5718" y1="30.3921" x2="65.016" y2="72.4228" gradientUnits="userSpaceOnUse">
<stop stop-color="#006BFF"/>
<stop offset="1" stop-color="#5AC6FD"/>
</linearGradient>
</defs>
</svg>
