<svg width="120" height="168" viewBox="0 0 120 168" fill="none" xmlns="http://www.w3.org/2000/svg">
<path fill-rule="evenodd" clip-rule="evenodd" d="M78.163 0C90.21 0 96.232 0 102.717 2.05C109.797 4.627 115.373 10.203 117.95 17.283C120 23.767 120 29.791 120 41.837V78.163C120 90.21 120 96.232 117.95 102.717C115.373 109.797 109.797 115.373 102.717 117.949C96.232 120 90.21 120 78.163 120H41.837C29.79 120 23.767 120 17.283 117.949C10.203 115.373 4.627 109.797 2.05 102.717C0 96.232 0 90.21 0 78.163V41.837C0 29.791 0 23.767 2.05 17.283C4.627 10.203 10.203 4.627 17.283 2.05C23.767 0 29.79 0 41.837 0H78.163Z" fill="url(#paint0_linear_1_280)"/>
<path fill-rule="evenodd" clip-rule="evenodd" d="M39.4253 27C23.9004 27 20 37 20 37V84.5701C20 86.292 22.1183 87.3154 23.5627 86.378C27.1572 84.0452 33.0878 81 39.5547 81C54.0365 81 59 96 59 96V40C59 40 54.9502 27 39.4253 27ZM80.5747 27C96.0996 27 100 37 100 37V84.5701C100 86.292 97.8817 87.3154 96.4373 86.378C92.8428 84.0452 86.9122 81 80.4453 81C65.9635 81 61 96 61 96V40C61 40 65.0498 27 80.5747 27Z" fill="white"/>
<path d="M24.6321 144.969C25.4363 144.969 26.0692 144.323 26.0692 143.532C26.0692 142.728 25.4363 142.095 24.6321 142.095C23.8411 142.095 23.1951 142.728 23.1951 143.532C23.1951 144.323 23.8411 144.969 24.6321 144.969ZM23.4852 161H25.7791V147.289H23.4852V161ZM29.5741 161H36.7592C40.8065 161 43.2059 159.009 43.2059 155.661V155.634C43.2059 153.116 41.5448 151.271 38.8026 150.954V150.901C40.767 150.625 42.2435 148.713 42.2435 146.749V146.722C42.2435 143.875 40.0419 141.976 36.7855 141.976H29.5741V161ZM36.245 144.072C38.539 144.072 39.8441 145.101 39.8441 146.973V146.999C39.8441 149.056 38.3148 150.176 35.5067 150.176H31.9472V144.072H36.245ZM36.1791 152.22C39.2113 152.22 40.767 153.34 40.767 155.542V155.568C40.767 157.757 39.2509 158.904 36.4032 158.904H31.9472V152.22H36.1791ZM51.5361 161.264C55.3198 161.264 57.8774 158.521 57.8774 154.145V154.118C57.8774 149.741 55.3066 147.025 51.5229 147.025C47.7392 147.025 45.1816 149.754 45.1816 154.118V154.145C45.1816 158.508 47.726 161.264 51.5361 161.264ZM51.5493 159.233C49.1235 159.233 47.5283 157.375 47.5283 154.145V154.118C47.5283 150.915 49.1367 149.056 51.5229 149.056C53.9487 149.056 55.5307 150.901 55.5307 154.118V154.145C55.5307 157.361 53.9619 159.233 51.5493 159.233ZM66.1944 161.264C69.9781 161.264 72.5357 158.521 72.5357 154.145V154.118C72.5357 149.741 69.9649 147.025 66.1812 147.025C62.3975 147.025 59.8399 149.754 59.8399 154.118V154.145C59.8399 158.508 62.3843 161.264 66.1944 161.264ZM66.2076 159.233C63.7818 159.233 62.1866 157.375 62.1866 154.145V154.118C62.1866 150.915 63.795 149.056 66.1812 149.056C68.607 149.056 70.189 150.901 70.189 154.118V154.145C70.189 157.361 68.6202 159.233 66.2076 159.233ZM75.3551 161H77.649V155.832L78.9278 154.606L84.0167 161H86.6798L80.5494 153.208L86.4952 147.289H83.7135L77.7018 153.34H77.649V141.976H75.3551V161ZM92.9269 161.264C95.9855 161.264 98.2531 159.576 98.2531 157.177V157.164C98.2531 155.212 97.2512 154.118 94.4826 153.446L92.3073 152.918C90.7912 152.549 90.1716 151.903 90.1716 150.967V150.954C90.1716 149.741 91.1999 148.937 92.861 148.937C94.5617 148.937 95.5768 149.82 95.7614 151.152L95.7746 151.244H97.9631L97.9499 151.073C97.7785 148.779 95.8669 147.025 92.861 147.025C89.8947 147.025 87.8249 148.7 87.8249 151.06V151.073C87.8249 153.05 89.0773 154.25 91.6613 154.87L93.8366 155.397C95.3923 155.779 95.9064 156.333 95.9064 157.322V157.335C95.9064 158.574 94.799 159.352 92.9401 159.352C91.068 159.352 90.0529 158.548 89.7761 157.177L89.7497 157.045H87.4557L87.4689 157.164C87.7458 159.616 89.697 161.264 92.9269 161.264Z" fill="#333332"/>
<defs>
<linearGradient id="paint0_linear_1_280" x1="0" y1="0" x2="0" y2="120" gradientUnits="userSpaceOnUse">
<stop stop-color="#FFA700"/>
<stop offset="1" stop-color="#F9661E"/>
</linearGradient>
</defs>
</svg>
