<svg width="317" height="159" viewBox="0 0 317 159" fill="none" xmlns="http://www.w3.org/2000/svg">
<rect width="317" height="159" rx="8" fill="#5B04AA"/>
<rect x="16" y="38" width="34" height="34" rx="17" fill="white" fill-opacity="0.4"/>
<path d="M40 54H26C24.8954 54 24 54.8954 24 56V63C24 64.1046 24.8954 65 26 65H40C41.1046 65 42 64.1046 42 63V56C42 54.8954 41.1046 54 40 54Z" stroke="white" stroke-width="2" stroke-linecap="round" stroke-linejoin="round"/>
<path d="M28 54V50C28 48.6739 28.5268 47.4021 29.4645 46.4645C30.4021 45.5268 31.6739 45 33 45C34.3261 45 35.5979 45.5268 36.5355 46.4645C37.4732 47.4021 38 48.6739 38 50V54" stroke="white" stroke-width="2" stroke-linecap="round" stroke-linejoin="round"/>
<path d="M58.2188 52H60.6953L61.5469 49.2656H65.5312L66.3828 52H68.8594L64.9297 40.7266H62.1562L58.2188 52ZM63.5156 42.9141H63.5625L64.9844 47.5H62.0938L63.5156 42.9141ZM75.0958 52.1719C77.2051 52.1719 78.5098 50.5312 78.5098 47.8125V47.8047C78.5098 45.0781 77.2051 43.4531 75.1036 43.4531C73.9083 43.4531 72.9786 44.0625 72.5176 45.0781H72.4708V40.7266H70.1895V52H72.4708V50.5703H72.5176C72.9708 51.5625 73.8926 52.1719 75.0958 52.1719ZM74.338 50.2812C73.2286 50.2812 72.4708 49.3281 72.4708 47.8125V47.8047C72.4708 46.2969 73.2364 45.3438 74.338 45.3438C75.4708 45.3438 76.1895 46.2734 76.1895 47.8047V47.8125C76.1895 49.3359 75.4708 50.2812 74.338 50.2812ZM79.9962 52H82.2775V47.3125C82.2775 46.0938 82.9337 45.4219 84.0587 45.4219C84.3869 45.4219 84.6994 45.4688 84.8869 45.5469V43.5391C84.715 43.4922 84.4806 43.4531 84.2306 43.4531C83.254 43.4531 82.5744 44.0547 82.3244 45.0859H82.2775V43.625H79.9962V52ZM87.3264 42.5469C88.0139 42.5469 88.5451 42.0078 88.5451 41.3594C88.5451 40.7109 88.0139 40.1719 87.3264 40.1719C86.6389 40.1719 86.1076 40.7109 86.1076 41.3594C86.1076 42.0078 86.6389 42.5469 87.3264 42.5469ZM86.1858 52H88.467V43.625H86.1858V52ZM90.3128 52H92.594V47.3125C92.594 46.0938 93.2503 45.4219 94.3753 45.4219C94.7034 45.4219 95.0159 45.4688 95.2034 45.5469V43.5391C95.0315 43.4922 94.7972 43.4531 94.5472 43.4531C93.5706 43.4531 92.8909 44.0547 92.6409 45.0859H92.594V43.625H90.3128V52ZM99.9418 54.7344H102.223V50.5703H102.27C102.723 51.5625 103.668 52.1719 104.864 52.1719C106.957 52.1719 108.254 50.5312 108.254 47.8125V47.8047C108.254 45.0781 106.957 43.4531 104.832 43.4531C103.645 43.4531 102.731 44.0703 102.278 45.0859H102.223V43.625H99.9418V54.7344ZM104.082 50.2812C102.973 50.2812 102.215 49.3281 102.215 47.8203V47.8125C102.215 46.2969 102.973 45.3438 104.082 45.3438C105.215 45.3438 105.934 46.2734 105.934 47.8047V47.8125C105.934 49.3359 105.215 50.2812 104.082 50.2812ZM113.6 52.1719C116.131 52.1719 117.749 50.5469 117.749 47.8125V47.7969C117.749 45.0859 116.1 43.4531 113.592 43.4531C111.092 43.4531 109.452 45.1016 109.452 47.7969V47.8125C109.452 50.5391 111.053 52.1719 113.6 52.1719ZM113.608 50.3828C112.483 50.3828 111.772 49.4531 111.772 47.8125V47.7969C111.772 46.1797 112.491 45.2422 113.592 45.2422C114.702 45.2422 115.428 46.1797 115.428 47.7969V47.8125C115.428 49.4453 114.717 50.3828 113.608 50.3828ZM119.243 52H121.524V47.3125C121.524 46.0938 122.18 45.4219 123.305 45.4219C123.633 45.4219 123.946 45.4688 124.133 45.5469V43.5391C123.961 43.4922 123.727 43.4531 123.477 43.4531C122.501 43.4531 121.821 44.0547 121.571 45.0859H121.524V43.625H119.243V52ZM129.026 52.1719C129.503 52.1719 129.87 52.125 130.128 52.0859V50.4141C129.987 50.4297 129.839 50.4531 129.635 50.4531C128.948 50.4531 128.596 50.1875 128.596 49.4062V45.3438H130.128V43.625H128.596V41.5781H126.292V43.625H125.128V45.3438H126.292V49.6562C126.292 51.4531 127.167 52.1719 129.026 52.1719ZM136.559 42.7188C137.497 42.7188 138.051 41.9453 138.051 40.3984V40.2812H136.794V40.3281C136.794 40.9531 136.63 41.2344 136.309 41.2344C136.075 41.2344 135.856 41.1016 135.606 40.9141L135.262 40.6797C134.966 40.4688 134.606 40.2891 134.137 40.2891C133.247 40.2891 132.645 41.0312 132.645 42.6094V42.7266H133.903V42.6797C133.903 42.0547 134.067 41.7734 134.387 41.7734C134.614 41.7734 134.833 41.9141 135.083 42.0859L135.419 42.3203C135.723 42.5391 136.091 42.7188 136.559 42.7188ZM134.145 52.1328C135.247 52.1328 136.137 51.6094 136.614 50.75H136.661V52H138.942V46.2578C138.942 44.5703 137.544 43.4531 135.38 43.4531C133.169 43.4531 131.841 44.5625 131.716 46.1094L131.708 46.2031H133.794L133.809 46.1328C133.919 45.5938 134.434 45.1953 135.286 45.1953C136.176 45.1953 136.661 45.6562 136.661 46.3984V46.9141L134.591 47.0391C132.512 47.1719 131.333 48.0625 131.333 49.5859V49.6016C131.333 51.0781 132.466 52.1328 134.145 52.1328ZM133.591 49.4844V49.4688C133.591 48.875 134.051 48.5 134.934 48.4453L136.661 48.3359V48.9375C136.661 49.8125 135.911 50.4688 134.887 50.4688C134.098 50.4688 133.591 50.1016 133.591 49.4844ZM144.577 52.1719C147.108 52.1719 148.725 50.5469 148.725 47.8125V47.7969C148.725 45.0859 147.077 43.4531 144.569 43.4531C142.069 43.4531 140.429 45.1016 140.429 47.7969V47.8125C140.429 50.5391 142.03 52.1719 144.577 52.1719ZM144.585 50.3828C143.46 50.3828 142.749 49.4531 142.749 47.8125V47.7969C142.749 46.1797 143.468 45.2422 144.569 45.2422C145.679 45.2422 146.405 46.1797 146.405 47.7969V47.8125C146.405 49.4453 145.694 50.3828 144.585 50.3828Z" fill="white"/>
<path d="M59.4536 69H60.6841V65.4795H62.9673C64.8198 65.4795 66.1323 64.1738 66.1323 62.3008V62.2871C66.1323 60.4141 64.8198 59.1357 62.9673 59.1357H59.4536V69ZM62.6528 60.2295C64.061 60.2295 64.8745 61.002 64.8745 62.3008V62.3145C64.8745 63.6133 64.061 64.3857 62.6528 64.3857H60.6841V60.2295H62.6528ZM70.2818 69.1367C72.2437 69.1367 73.5699 67.7148 73.5699 65.4453V65.4316C73.5699 63.1621 72.2369 61.7539 70.275 61.7539C68.3131 61.7539 66.9869 63.1689 66.9869 65.4316V65.4453C66.9869 67.708 68.3062 69.1367 70.2818 69.1367ZM70.2886 68.084C69.0308 68.084 68.2037 67.1201 68.2037 65.4453V65.4316C68.2037 63.7705 69.0377 62.8066 70.275 62.8066C71.5328 62.8066 72.3531 63.7637 72.3531 65.4316V65.4453C72.3531 67.1133 71.5396 68.084 70.2886 68.084ZM75.0875 69H76.277V64.6113C76.277 63.5312 76.8786 62.8887 77.8014 62.8887C78.0885 62.8887 78.3414 62.9229 78.4372 62.957V61.8018C78.3414 61.7881 78.1637 61.7539 77.9586 61.7539C77.1588 61.7539 76.5436 62.2734 76.3043 63.0938H76.277V61.8906H75.0875V69ZM82.3747 69.1367C82.6071 69.1367 82.8601 69.1094 83.0105 69.0889V68.125C82.9079 68.1318 82.7712 68.1523 82.6277 68.1523C81.9919 68.1523 81.6569 67.9404 81.6569 67.1816V62.875H83.0105V61.8906H81.6569V59.9697H80.4265V61.8906H79.3874V62.875H80.4265V67.1885C80.4265 68.5488 81.0691 69.1367 82.3747 69.1367ZM86.5447 69.1367C87.4949 69.1367 88.3494 68.624 88.7664 67.8447H88.7937V69H89.9832V64.085C89.9832 62.6631 88.9305 61.7539 87.2488 61.7539C85.574 61.7539 84.5555 62.6973 84.4529 63.8662L84.4461 63.9414H85.5945L85.6082 63.8799C85.7449 63.2441 86.3191 62.8066 87.2351 62.8066C88.2264 62.8066 88.7937 63.333 88.7937 64.2012V64.7959L86.7566 64.9121C85.1228 65.0078 84.1795 65.7666 84.1795 66.9766V66.9902C84.1795 68.2822 85.1297 69.1367 86.5447 69.1367ZM85.3963 66.9902V66.9766C85.3963 66.3135 85.9432 65.8896 86.8933 65.835L88.7937 65.7188V66.2998C88.7937 67.332 87.9324 68.1045 86.8113 68.1045C85.9568 68.1045 85.3963 67.6738 85.3963 66.9902ZM94.9941 71.3926H96.1835V67.8105H96.2109C96.6552 68.6309 97.4824 69.1367 98.4872 69.1367C100.271 69.1367 101.488 67.6943 101.488 65.4521V65.4453C101.488 63.2031 100.285 61.7539 98.4667 61.7539C97.4482 61.7539 96.6552 62.2666 96.2109 63.0938H96.1835V61.8906H94.9941V71.3926ZM98.2343 68.084C97.038 68.084 96.1767 67.0381 96.1767 65.4521V65.4453C96.1767 63.8525 97.0312 62.8066 98.2343 62.8066C99.4921 62.8066 100.271 63.8115 100.271 65.4453V65.4521C100.271 67.0723 99.4921 68.084 98.2343 68.084ZM103.006 69H104.195V64.6113C104.195 63.5312 104.797 62.8887 105.72 62.8887C106.007 62.8887 106.26 62.9229 106.355 62.957V61.8018C106.26 61.7881 106.082 61.7539 105.877 61.7539C105.077 61.7539 104.462 62.2734 104.223 63.0938H104.195V61.8906H103.006V69ZM108.311 60.6875C108.728 60.6875 109.056 60.3525 109.056 59.9424C109.056 59.5254 108.728 59.1973 108.311 59.1973C107.9 59.1973 107.566 59.5254 107.566 59.9424C107.566 60.3525 107.9 60.6875 108.311 60.6875ZM107.716 69H108.905V61.8906H107.716V69ZM110.84 69H112.029V64.8164C112.029 63.6064 112.761 62.8066 113.882 62.8066C114.976 62.8066 115.516 63.4424 115.516 64.5977V69H116.705V64.3857C116.705 62.7656 115.803 61.7539 114.244 61.7539C113.164 61.7539 112.44 62.2393 112.057 62.9023H112.029V61.8906H110.84V69ZM121.484 69.1367C123.09 69.1367 124.259 68.0908 124.45 66.7373L124.457 66.6895H123.288L123.275 66.7441C123.076 67.5371 122.454 68.084 121.484 68.084C120.253 68.084 119.405 67.1064 119.405 65.4521V65.4453C119.405 63.832 120.233 62.8066 121.47 62.8066C122.516 62.8066 123.09 63.4355 123.268 64.1465L123.281 64.2012H124.444L124.437 64.1465C124.286 62.9297 123.24 61.7539 121.47 61.7539C119.494 61.7539 118.189 63.1895 118.189 65.4316V65.4385C118.189 67.7012 119.467 69.1367 121.484 69.1367ZM126.535 60.6875C126.952 60.6875 127.281 60.3525 127.281 59.9424C127.281 59.5254 126.952 59.1973 126.535 59.1973C126.125 59.1973 125.79 59.5254 125.79 59.9424C125.79 60.3525 126.125 60.6875 126.535 60.6875ZM125.941 69H127.13V61.8906H125.941V69ZM129.065 71.3926H130.254V67.8105H130.282C130.726 68.6309 131.553 69.1367 132.558 69.1367C134.342 69.1367 135.559 67.6943 135.559 65.4521V65.4453C135.559 63.2031 134.356 61.7539 132.537 61.7539C131.519 61.7539 130.726 62.2666 130.282 63.0938H130.254V61.8906H129.065V71.3926ZM132.305 68.084C131.109 68.084 130.247 67.0381 130.247 65.4521V65.4453C130.247 63.8525 131.102 62.8066 132.305 62.8066C133.563 62.8066 134.342 63.8115 134.342 65.4453V65.4521C134.342 67.0723 133.563 68.084 132.305 68.084ZM139.155 69.1367C140.105 69.1367 140.959 68.624 141.376 67.8447H141.404V69H142.593V64.085C142.593 62.6631 141.54 61.7539 139.859 61.7539C138.184 61.7539 137.165 62.6973 137.063 63.8662L137.056 63.9414H138.205L138.218 63.8799C138.355 63.2441 138.929 62.8066 139.845 62.8066C140.836 62.8066 141.404 63.333 141.404 64.2012V64.7959L139.367 64.9121C137.733 65.0078 136.789 65.7666 136.789 66.9766V66.9902C136.789 68.2822 137.74 69.1367 139.155 69.1367ZM138.006 66.9902V66.9766C138.006 66.3135 138.553 65.8896 139.503 65.835L141.404 65.7188V66.2998C141.404 67.332 140.542 68.1045 139.421 68.1045C138.567 68.1045 138.006 67.6738 138.006 66.9902ZM144.48 69H145.669V59.1357H144.48V69Z" fill="white" fill-opacity="0.5"/>
<path fill-rule="evenodd" clip-rule="evenodd" d="M31.857 91.0922C33.597 90.9922 35.335 91.0002 37.075 91.0002C37.087 91.0002 45.892 91.0002 45.892 91.0002C47.666 91.0002 49.404 90.9922 51.143 91.0922C52.724 91.1822 54.264 91.3742 55.797 91.8032C59.024 92.7052 61.842 94.5892 63.879 97.2602C65.904 99.9142 67 103.163 67 106.499C67 109.839 65.904 113.086 63.879 115.74C61.842 118.41 59.024 120.295 55.797 121.197C54.264 121.626 52.724 121.817 51.143 121.908C49.404 122.008 47.666 121.999 45.926 121.999C45.914 121.999 37.107 122 37.107 122C35.335 121.999 33.597 122.008 31.857 121.908C30.277 121.817 28.737 121.626 27.204 121.197C23.977 120.295 21.159 118.41 19.122 115.74C17.097 113.086 16 109.839 16 106.5C16 103.163 17.097 99.9142 19.122 97.2602C21.159 94.5892 23.977 92.7052 27.204 91.8032C28.737 91.3742 30.277 91.1822 31.857 91.0922Z" fill="#34C759"/>
<g filter="url(#filter0_dd_1_420)">
<path fill-rule="evenodd" clip-rule="evenodd" d="M51.5 120C58.9558 120 65 113.956 65 106.5C65 99.0442 58.9558 93 51.5 93C44.0442 93 38 99.0442 38 106.5C38 113.956 44.0442 120 51.5 120Z" fill="white"/>
</g>
<defs>
<filter id="filter0_dd_1_420" x="30" y="88" width="43" height="43" filterUnits="userSpaceOnUse" color-interpolation-filters="sRGB">
<feFlood flood-opacity="0" result="BackgroundImageFix"/>
<feColorMatrix in="SourceAlpha" type="matrix" values="0 0 0 0 0 0 0 0 0 0 0 0 0 0 0 0 0 0 127 0" result="hardAlpha"/>
<feOffset dy="3"/>
<feGaussianBlur stdDeviation="0.5"/>
<feColorMatrix type="matrix" values="0 0 0 0 0 0 0 0 0 0 0 0 0 0 0 0 0 0 0.06 0"/>
<feBlend mode="normal" in2="BackgroundImageFix" result="effect1_dropShadow_1_420"/>
<feColorMatrix in="SourceAlpha" type="matrix" values="0 0 0 0 0 0 0 0 0 0 0 0 0 0 0 0 0 0 127 0" result="hardAlpha"/>
<feOffset dy="3"/>
<feGaussianBlur stdDeviation="4"/>
<feColorMatrix type="matrix" values="0 0 0 0 0 0 0 0 0 0 0 0 0 0 0 0 0 0 0.15 0"/>
<feBlend mode="normal" in2="effect1_dropShadow_1_420" result="effect2_dropShadow_1_420"/>
<feBlend mode="normal" in="SourceGraphic" in2="effect2_dropShadow_1_420" result="shape"/>
</filter>
</defs>
</svg>
