<svg width="120" height="168" viewBox="0 0 120 168" fill="none" xmlns="http://www.w3.org/2000/svg">
<path fill-rule="evenodd" clip-rule="evenodd" d="M78.163 0C90.21 0 96.232 0 102.717 2.05C109.797 4.627 115.373 10.203 117.95 17.283C120 23.767 120 29.791 120 41.837V78.163C120 90.21 120 96.232 117.95 102.717C115.373 109.797 109.797 115.373 102.717 117.949C96.232 120 90.21 120 78.163 120H41.837C29.79 120 23.767 120 17.283 117.949C10.203 115.373 4.627 109.797 2.05 102.717C0 96.232 0 90.21 0 78.163V41.837C0 29.791 0 23.767 2.05 17.283C4.627 10.203 10.203 4.627 17.283 2.05C23.767 0 29.79 0 41.837 0H78.163Z" fill="url(#paint0_linear_1_287)"/>
<path fill-rule="evenodd" clip-rule="evenodd" d="M73.785 94.1549C74.1229 94.0359 74.4594 93.9125 74.7942 93.7847C90.7439 87.6975 101.5 72.3581 101.5 55C101.5 32.0802 82.9198 13.5 60 13.5C37.0802 13.5 18.5 32.0802 18.5 55C18.5 72.6466 29.616 88.186 45.9532 94.0617C46.1944 94.1485 46.4365 94.233 46.6792 94.3152L46.1719 88.7906C32.6131 83.242 23.5 69.9845 23.5 55C23.5 34.8416 39.8416 18.5 60 18.5C80.1584 18.5 96.5 34.8416 96.5 55C96.5 69.8582 87.5398 83.0348 74.1298 88.6653L73.785 94.1549ZM74.7107 79.4149C82.9747 74.4249 88.5 65.3577 88.5 55C88.5 39.2599 75.7401 26.5 60 26.5C44.2599 26.5 31.5 39.2599 31.5 55C31.5 65.3672 37.0355 74.4416 45.3121 79.4287L44.7074 72.8439C39.6831 68.534 36.5 62.1387 36.5 55C36.5 42.0213 47.0213 31.5 60 31.5C72.9787 31.5 83.5 42.0213 83.5 55C83.5 62.223 80.2413 68.6849 75.1138 72.9958L74.7107 79.4149Z" fill="white"/>
<path fill-rule="evenodd" clip-rule="evenodd" d="M60 62C65.5228 62 70 57.5228 70 52C70 46.4772 65.5228 42 60 42C54.4771 42 50 46.4772 50 52C50 57.5228 54.4771 62 60 62ZM58.9448 66C53.6202 66 49.4597 70.5974 49.9895 75.8955L52.4597 100.597C52.7664 103.664 55.3474 106 58.4299 106H61.57C64.6525 106 67.2335 103.664 67.5403 100.597L70.0104 75.8955C70.5402 70.5974 66.3797 66 61.0551 66H58.9448Z" fill="white"/>
<path d="M10.4324 161H12.8054V154.21H17.2087C20.7815 154.21 23.3127 151.692 23.3127 148.08V148.054C23.3127 144.441 20.7815 141.976 17.2087 141.976H10.4324V161ZM16.6023 144.085C19.3181 144.085 20.887 145.575 20.887 148.08V148.106C20.887 150.611 19.3181 152.101 16.6023 152.101H12.8054V144.085H16.6023ZM31.0233 161.264C34.807 161.264 37.3646 158.521 37.3646 154.145V154.118C37.3646 149.741 34.7938 147.025 31.0101 147.025C27.2264 147.025 24.6688 149.754 24.6688 154.118V154.145C24.6688 158.508 27.2132 161.264 31.0233 161.264ZM31.0364 159.233C28.6107 159.233 27.0155 157.375 27.0155 154.145V154.118C27.0155 150.915 28.6238 149.056 31.0101 149.056C33.4359 149.056 35.0179 150.901 35.0179 154.118V154.145C35.0179 157.361 33.449 159.233 31.0364 159.233ZM45.1542 161.264C47.1185 161.264 48.6478 160.275 49.5048 158.68H49.5575V161H51.8515V141.976H49.5575V149.583H49.5048C48.6478 148.001 47.0526 147.025 45.1146 147.025C41.6737 147.025 39.327 149.807 39.327 154.131V154.145C39.327 158.469 41.6474 161.264 45.1542 161.264ZM45.6024 159.233C43.1767 159.233 41.6737 157.295 41.6737 154.145V154.131C41.6737 151.007 43.1767 149.056 45.6024 149.056C47.9096 149.056 49.5707 151.073 49.5707 154.131V154.145C49.5707 157.216 47.9227 159.233 45.6024 159.233ZM60.9463 161.264C64.0444 161.264 66.2988 159.247 66.6679 156.636L66.6811 156.544H64.4267L64.4004 156.649C64.018 158.179 62.8183 159.233 60.9463 159.233C58.5732 159.233 56.9384 157.348 56.9384 154.158V154.145C56.9384 151.033 58.5337 149.056 60.9199 149.056C62.937 149.056 64.0444 150.269 64.3872 151.64L64.4135 151.745H66.6548L66.6416 151.64C66.3515 149.293 64.3344 147.025 60.9199 147.025C57.1098 147.025 54.5918 149.794 54.5918 154.118V154.131C54.5918 158.495 57.0571 161.264 60.9463 161.264ZM73.1128 161.264C74.9453 161.264 76.5933 160.275 77.3975 158.772H77.4502V161H79.7442V151.521C79.7442 148.779 77.7139 147.025 74.4707 147.025C71.2408 147.025 69.2764 148.845 69.0786 151.099L69.0655 151.244H71.2803L71.3067 151.125C71.5703 149.899 72.6778 149.056 74.4444 149.056C76.356 149.056 77.4502 150.071 77.4502 151.745V152.892L73.5215 153.116C70.3706 153.301 68.5513 154.764 68.5513 157.098V157.124C68.5513 159.616 70.3838 161.264 73.1128 161.264ZM70.898 157.124V157.098C70.898 155.819 71.9527 155.001 73.7852 154.896L77.4502 154.672V155.792C77.4502 157.783 75.7891 159.273 73.627 159.273C71.979 159.273 70.898 158.442 70.898 157.124ZM87.837 161.264C90.8956 161.264 93.1632 159.576 93.1632 157.177V157.164C93.1632 155.212 92.1612 154.118 89.3927 153.446L87.2174 152.918C85.7013 152.549 85.0816 151.903 85.0816 150.967V150.954C85.0816 149.741 86.11 148.937 87.7711 148.937C89.4718 148.937 90.4869 149.82 90.6715 151.152L90.6847 151.244H92.8732L92.86 151.073C92.6886 148.779 90.777 147.025 87.7711 147.025C84.8048 147.025 82.735 148.7 82.735 151.06V151.073C82.735 153.05 83.9874 154.25 86.5714 154.87L88.7467 155.397C90.3024 155.779 90.8165 156.333 90.8165 157.322V157.335C90.8165 158.574 89.7091 159.352 87.8502 159.352C85.9781 159.352 84.963 158.548 84.6861 157.177L84.6598 157.045H82.3658L82.379 157.164C82.6559 159.616 84.607 161.264 87.837 161.264ZM100.32 161.264C100.768 161.264 101.256 161.211 101.546 161.171V159.312C101.348 159.326 101.085 159.365 100.808 159.365C99.5817 159.365 98.9357 158.957 98.9357 157.493V149.188H101.546V147.289H98.9357V143.584H96.5627V147.289H94.5588V149.188H96.5627V157.506C96.5627 160.13 97.8019 161.264 100.32 161.264ZM109.191 161.264C112.249 161.264 114.517 159.576 114.517 157.177V157.164C114.517 155.212 113.515 154.118 110.746 153.446L108.571 152.918C107.055 152.549 106.435 151.903 106.435 150.967V150.954C106.435 149.741 107.464 148.937 109.125 148.937C110.825 148.937 111.841 149.82 112.025 151.152L112.038 151.244H114.227L114.214 151.073C114.042 148.779 112.131 147.025 109.125 147.025C106.158 147.025 104.089 148.7 104.089 151.06V151.073C104.089 153.05 105.341 154.25 107.925 154.87L110.1 155.397C111.656 155.779 112.17 156.333 112.17 157.322V157.335C112.17 158.574 111.063 159.352 109.204 159.352C107.332 159.352 106.317 158.548 106.04 157.177L106.013 157.045H103.719L103.733 157.164C104.01 159.616 105.961 161.264 109.191 161.264Z" fill="#333332"/>
<defs>
<linearGradient id="paint0_linear_1_287" x1="0" y1="0" x2="0" y2="120" gradientUnits="userSpaceOnUse">
<stop stop-color="#822ABF"/>
<stop offset="1" stop-color="#D16CF7"/>
</linearGradient>
</defs>
</svg>
