<svg width="120" height="167" viewBox="0 0 120 167" fill="none" xmlns="http://www.w3.org/2000/svg">
<path fill-rule="evenodd" clip-rule="evenodd" d="M78.163 0C90.21 0 96.232 0 102.717 2.05C109.797 4.627 115.373 10.203 117.95 17.283C120 23.767 120 29.791 120 41.837V78.163C120 90.21 120 96.232 117.95 102.717C115.373 109.797 109.797 115.373 102.717 117.949C96.232 120 90.21 120 78.163 120H41.837C29.79 120 23.767 120 17.283 117.949C10.203 115.373 4.627 109.797 2.05 102.717C0 96.232 0 90.21 0 78.163V41.837C0 29.791 0 23.767 2.05 17.283C4.627 10.203 10.203 4.627 17.283 2.05C23.767 0 29.79 0 41.837 0H78.163Z" fill="url(#paint0_linear_18_1487)"/>
<path fill-rule="evenodd" clip-rule="evenodd" d="M27.5635 52.3569C23.1169 44.2993 21.4219 37.8035 21.4219 33.416C21.4219 29.0285 22.5004 27.7702 23.5947 26.7536C24.6891 25.7369 29.6239 22.6959 30.4647 22.1288C31.3055 21.5617 34.5146 20.4595 36.5271 23.3531C38.5396 26.2467 42.3293 32.0564 44.9421 35.9159C49.0421 41.3826 45.7758 43.7824 44.7207 45.2207C42.7793 47.8675 41.6614 48.5203 41.6614 51.7703C41.6614 55.0203 50.7485 64.2536 52.9214 66.5286C55.0777 68.7863 64.1323 76.72 66.938 77.1443C69.7634 77.5715 73.5459 74.5817 74.3501 73.8235C78.4412 70.6841 80.7505 73.0642 82.6349 74.0988C84.5193 75.1334 93.0335 80.4363 95.672 82.2238C98.1553 84.0113 98 86.7738 98 86.7738C98 86.7738 96.2334 91.9287 92.2575 95.8737C91.28 96.8437 89.6191 97.9862 85.4286 97.9862C81.2381 97.9862 76.7607 97.2212 66.1201 91.3721C57.4136 86.5861 49.1138 79.0916 44.7681 74.7041C40.2672 70.3166 32.6427 61.561 27.5635 52.3569Z" fill="white"/>
<path d="M24.9222 161H27.2953V154.21H31.6986C35.2713 154.21 37.8026 151.692 37.8026 148.08V148.054C37.8026 144.441 35.2713 141.976 31.6986 141.976H24.9222V161ZM31.0921 144.085C33.808 144.085 35.3768 145.575 35.3768 148.08V148.106C35.3768 150.611 33.808 152.101 31.0921 152.101H27.2953V144.085H31.0921ZM40.6088 161H42.9028V152.998C42.9028 150.664 44.3134 149.056 46.436 149.056C48.5717 149.056 49.8373 150.519 49.8373 152.998V161H52.1313V152.602C52.1313 149.28 50.1406 147.025 47.227 147.025C45.1835 147.025 43.6938 147.935 42.9555 149.478H42.9028V141.976H40.6088V161ZM61.0415 161.264C64.8252 161.264 67.3828 158.521 67.3828 154.145V154.118C67.3828 149.741 64.812 147.025 61.0283 147.025C57.2446 147.025 54.687 149.754 54.687 154.118V154.145C54.687 158.508 57.2314 161.264 61.0415 161.264ZM61.0547 159.233C58.6289 159.233 57.0337 157.375 57.0337 154.145V154.118C57.0337 150.915 58.6421 149.056 61.0283 149.056C63.4541 149.056 65.0361 150.901 65.0361 154.118V154.145C65.0361 157.361 63.4673 159.233 61.0547 159.233ZM70.0176 161H72.3116V152.932C72.3116 150.598 73.7222 149.056 75.8843 149.056C77.9937 149.056 79.0352 150.282 79.0352 152.51V161H81.3292V152.101C81.3292 148.977 79.5889 147.025 76.5831 147.025C74.5001 147.025 73.1026 147.961 72.3643 149.24H72.3116V147.289H70.0176V161ZM90.213 161.264C93.2057 161.264 95.4469 159.471 95.8952 157.203L95.9215 157.071H93.6671L93.6276 157.19C93.2321 158.363 92.006 159.233 90.2658 159.233C87.8268 159.233 86.2711 157.585 86.2184 154.764H96.0929V153.92C96.0929 149.807 93.8121 147.025 90.068 147.025C86.3239 147.025 83.8981 149.939 83.8981 154.184V154.197C83.8981 158.508 86.2711 161.264 90.213 161.264ZM90.0548 149.056C92.0587 149.056 93.5353 150.308 93.7594 152.971H86.2579C86.5084 150.414 88.0641 149.056 90.0548 149.056Z" fill="#333332"/>
<defs>
<linearGradient id="paint0_linear_18_1487" x1="0" y1="0" x2="0" y2="120" gradientUnits="userSpaceOnUse">
<stop stop-color="#67FF81"/>
<stop offset="1" stop-color="#01B41F"/>
</linearGradient>
</defs>
</svg>
