<svg width="358" height="57" viewBox="0 0 358 57" fill="none" xmlns="http://www.w3.org/2000/svg">
<rect width="358" height="57" fill="white"/>
<path d="M60.5493 25.2905C63.687 25.2905 65.7207 23.3232 65.7207 20.2852V18.7993H60.8066V20.3018H63.8862V20.5674C63.8696 22.4102 62.5332 23.647 60.5742 23.647C58.3247 23.647 56.9136 21.8706 56.9136 19.0068V18.9902C56.9136 16.168 58.3164 14.375 60.5327 14.375C62.1763 14.375 63.3218 15.1719 63.7534 16.5913L63.7783 16.6743H65.6377L65.6211 16.5913C65.1895 14.2754 63.2554 12.7314 60.5327 12.7314C57.1792 12.7314 55.0127 15.1968 55.0127 18.9985V19.0151C55.0127 22.8667 57.1543 25.2905 60.5493 25.2905ZM70.1106 25.1494C71.3059 25.1494 72.2522 24.6348 72.7834 23.7217H72.9245V25H74.7092V18.8325C74.7092 16.9399 73.4309 15.811 71.1648 15.811C69.1145 15.811 67.695 16.7988 67.4792 18.2764L67.4709 18.3345H69.2058L69.2141 18.3013C69.4299 17.6621 70.0857 17.2969 71.0817 17.2969C72.302 17.2969 72.9245 17.8447 72.9245 18.8325V19.6294L70.4841 19.7705C68.3342 19.9033 67.1223 20.8413 67.1223 22.4517V22.4683C67.1223 24.1035 68.3923 25.1494 70.1106 25.1494ZM68.9152 22.3936V22.377C68.9152 21.5635 69.4797 21.1152 70.7248 21.0405L72.9245 20.8994V21.6714C72.9245 22.8335 71.9367 23.7134 70.592 23.7134C69.6208 23.7134 68.9152 23.2236 68.9152 22.3936ZM76.8412 25H78.6425V19.6128C78.6425 18.3096 79.5805 17.4629 80.9584 17.4629C81.2987 17.4629 81.6059 17.5044 81.9296 17.5708V15.9106C81.747 15.8691 81.4316 15.8276 81.141 15.8276C79.9374 15.8276 79.099 16.3921 78.7753 17.3467H78.6425V15.9854H76.8412V25ZM85.6471 25.1494C86.8424 25.1494 87.7887 24.6348 88.3199 23.7217H88.4611V25H90.2457V18.8325C90.2457 16.9399 88.9674 15.811 86.7013 15.811C84.651 15.811 83.2316 16.7988 83.0157 18.2764L83.0074 18.3345H84.7423L84.7506 18.3013C84.9664 17.6621 85.6222 17.2969 86.6183 17.2969C87.8385 17.2969 88.4611 17.8447 88.4611 18.8325V19.6294L86.0206 19.7705C83.8707 19.9033 82.6588 20.8413 82.6588 22.4517V22.4683C82.6588 24.1035 83.9288 25.1494 85.6471 25.1494ZM84.4518 22.3936V22.377C84.4518 21.5635 85.0162 21.1152 86.2614 21.0405L88.4611 20.8994V21.6714C88.4611 22.8335 87.4733 23.7134 86.1285 23.7134C85.1573 23.7134 84.4518 23.2236 84.4518 22.3936ZM96.1878 28.1792C98.7445 28.1792 100.363 26.8677 100.363 24.8174V15.9854H98.5701V17.4629H98.4622C97.9393 16.4502 96.9598 15.8276 95.6981 15.8276C93.3573 15.8276 91.9212 17.6455 91.9212 20.2188V20.2354C91.9212 22.7754 93.349 24.5601 95.6649 24.5601C96.9017 24.5601 97.8978 24.0122 98.4456 23.0327H98.5784V24.8091C98.5784 26.0376 97.6986 26.7349 96.2127 26.7349C94.9925 26.7349 94.262 26.2949 94.1126 25.6724L94.1043 25.6558H92.2865L92.2699 25.6724C92.4857 27.1748 93.8968 28.1792 96.1878 28.1792ZM96.1629 23.0742C94.6273 23.0742 93.764 21.9038 93.764 20.2271V20.2104C93.764 18.5337 94.6273 17.355 96.1629 17.355C97.682 17.355 98.6117 18.5337 98.6117 20.2104V20.2271C98.6117 21.9121 97.6903 23.0742 96.1629 23.0742ZM106.33 25.1743C108.638 25.1743 109.883 23.8462 110.182 22.6592L110.198 22.5845L108.463 22.5928L108.43 22.6592C108.214 23.124 107.525 23.6968 106.372 23.6968C104.886 23.6968 103.939 22.6924 103.906 20.9658H110.298V20.335C110.298 17.6289 108.754 15.811 106.239 15.811C103.724 15.811 102.097 17.6953 102.097 20.5093V20.5176C102.097 23.373 103.69 25.1743 106.33 25.1743ZM106.247 17.2886C107.467 17.2886 108.372 18.0688 108.513 19.6792H103.931C104.089 18.127 105.019 17.2886 106.247 17.2886ZM112.031 25H113.833V19.4634C113.833 18.2847 114.638 17.355 115.725 17.355C116.788 17.355 117.46 18.0024 117.46 19.0317V25H119.253V19.2974C119.253 18.21 120.009 17.355 121.154 17.355C122.333 17.355 122.897 17.9692 122.897 19.2144V25H124.69V18.7827C124.69 16.9067 123.628 15.811 121.81 15.811C120.556 15.811 119.519 16.4502 119.062 17.4214H118.921C118.523 16.4502 117.651 15.811 116.423 15.811C115.244 15.811 114.364 16.3838 113.966 17.3716H113.833V15.9854H112.031V25Z" fill="black"/>
<path d="M55.0605 43H60.334V41.8691H56.373V34.5449H55.0605V43ZM63.9727 43.123C64.8984 43.123 65.543 42.7246 65.8477 42.0391H65.9473V43H67.2129V36.6367H65.9473V40.3691C65.9473 41.3945 65.4023 42.0332 64.3828 42.0332C63.4512 42.0332 63.0645 41.5117 63.0645 40.457V36.6367H61.793V40.7559C61.793 42.2617 62.5371 43.123 63.9727 43.123ZM68.9004 43H73.9512V41.998H70.4766V41.8984L73.916 37.5098V36.6367H68.9238V37.6387H72.416V37.7383L68.9004 42.1738V43ZM78.9141 45.1211H80.1855V41.9922H80.2793C80.6191 42.6777 81.3633 43.1055 82.2363 43.1055C83.8535 43.1055 84.873 41.8398 84.873 39.8242V39.8125C84.873 37.8086 83.8418 36.5254 82.2363 36.5254C81.3457 36.5254 80.6484 36.9414 80.2793 37.6387H80.1855V36.6367H78.9141V45.1211ZM81.8789 42.0215C80.8184 42.0215 80.1621 41.1836 80.1621 39.8242V39.8125C80.1621 38.4531 80.8184 37.6152 81.8789 37.6152C82.9395 37.6152 83.5781 38.4414 83.5781 39.8125V39.8242C83.5781 41.1895 82.9395 42.0215 81.8789 42.0215ZM86.4023 43H87.6738V39.1973C87.6738 38.2773 88.3359 37.6797 89.3086 37.6797C89.5488 37.6797 89.7656 37.709 89.9941 37.7559V36.584C89.8652 36.5547 89.6426 36.5254 89.4375 36.5254C88.5879 36.5254 87.9961 36.9238 87.7676 37.5977H87.6738V36.6367H86.4023V43ZM91.8691 35.5C92.3027 35.5 92.666 35.1426 92.666 34.709C92.666 34.2695 92.3027 33.9121 91.8691 33.9121C91.4297 33.9121 91.0723 34.2695 91.0723 34.709C91.0723 35.1426 91.4297 35.5 91.8691 35.5ZM91.2305 43H92.4961V36.6367H91.2305V43ZM94.3477 43H95.6191V39.2676C95.6191 38.2422 96.1992 37.6035 97.1309 37.6035C98.0625 37.6035 98.502 38.125 98.502 39.1797V43H99.7676V38.8809C99.7676 37.3633 98.9824 36.5137 97.5586 36.5137C96.6328 36.5137 96.0234 36.9238 95.7129 37.6035H95.6191V36.6367H94.3477V43ZM104.221 43.123C105.797 43.123 106.705 42.2734 106.934 41.0371L106.945 40.9844H105.727L105.715 41.0137C105.51 41.6992 105.018 42.0625 104.221 42.0625C103.172 42.0625 102.521 41.207 102.521 39.8008V39.7891C102.521 38.418 103.16 37.5742 104.221 37.5742C105.064 37.5742 105.58 38.043 105.721 38.6699L105.727 38.6875L106.945 38.6816V38.6523C106.77 37.416 105.814 36.5137 104.215 36.5137C102.357 36.5137 101.227 37.7734 101.227 39.7891V39.8008C101.227 41.8574 102.363 43.123 104.221 43.123ZM109.049 35.5C109.482 35.5 109.846 35.1426 109.846 34.709C109.846 34.2695 109.482 33.9121 109.049 33.9121C108.609 33.9121 108.252 34.2695 108.252 34.709C108.252 35.1426 108.609 35.5 109.049 35.5ZM108.41 43H109.676V36.6367H108.41V43ZM111.527 45.1211H112.799V41.9922H112.893C113.232 42.6777 113.977 43.1055 114.85 43.1055C116.467 43.1055 117.486 41.8398 117.486 39.8242V39.8125C117.486 37.8086 116.455 36.5254 114.85 36.5254C113.959 36.5254 113.262 36.9414 112.893 37.6387H112.799V36.6367H111.527V45.1211ZM114.492 42.0215C113.432 42.0215 112.775 41.1836 112.775 39.8242V39.8125C112.775 38.4531 113.432 37.6152 114.492 37.6152C115.553 37.6152 116.191 38.4414 116.191 39.8125V39.8242C116.191 41.1895 115.553 42.0215 114.492 42.0215ZM120.762 43.1055C121.605 43.1055 122.273 42.7422 122.648 42.0977H122.748V43H124.008V38.6465C124.008 37.3105 123.105 36.5137 121.506 36.5137C120.059 36.5137 119.057 37.2109 118.904 38.2539L118.898 38.2949H120.123L120.129 38.2715C120.281 37.8203 120.744 37.5625 121.447 37.5625C122.309 37.5625 122.748 37.9492 122.748 38.6465V39.209L121.025 39.3086C119.508 39.4023 118.652 40.0645 118.652 41.2012V41.2129C118.652 42.3672 119.549 43.1055 120.762 43.1055ZM119.918 41.1602V41.1484C119.918 40.5742 120.316 40.2578 121.195 40.2051L122.748 40.1055V40.6504C122.748 41.4707 122.051 42.0918 121.102 42.0918C120.416 42.0918 119.918 41.7461 119.918 41.1602ZM125.859 43H127.131V34.1406H125.859V43Z" fill="#3C3C43" fill-opacity="0.6"/>
<path d="M358 56.5H54V57.5H358V56.5Z" fill="#3C3C43" fill-opacity="0.36" mask="url(#path-1-inside-1_38_1877)"/>
<path d="M21 29H22M30 20V21M38 29H39M23.6 22.6L24.3 23.3M36.4 22.6L35.7 23.3M27 33C26.1605 32.3704 25.5403 31.4925 25.2274 30.4908C24.9145 29.4892 24.9247 28.4144 25.2566 27.4189C25.5884 26.4233 26.2251 25.5574 27.0764 24.9438C27.9278 24.3302 28.9506 24 30 24C31.0494 24 32.0722 24.3302 32.9236 24.9438C33.7749 25.5574 34.4116 26.4233 34.7434 27.4189C35.0753 28.4144 35.0855 29.4892 34.7726 30.4908C34.4597 31.4925 33.8395 32.3704 33 33C32.6096 33.3865 32.3156 33.8594 32.1419 34.3806C31.9681 34.9018 31.9195 35.4566 32 36C32 36.5304 31.7893 37.0391 31.4142 37.4142C31.0391 37.7893 30.5304 38 30 38C29.4696 38 28.9609 37.7893 28.5858 37.4142C28.2107 37.0391 28 36.5304 28 36C28.0805 35.4566 28.0319 34.9018 27.8581 34.3806C27.6844 33.8594 27.3904 33.3865 27 33M27.7 34H32.3" stroke="#007AFF" stroke-width="2" stroke-linecap="round" stroke-linejoin="round"/>
<path d="M333.49 26.7351L337.98 31.2252L342.47 26.7351" stroke="#333332" stroke-width="2" stroke-linecap="round" stroke-linejoin="round"/>
</svg>
