<svg width="84" height="84" viewBox="0 0 84 84" fill="none" xmlns="http://www.w3.org/2000/svg">
<g filter="url(#filter0_b_4_2456)">
<rect width="84" height="84" rx="15" fill="#38E0D5"/>
</g>
<path fill-rule="evenodd" clip-rule="evenodd" d="M29.2582 28.3488C30.1371 29.2273 30.1373 30.6519 29.2587 31.5307C26.742 34.0483 25.0282 37.2556 24.3342 40.7471C23.6401 44.2386 23.9969 47.8575 25.3595 51.1462C26.722 54.435 29.0291 57.2458 31.9891 59.2234C34.9491 61.201 38.4289 62.2566 41.9887 62.2566C45.5486 62.2566 49.0284 61.201 51.9884 59.2234C54.9484 57.2458 57.2555 54.435 58.618 51.1462C59.9806 47.8575 60.3374 44.2386 59.6433 40.7471C58.9493 37.2556 57.2355 34.0483 54.7188 31.5307C53.8402 30.6519 53.8404 29.2273 54.7193 28.3488C55.5981 27.4702 57.0227 27.4704 57.9013 28.3493C61.0472 31.4962 63.1894 35.5054 64.057 39.8697C64.9245 44.2341 64.4785 48.7577 62.7753 52.8687C61.0721 56.9796 58.1883 60.4931 54.4883 62.9652C50.7884 65.4372 46.4385 66.7566 41.9887 66.7566C37.539 66.7566 33.1891 65.4372 29.4892 62.9652C25.7892 60.4931 22.9054 56.9796 21.2022 52.8687C19.499 48.7577 19.053 44.2341 19.9205 39.8697C20.7881 35.5054 22.9303 31.4962 26.0762 28.3493C26.9548 27.4704 28.3794 27.4702 29.2582 28.3488Z" fill="white"/>
<path fill-rule="evenodd" clip-rule="evenodd" d="M42 17.25C43.2426 17.25 44.25 18.2574 44.25 19.5V42C44.25 43.2426 43.2426 44.25 42 44.25C40.7574 44.25 39.75 43.2426 39.75 42V19.5C39.75 18.2574 40.7574 17.25 42 17.25Z" fill="white"/>
<defs>
<filter id="filter0_b_4_2456" x="-90" y="-90" width="264" height="264" filterUnits="userSpaceOnUse" color-interpolation-filters="sRGB">
<feFlood flood-opacity="0" result="BackgroundImageFix"/>
<feGaussianBlur in="BackgroundImageFix" stdDeviation="45"/>
<feComposite in2="SourceAlpha" operator="in" result="effect1_backgroundBlur_4_2456"/>
<feBlend mode="normal" in="SourceGraphic" in2="effect1_backgroundBlur_4_2456" result="shape"/>
</filter>
</defs>
</svg>
