<svg width="486" height="166" viewBox="0 0 486 166" fill="none" xmlns="http://www.w3.org/2000/svg">
<path d="M81.4118 79.9118H76.6418L80.5418 76.0418C80.8215 75.7621 81.0434 75.43 81.1947 75.0645C81.3461 74.6991 81.424 74.3074 81.424 73.9118C81.424 73.5162 81.3461 73.1245 81.1947 72.759C81.0434 72.3936 80.8215 72.0615 80.5418 71.7818C80.262 71.5021 79.93 71.2802 79.5645 71.1288C79.199 70.9774 78.8073 70.8995 78.4118 70.8995C78.0162 70.8995 77.6245 70.9774 77.259 71.1288C76.8935 71.2802 76.5615 71.5021 76.2818 71.7818L68.1818 79.9118H61.6418L68.5418 73.0418C68.8215 72.7621 69.0434 72.43 69.1947 72.0645C69.3461 71.6991 69.424 71.3074 69.424 70.9118C69.424 70.5162 69.3461 70.1245 69.1947 69.759C69.0434 69.3936 68.8215 69.0615 68.5418 68.7818C68.262 68.5021 67.93 68.2802 67.5645 68.1288C67.199 67.9774 66.8073 67.8995 66.4118 67.8995C66.0162 67.8995 65.6245 67.9774 65.259 68.1288C64.8935 68.2802 64.5615 68.5021 64.2818 68.7818L57.4118 75.6818V69.1418L65.5418 61.0418C65.8215 60.7621 66.0434 60.43 66.1947 60.0645C66.3461 59.6991 66.424 59.3074 66.424 58.9118C66.424 58.5162 66.3461 58.1245 66.1947 57.759C66.0434 57.3936 65.8215 57.0615 65.5418 56.7818C65.262 56.5021 64.93 56.2802 64.5645 56.1288C64.199 55.9774 63.8073 55.8995 63.4118 55.8995C62.6129 55.8995 61.8467 56.2169 61.2818 56.7818L57.4118 60.6818V55.9118C57.4118 55.1161 57.0957 54.3531 56.5331 53.7905C55.9705 53.2278 55.2074 52.9118 54.4118 52.9118C53.6161 52.9118 52.853 53.2278 52.2904 53.7905C51.7278 54.3531 51.4118 55.1161 51.4118 55.9118V60.6818L47.5418 56.7818C47.262 56.5021 46.93 56.2802 46.5645 56.1288C46.199 55.9774 45.8073 55.8995 45.4118 55.8995C45.0162 55.8995 44.6245 55.9774 44.259 56.1288C43.8935 56.2802 43.5615 56.5021 43.2818 56.7818C42.7168 57.3467 42.3995 58.1129 42.3995 58.9118C42.3995 59.7107 42.7168 60.4769 43.2818 61.0418L51.4118 69.1418V75.6818L44.5418 68.7818C44.262 68.5021 43.93 68.2802 43.5645 68.1288C43.199 67.9774 42.8073 67.8995 42.4118 67.8995C42.0162 67.8995 41.6245 67.9774 41.259 68.1288C40.8935 68.2802 40.5615 68.5021 40.2818 68.7818C40.002 69.0615 39.7802 69.3936 39.6288 69.759C39.4774 70.1245 39.3995 70.5162 39.3995 70.9118C39.3995 71.3074 39.4774 71.6991 39.6288 72.0645C39.7802 72.43 40.002 72.7621 40.2818 73.0418L47.1818 79.9118H40.6418L32.5418 71.7818C31.9768 71.2169 31.2107 70.8995 30.4118 70.8995C29.6129 70.8995 28.8467 71.2169 28.2818 71.7818C27.7168 72.3467 27.3995 73.1129 27.3995 73.9118C27.3995 74.7107 27.7168 75.4769 28.2818 76.0418L32.1818 79.9118H27.4118C26.6161 79.9118 25.853 80.2278 25.2904 80.7905C24.7278 81.3531 24.4118 82.1161 24.4118 82.9118C24.4118 83.7074 24.7278 84.4705 25.2904 85.0331C25.853 85.5957 26.6161 85.9118 27.4118 85.9118H32.1818L28.2818 89.7818C28.0006 90.0607 27.7774 90.3925 27.6251 90.758C27.4728 91.1236 27.3944 91.5157 27.3944 91.9118C27.3944 92.3078 27.4728 92.6999 27.6251 93.0655C27.7774 93.4311 28.0006 93.7629 28.2818 94.0418C28.5606 94.323 28.8925 94.5461 29.258 94.6984C29.6236 94.8508 30.0157 94.9292 30.4118 94.9292C30.8078 94.9292 31.1999 94.8508 31.5655 94.6984C31.9311 94.5461 32.2629 94.323 32.5418 94.0418L40.6418 85.9118H47.1818L40.2818 92.7818C40.0006 93.0607 39.7774 93.3925 39.6251 93.758C39.4728 94.1236 39.3944 94.5157 39.3944 94.9118C39.3944 95.3078 39.4728 95.6999 39.6251 96.0655C39.7774 96.4311 40.0006 96.7629 40.2818 97.0418C40.5606 97.323 40.8925 97.5461 41.258 97.6984C41.6236 97.8508 42.0157 97.9292 42.4118 97.9292C42.8078 97.9292 43.1999 97.8508 43.5655 97.6984C43.9311 97.5461 44.2629 97.323 44.5418 97.0418L51.4118 90.1418V96.6818L43.2818 104.782C42.7168 105.347 42.3995 106.113 42.3995 106.912C42.3995 107.711 42.7168 108.477 43.2818 109.042C43.8467 109.607 44.6129 109.924 45.4118 109.924C46.2107 109.924 46.9768 109.607 47.5418 109.042L51.4118 105.142V109.912C51.4118 110.707 51.7278 111.47 52.2904 112.033C52.853 112.596 53.6161 112.912 54.4118 112.912C55.2074 112.912 55.9705 112.596 56.5331 112.033C57.0957 111.47 57.4118 110.707 57.4118 109.912V105.142L61.2818 109.042C61.5606 109.323 61.8924 109.546 62.258 109.698C62.6236 109.851 63.0157 109.929 63.4118 109.929C63.8078 109.929 64.1999 109.851 64.5655 109.698C64.9311 109.546 65.2629 109.323 65.5418 109.042C65.8229 108.763 66.0461 108.431 66.1984 108.066C66.3507 107.7 66.4292 107.308 66.4292 106.912C66.4292 106.516 66.3507 106.124 66.1984 105.758C66.0461 105.392 65.8229 105.061 65.5418 104.782L57.4118 96.6818V90.1418L64.2818 97.0418C64.5606 97.323 64.8924 97.5461 65.258 97.6984C65.6236 97.8508 66.0157 97.9292 66.4118 97.9292C66.8078 97.9292 67.1999 97.8508 67.5655 97.6984C67.9311 97.5461 68.2629 97.323 68.5418 97.0418C68.8229 96.7629 69.0461 96.4311 69.1984 96.0655C69.3507 95.6999 69.4292 95.3078 69.4292 94.9118C69.4292 94.5157 69.3507 94.1236 69.1984 93.758C69.0461 93.3925 68.8229 93.0607 68.5418 92.7818L61.6418 85.9118H68.1818L76.2818 94.0418C76.5606 94.323 76.8924 94.5461 77.258 94.6984C77.6236 94.8508 78.0157 94.9292 78.4118 94.9292C78.8078 94.9292 79.1999 94.8508 79.5655 94.6984C79.9311 94.5461 80.2629 94.323 80.5418 94.0418C80.8229 93.7629 81.0461 93.4311 81.1984 93.0655C81.3507 92.6999 81.4292 92.3078 81.4292 91.9118C81.4292 91.5157 81.3507 91.1236 81.1984 90.758C81.0461 90.3925 80.8229 90.0607 80.5418 89.7818L76.6418 85.9118H81.4118C82.2074 85.9118 82.9705 85.5957 83.5331 85.0331C84.0957 84.4705 84.4118 83.7074 84.4118 82.9118C84.4118 82.1161 84.0957 81.3531 83.5331 80.7905C82.9705 80.2278 82.2074 79.9118 81.4118 79.9118Z" fill="#333332"/>
<path d="M119.785 77.4313L130.746 88.3923L141.707 77.4313" stroke="#333332" stroke-width="4.88235" stroke-linecap="round" stroke-linejoin="round"/>
<path d="M181.943 117.412H231.958V105.969H200.776V105.397L215.175 92.2371C227.047 81.3186 231.005 75.8832 231.005 67.5393V67.4439C231.005 55.7149 220.992 47.4187 206.45 47.4187C191.908 47.4187 181.132 56.5254 181.132 69.4942V69.8756H194.482L194.53 69.4465C194.721 63.2482 199.489 58.6233 206.545 58.6233C212.648 58.6233 216.939 62.6283 216.987 68.2545V68.3498C216.987 73.1178 215.127 76.503 206.259 84.7992L181.943 107.542V117.412ZM258.854 117.412H273.11V48.6106H258.807L241.022 60.9596V73.7376L258.568 61.8178H258.854V117.412Z" fill="#333332"/>
<path d="M303.439 79.7929C313.309 79.7929 319.555 73.976 319.555 63.9157V63.868C319.555 53.8554 313.214 47.9431 303.439 47.9431C293.665 47.9431 287.324 53.9507 287.324 63.868V63.9157C287.324 73.976 293.474 79.7929 303.439 79.7929ZM303.439 72.1642C299.625 72.1642 297.241 69.2081 297.241 63.9157V63.868C297.241 58.6233 299.673 55.5718 303.439 55.5718C307.206 55.5718 309.638 58.5756 309.638 63.868V63.9157C309.638 69.1604 307.254 72.1642 303.439 72.1642ZM359.61 118.604C376.25 118.604 388.313 108.162 389.648 93.5245L389.696 93H375.678L375.583 93.4768C373.723 101.63 367.907 106.398 359.61 106.398C348.596 106.398 341.54 97.4342 341.54 82.9397V82.892C341.54 68.4929 348.596 59.6246 359.61 59.6246C368.193 59.6246 373.819 64.5832 375.44 72.1642L375.631 72.9747H389.648L389.601 72.5456C388.266 57.9558 376.298 47.4187 359.61 47.4187C339.537 47.4187 326.855 60.7689 326.855 82.9397V82.9874C326.855 105.158 339.49 118.604 359.61 118.604Z" fill="#333332" fill-opacity="0.2"/>
<path d="M450.374 88.3923L439.413 77.4313L428.452 88.3923" stroke="#333332" stroke-width="4.88235" stroke-linecap="round" stroke-linejoin="round"/>
</svg>
