<svg width="84" height="84" viewBox="0 0 84 84" fill="none" xmlns="http://www.w3.org/2000/svg">
<g filter="url(#filter0_b_4_2464)">
<rect width="84" height="84" rx="15" fill="white"/>
</g>
<g clip-path="url(#clip0_4_2464)">
<path d="M42 53.25C48.2132 53.25 53.25 48.2132 53.25 42C53.25 35.7868 48.2132 30.75 42 30.75C35.7868 30.75 30.75 35.7868 30.75 42C30.75 48.2132 35.7868 53.25 42 53.25Z" stroke="#333332" stroke-width="4.5" stroke-linecap="round" stroke-linejoin="round"/>
<path d="M42 17.25V21.75" stroke="#333332" stroke-width="4.5" stroke-linecap="round" stroke-linejoin="round"/>
<path d="M42 62.25V66.75" stroke="#333332" stroke-width="4.5" stroke-linecap="round" stroke-linejoin="round"/>
<path d="M24.495 24.4949L27.69 27.6899" stroke="#333332" stroke-width="4.5" stroke-linecap="round" stroke-linejoin="round"/>
<path d="M56.31 56.3099L59.505 59.5049" stroke="#333332" stroke-width="4.5" stroke-linecap="round" stroke-linejoin="round"/>
<path d="M17.25 42H21.75" stroke="#333332" stroke-width="4.5" stroke-linecap="round" stroke-linejoin="round"/>
<path d="M62.25 42H66.75" stroke="#333332" stroke-width="4.5" stroke-linecap="round" stroke-linejoin="round"/>
<path d="M24.495 59.5049L27.69 56.3099" stroke="#333332" stroke-width="4.5" stroke-linecap="round" stroke-linejoin="round"/>
<path d="M56.31 27.6899L59.505 24.4949" stroke="#333332" stroke-width="4.5" stroke-linecap="round" stroke-linejoin="round"/>
</g>
<defs>
<filter id="filter0_b_4_2464" x="-90" y="-90" width="264" height="264" filterUnits="userSpaceOnUse" color-interpolation-filters="sRGB">
<feFlood flood-opacity="0" result="BackgroundImageFix"/>
<feGaussianBlur in="BackgroundImageFix" stdDeviation="45"/>
<feComposite in2="SourceAlpha" operator="in" result="effect1_backgroundBlur_4_2464"/>
<feBlend mode="normal" in="SourceGraphic" in2="effect1_backgroundBlur_4_2464" result="shape"/>
</filter>
<clipPath id="clip0_4_2464">
<rect width="54" height="54" fill="white" transform="translate(15 15)"/>
</clipPath>
</defs>
</svg>
