<svg width="207" height="106" viewBox="0 0 207 106" fill="none" xmlns="http://www.w3.org/2000/svg">
<rect width="207" height="106" rx="8" fill="#E1E1E2"/>
<path d="M30.0234 50.1953C30.7422 50.1953 31.4062 50.0938 32.0078 49.8906L32.8359 51.0547H35.0781L33.6094 48.9922C34.7969 47.9844 35.4609 46.3906 35.4609 44.3672V44.3516C35.4609 40.7734 33.3672 38.5312 30.0234 38.5312C26.6875 38.5312 24.5859 40.7656 24.5859 44.3516V44.3672C24.5859 47.9531 26.6719 50.1953 30.0234 50.1953ZM30.0234 48.1953C28.1719 48.1953 26.9922 46.7266 26.9922 44.3672V44.3516C26.9922 41.9922 28.1797 40.5312 30.0234 40.5312C31.875 40.5312 33.0469 42 33.0469 44.3516V44.3672C33.0469 45.5078 32.7734 46.4453 32.2734 47.1016L31.5938 46.1328H29.3516L30.75 48.1094C30.5234 48.1641 30.2734 48.1953 30.0234 48.1953ZM39.9551 50.1719C41.2208 50.1719 42.0801 49.5781 42.5098 48.6172H42.5567V50H44.838V41.625H42.5567V46.4375C42.5567 47.5312 41.9083 48.2812 40.8848 48.2812C39.8614 48.2812 39.3458 47.6484 39.3458 46.5547V41.625H37.0645V47.0312C37.0645 48.9922 38.1114 50.1719 39.9551 50.1719ZM49.129 50.1328C50.2306 50.1328 51.1212 49.6094 51.5978 48.75H51.6447V50H53.9259V44.2578C53.9259 42.5703 52.5275 41.4531 50.3634 41.4531C48.1525 41.4531 46.8244 42.5625 46.6994 44.1094L46.6915 44.2031H48.7775L48.7931 44.1328C48.9025 43.5938 49.4181 43.1953 50.2697 43.1953C51.1603 43.1953 51.6447 43.6562 51.6447 44.3984V44.9141L49.5744 45.0391C47.4962 45.1719 46.3165 46.0625 46.3165 47.5859V47.6016C46.3165 49.0781 47.4494 50.1328 49.129 50.1328ZM48.5744 47.4844V47.4688C48.5744 46.875 49.0353 46.5 49.9181 46.4453L51.6447 46.3359V46.9375C51.6447 47.8125 50.8947 48.4688 49.8712 48.4688C49.0822 48.4688 48.5744 48.1016 48.5744 47.4844ZM55.717 50H57.9983V45.3125C57.9983 44.0938 58.6545 43.4219 59.7795 43.4219C60.1076 43.4219 60.4201 43.4688 60.6076 43.5469V41.5391C60.4358 41.4922 60.2014 41.4531 59.9514 41.4531C58.9748 41.4531 58.2951 42.0547 58.0451 43.0859H57.9983V41.625H55.717V50ZM65.5003 50.1719C65.9768 50.1719 66.344 50.125 66.6018 50.0859V48.4141C66.4612 48.4297 66.3128 48.4531 66.1097 48.4531C65.4222 48.4531 65.0706 48.1875 65.0706 47.4062V43.3438H66.6018V41.625H65.0706V39.5781H62.7659V41.625H61.6018V43.3438H62.7659V47.6562C62.7659 49.4531 63.6409 50.1719 65.5003 50.1719ZM71.8929 50.1719C74.4242 50.1719 76.0414 48.5469 76.0414 45.8125V45.7969C76.0414 43.0859 74.3929 41.4531 71.8851 41.4531C69.3851 41.4531 67.7445 43.1016 67.7445 45.7969V45.8125C67.7445 48.5391 69.3461 50.1719 71.8929 50.1719ZM71.9007 48.3828C70.7757 48.3828 70.0648 47.4531 70.0648 45.8125V45.7969C70.0648 44.1797 70.7836 43.2422 71.8851 43.2422C72.9945 43.2422 73.7211 44.1797 73.7211 45.7969V45.8125C73.7211 47.4453 73.0101 48.3828 71.9007 48.3828Z" fill="#333332"/>
<path d="M25.1336 63.5547H29.5086V62.4473H25.1336V63.5547ZM34.8339 67.1641C36.9257 67.1641 38.4159 65.9883 38.4159 64.334V64.3203C38.4159 63.1035 37.5614 62.0918 36.2968 61.7979V61.7705C37.3768 61.4355 38.0604 60.6152 38.0604 59.5762V59.5625C38.0604 58.0723 36.7001 56.9717 34.8339 56.9717C32.9677 56.9717 31.6073 58.0723 31.6073 59.5625V59.5762C31.6073 60.6152 32.2909 61.4355 33.371 61.7705V61.7979C32.1063 62.0918 31.2518 63.1035 31.2518 64.3203V64.334C31.2518 65.9883 32.7421 67.1641 34.8339 67.1641ZM34.8339 61.3125C33.6444 61.3125 32.8309 60.6357 32.8309 59.6787V59.665C32.8309 58.708 33.6444 58.0312 34.8339 58.0312C36.0233 58.0312 36.8368 58.708 36.8368 59.665V59.6787C36.8368 60.6357 36.0233 61.3125 34.8339 61.3125ZM34.8339 66.0908C33.4735 66.0908 32.5028 65.3252 32.5028 64.2588V64.2451C32.5028 63.165 33.4667 62.3926 34.8339 62.3926C36.2011 62.3926 37.1649 63.165 37.1649 64.2451V64.2588C37.1649 65.3252 36.1942 66.0908 34.8339 66.0908ZM43.3037 67H44.4932V62.543C44.4932 61.5518 45.1768 60.8066 46.1202 60.8066C47.002 60.8066 47.5762 61.374 47.5762 62.2354V67H48.7657V62.4814C48.7657 61.5107 49.4287 60.8066 50.3721 60.8066C51.3086 60.8066 51.8487 61.3877 51.8487 62.3652V67H53.0381V62.0918C53.0381 60.6768 52.1289 59.7539 50.7207 59.7539C49.7227 59.7539 48.8887 60.2666 48.4922 61.1211H48.4649C48.1573 60.2529 47.4395 59.7539 46.4688 59.7539C45.5528 59.7539 44.8418 60.2256 44.5205 60.9297H44.4932V59.8906H43.3037V67ZM55.5401 58.6875C55.9571 58.6875 56.2853 58.3525 56.2853 57.9424C56.2853 57.5254 55.9571 57.1973 55.5401 57.1973C55.13 57.1973 54.795 57.5254 54.795 57.9424C54.795 58.3525 55.13 58.6875 55.5401 58.6875ZM54.9454 67H56.1349V59.8906H54.9454V67ZM58.0695 67H59.259V62.8164C59.259 61.6064 59.9904 60.8066 61.1115 60.8066C62.2053 60.8066 62.7453 61.4424 62.7453 62.5977V67H63.9347V62.3857C63.9347 60.7656 63.0324 59.7539 61.4738 59.7539C60.3937 59.7539 59.6691 60.2393 59.2863 60.9023H59.259V59.8906H58.0695V67Z" fill="#333332" fill-opacity="0.5"/>
<g clip-path="url(#clip0_13_1520)">
<path d="M181.16 51.08L157.94 39.47C157.627 39.3249 157.282 39.2604 156.938 39.2824C156.593 39.3045 156.26 39.4123 155.967 39.5962C155.675 39.7801 155.434 40.0341 155.265 40.3352C155.096 40.6362 155.005 40.9748 155 41.32V64.53C154.997 64.8843 155.086 65.2335 155.257 65.5436C155.428 65.8537 155.677 66.1144 155.979 66.3004C156.28 66.4864 156.625 66.5915 156.979 66.6054C157.333 66.6193 157.685 66.5417 158 66.38L181.16 54.77C181.503 54.5978 181.791 54.3336 181.993 54.0069C182.195 53.6802 182.301 53.3039 182.301 52.92C182.301 52.5361 182.195 52.1598 181.993 51.8331C181.791 51.5064 181.503 51.2422 181.16 51.07V51.08Z" fill="#64A60B"/>
</g>
<defs>
<clipPath id="clip0_13_1520">
<rect width="36" height="36" fill="white" transform="translate(149 35)"/>
</clipPath>
</defs>
</svg>
