<svg width="207" height="106" viewBox="0 0 207 106" fill="none" xmlns="http://www.w3.org/2000/svg">
<rect width="207" height="106" rx="8" fill="#E1E1E2"/>
<path d="M29.0547 50.1953C31.8984 50.1953 33.6016 48.8203 33.6016 46.6562V46.6484C33.6016 44.875 32.5391 43.9141 30.1797 43.4453L28.9844 43.2031C27.6875 42.9453 27.1094 42.5312 27.1094 41.8203V41.8125C27.1094 41.0078 27.8359 40.4531 29.0469 40.4453C30.2109 40.4453 31.0234 40.9844 31.1406 41.8672L31.1484 41.9609H33.375L33.3672 41.8125C33.2578 39.8359 31.6562 38.5312 29.0469 38.5312C26.5469 38.5312 24.75 39.8906 24.75 41.9531V41.9609C24.75 43.6562 25.875 44.7188 28.1016 45.1641L29.2891 45.3984C30.6875 45.6875 31.2422 46.0703 31.2422 46.8359V46.8438C31.2422 47.7031 30.4219 48.2734 29.1172 48.2734C27.8281 48.2734 26.8984 47.7266 26.75 46.8516L26.7344 46.7656H24.5078L24.5156 46.8906C24.6484 48.9688 26.375 50.1953 29.0547 50.1953ZM37.6583 50.1328C38.7598 50.1328 39.6505 49.6094 40.127 48.75H40.1739V50H42.4551V44.2578C42.4551 42.5703 41.0567 41.4531 38.8926 41.4531C36.6817 41.4531 35.3536 42.5625 35.2286 44.1094L35.2208 44.2031H37.3067L37.3223 44.1328C37.4317 43.5938 37.9473 43.1953 38.7989 43.1953C39.6895 43.1953 40.1739 43.6562 40.1739 44.3984V44.9141L38.1036 45.0391C36.0255 45.1719 34.8458 46.0625 34.8458 47.5859V47.6016C34.8458 49.0781 35.9786 50.1328 37.6583 50.1328ZM37.1036 47.4844V47.4688C37.1036 46.875 37.5645 46.5 38.4473 46.4453L40.1739 46.3359V46.9375C40.1739 47.8125 39.4239 48.4688 38.4005 48.4688C37.6114 48.4688 37.1036 48.1016 37.1036 47.4844ZM44.3009 50H46.5822V38.7266H44.3009V50ZM50.9279 50.1328C52.0295 50.1328 52.9201 49.6094 53.3967 48.75H53.4436V50H55.7248V44.2578C55.7248 42.5703 54.3264 41.4531 52.1623 41.4531C49.9514 41.4531 48.6233 42.5625 48.4983 44.1094L48.4904 44.2031H50.5764L50.592 44.1328C50.7014 43.5938 51.217 43.1953 52.0686 43.1953C52.9592 43.1953 53.4436 43.6562 53.4436 44.3984V44.9141L51.3733 45.0391C49.2951 45.1719 48.1154 46.0625 48.1154 47.5859V47.6016C48.1154 49.0781 49.2483 50.1328 50.9279 50.1328ZM50.3733 47.4844V47.4688C50.3733 46.875 50.8342 46.5 51.717 46.4453L53.4436 46.3359V46.9375C53.4436 47.8125 52.6936 48.4688 51.6701 48.4688C50.8811 48.4688 50.3733 48.1016 50.3733 47.4844Z" fill="#333332"/>
<path d="M25.1717 63.5547H29.5467V62.4473H25.1717V63.5547ZM33.5799 67H34.7694V57.1357H33.5663L30.9413 59.0225V60.2598L33.5526 58.4414H33.5799V67ZM40.1015 67H41.2909V57.1357H40.0878L37.4628 59.0225V60.2598L40.0741 58.4414H40.1015V67ZM47.2657 67H48.4551V62.543C48.4551 61.5518 49.1387 60.8066 50.0821 60.8066C50.9639 60.8066 51.5382 61.374 51.5382 62.2354V67H52.7276V62.4814C52.7276 61.5107 53.3907 60.8066 54.3341 60.8066C55.2706 60.8066 55.8106 61.3877 55.8106 62.3652V67H57.0001V62.0918C57.0001 60.6768 56.0909 59.7539 54.6827 59.7539C53.6846 59.7539 52.8507 60.2666 52.4542 61.1211H52.4268C52.1192 60.2529 51.4014 59.7539 50.4307 59.7539C49.5147 59.7539 48.8038 60.2256 48.4825 60.9297H48.4551V59.8906H47.2657V67ZM59.5021 58.6875C59.9191 58.6875 60.2472 58.3525 60.2472 57.9424C60.2472 57.5254 59.9191 57.1973 59.5021 57.1973C59.0919 57.1973 58.757 57.5254 58.757 57.9424C58.757 58.3525 59.0919 58.6875 59.5021 58.6875ZM58.9074 67H60.0968V59.8906H58.9074V67ZM62.0315 67H63.2209V62.8164C63.2209 61.6064 63.9524 60.8066 65.0735 60.8066C66.1672 60.8066 66.7072 61.4424 66.7072 62.5977V67H67.8967V62.3857C67.8967 60.7656 66.9944 59.7539 65.4358 59.7539C64.3557 59.7539 63.6311 60.2393 63.2483 60.9023H63.2209V59.8906H62.0315V67Z" fill="#333332" fill-opacity="0.5"/>
<g clip-path="url(#clip0_13_1529)">
<path d="M181.16 51.08L157.94 39.47C157.627 39.3249 157.282 39.2604 156.938 39.2824C156.593 39.3045 156.26 39.4123 155.967 39.5962C155.675 39.7801 155.434 40.0341 155.265 40.3352C155.096 40.6362 155.005 40.9748 155 41.32V64.53C154.997 64.8843 155.086 65.2335 155.257 65.5436C155.428 65.8537 155.677 66.1144 155.979 66.3004C156.28 66.4864 156.625 66.5915 156.979 66.6054C157.333 66.6193 157.685 66.5417 158 66.38L181.16 54.77C181.503 54.5978 181.791 54.3336 181.993 54.0069C182.195 53.6802 182.301 53.3039 182.301 52.92C182.301 52.5361 182.195 52.1598 181.993 51.8331C181.791 51.5064 181.503 51.2422 181.16 51.07V51.08Z" fill="#2E5CD2"/>
</g>
<defs>
<clipPath id="clip0_13_1529">
<rect width="36" height="36" fill="white" transform="translate(149 35)"/>
</clipPath>
</defs>
</svg>
