<svg width="207" height="106" viewBox="0 0 207 106" fill="none" xmlns="http://www.w3.org/2000/svg">
<rect width="207" height="106" rx="8" fill="#E1E1E2"/>
<path d="M24.9375 50H29.9297C32.3359 50 33.8281 48.7656 33.8281 46.7891V46.7734C33.8281 45.2969 32.6953 44.1875 31.125 44.0703V44.0234C32.3672 43.8594 33.3047 42.8047 33.3047 41.5703V41.5547C33.3047 39.8203 31.9688 38.7266 29.8438 38.7266H24.9375V50ZM29.2344 40.4766C30.3359 40.4766 30.9844 40.9922 30.9844 41.8906V41.9062C30.9844 42.8828 30.2734 43.4375 28.9453 43.4375H27.2969V40.4766H29.2344ZM29.2266 45.0391C30.6719 45.0391 31.4219 45.5938 31.4219 46.625V46.6406C31.4219 47.6875 30.6797 48.2422 29.3281 48.2422H27.2969V45.0391H29.2266ZM37.7833 50.1328C38.8848 50.1328 39.7755 49.6094 40.252 48.75H40.2989V50H42.5801V44.2578C42.5801 42.5703 41.1817 41.4531 39.0176 41.4531C36.8067 41.4531 35.4786 42.5625 35.3536 44.1094L35.3458 44.2031H37.4317L37.4473 44.1328C37.5567 43.5938 38.0723 43.1953 38.9239 43.1953C39.8145 43.1953 40.2989 43.6562 40.2989 44.3984V44.9141L38.2286 45.0391C36.1505 45.1719 34.9708 46.0625 34.9708 47.5859V47.6016C34.9708 49.0781 36.1036 50.1328 37.7833 50.1328ZM37.2286 47.4844V47.4688C37.2286 46.875 37.6895 46.5 38.5723 46.4453L40.2989 46.3359V46.9375C40.2989 47.8125 39.5489 48.4688 38.5255 48.4688C37.7364 48.4688 37.2286 48.1016 37.2286 47.4844ZM44.3712 50H46.6525V45.1875C46.6525 44.0938 47.3009 43.3438 48.3244 43.3438C49.3478 43.3438 49.8634 43.9688 49.8634 45.0625V50H52.1447V44.5938C52.1447 42.6328 51.0978 41.4531 49.254 41.4531C47.9884 41.4531 47.129 42.0391 46.6994 43H46.6525V41.625H44.3712V50ZM53.9592 50H56.2404V45.2031C56.2404 44.1094 56.8889 43.3438 57.8967 43.3438C58.9358 43.3438 59.5139 44.0391 59.5139 45.2109V50H61.7951V44.7422C61.7951 42.7188 60.6701 41.4531 58.8576 41.4531C57.5998 41.4531 56.717 42.0312 56.2873 43.0703H56.2404V38.7266H53.9592V50ZM67.3909 50.1719C69.7815 50.1719 70.9378 48.7578 71.1956 47.5234L71.219 47.4375H69.1253L69.1097 47.4844C68.9456 47.9531 68.3753 48.4688 67.4378 48.4688C66.2737 48.4688 65.5472 47.6875 65.5237 46.3516H71.2893V45.6484C71.2893 43.1172 69.7503 41.4531 67.2972 41.4531C64.844 41.4531 63.2737 43.1562 63.2737 45.8203V45.8281C63.2737 48.5078 64.8284 50.1719 67.3909 50.1719ZM67.3362 43.1562C68.2815 43.1562 68.9612 43.7578 69.1018 44.9141H65.5472C65.6956 43.7812 66.3987 43.1562 67.3362 43.1562ZM73.9711 40.5469C74.6586 40.5469 75.1898 40.0078 75.1898 39.3594C75.1898 38.7109 74.6586 38.1719 73.9711 38.1719C73.2836 38.1719 72.7523 38.7109 72.7523 39.3594C72.7523 40.0078 73.2836 40.5469 73.9711 40.5469ZM72.8304 50H75.1117V41.625H72.8304V50ZM76.9575 50H79.2387V45.3125C79.2387 44.0938 79.895 43.4219 81.02 43.4219C81.3481 43.4219 81.6606 43.4688 81.8481 43.5469V41.5391C81.6762 41.4922 81.4418 41.4531 81.1918 41.4531C80.2153 41.4531 79.5356 42.0547 79.2856 43.0859H79.2387V41.625H76.9575V50ZM86.6626 50.1719C89.1938 50.1719 90.811 48.5469 90.811 45.8125V45.7969C90.811 43.0859 89.1626 41.4531 86.6548 41.4531C84.1548 41.4531 82.5142 43.1016 82.5142 45.7969V45.8125C82.5142 48.5391 84.1157 50.1719 86.6626 50.1719ZM86.6704 48.3828C85.5454 48.3828 84.8345 47.4531 84.8345 45.8125V45.7969C84.8345 44.1797 85.5532 43.2422 86.6548 43.2422C87.7642 43.2422 88.4907 44.1797 88.4907 45.7969V45.8125C88.4907 47.4453 87.7798 48.3828 86.6704 48.3828Z" fill="#333332"/>
<path d="M25.1717 63.5547H29.5467V62.4473H25.1717V63.5547ZM33.5799 67H34.7694V57.1357H33.5663L30.9413 59.0225V60.2598L33.5526 58.4414H33.5799V67ZM40.1015 67H41.2909V57.1357H40.0878L37.4628 59.0225V60.2598L40.0741 58.4414H40.1015V67ZM47.2657 67H48.4551V62.543C48.4551 61.5518 49.1387 60.8066 50.0821 60.8066C50.9639 60.8066 51.5382 61.374 51.5382 62.2354V67H52.7276V62.4814C52.7276 61.5107 53.3907 60.8066 54.3341 60.8066C55.2706 60.8066 55.8106 61.3877 55.8106 62.3652V67H57.0001V62.0918C57.0001 60.6768 56.0909 59.7539 54.6827 59.7539C53.6846 59.7539 52.8507 60.2666 52.4542 61.1211H52.4268C52.1192 60.2529 51.4014 59.7539 50.4307 59.7539C49.5147 59.7539 48.8038 60.2256 48.4825 60.9297H48.4551V59.8906H47.2657V67ZM59.5021 58.6875C59.9191 58.6875 60.2472 58.3525 60.2472 57.9424C60.2472 57.5254 59.9191 57.1973 59.5021 57.1973C59.0919 57.1973 58.757 57.5254 58.757 57.9424C58.757 58.3525 59.0919 58.6875 59.5021 58.6875ZM58.9074 67H60.0968V59.8906H58.9074V67ZM62.0315 67H63.2209V62.8164C63.2209 61.6064 63.9524 60.8066 65.0735 60.8066C66.1672 60.8066 66.7072 61.4424 66.7072 62.5977V67H67.8967V62.3857C67.8967 60.7656 66.9944 59.7539 65.4358 59.7539C64.3557 59.7539 63.6311 60.2393 63.2483 60.9023H63.2209V59.8906H62.0315V67Z" fill="#333332" fill-opacity="0.5"/>
<g clip-path="url(#clip0_13_1491)">
<path d="M181.16 51.08L157.94 39.47C157.627 39.3249 157.282 39.2604 156.938 39.2824C156.593 39.3045 156.26 39.4123 155.967 39.5962C155.675 39.7801 155.434 40.0341 155.265 40.3352C155.096 40.6362 155.005 40.9748 155 41.32V64.53C154.997 64.8843 155.086 65.2335 155.257 65.5436C155.428 65.8537 155.677 66.1144 155.979 66.3004C156.28 66.4864 156.625 66.5915 156.979 66.6054C157.333 66.6193 157.685 66.5417 158 66.38L181.16 54.77C181.503 54.5978 181.792 54.3336 181.993 54.0069C182.195 53.6802 182.301 53.3039 182.301 52.92C182.301 52.5361 182.195 52.1598 181.993 51.8331C181.792 51.5064 181.503 51.2422 181.16 51.07V51.08Z" fill="#333332"/>
</g>
<defs>
<clipPath id="clip0_13_1491">
<rect width="36" height="36" fill="white" transform="translate(149 35)"/>
</clipPath>
</defs>
</svg>
