<svg width="46" height="22" viewBox="0 0 46 22" fill="none" xmlns="http://www.w3.org/2000/svg">
<g clip-path="url(#clip0_24_1643)">
<path d="M7.42169 0H2C0.89543 0 0 0.89543 0 2V7.42C0 8.52457 0.89543 9.42 2 9.42H7.42169C8.52626 9.42 9.42169 8.52457 9.42169 7.42V2C9.42169 0.89543 8.52626 0 7.42169 0Z" fill="#333332"/>
<path d="M7.42169 12H2C0.89543 12 0 12.8954 0 14V19.42C0 20.5246 0.89543 21.42 2 21.42H7.42169C8.52626 21.42 9.42169 20.5246 9.42169 19.42V14C9.42169 12.8954 8.52626 12 7.42169 12Z" fill="#333332"/>
<path d="M31.4217 0H26C24.8954 0 24 0.89543 24 2V7.42C24 8.52457 24.8954 9.42 26 9.42H31.4217C32.5263 9.42 33.4217 8.52457 33.4217 7.42V2C33.4217 0.89543 32.5263 0 31.4217 0Z" fill="#333332"/>
<path d="M31.4217 12H26C24.8954 12 24 12.8954 24 14V19.42C24 20.5246 24.8954 21.42 26 21.42H31.4217C32.5263 21.42 33.4217 20.5246 33.4217 19.42V14C33.4217 12.8954 32.5263 12 31.4217 12Z" fill="#333332"/>
<path d="M19.4217 0H14C12.8954 0 12 0.89543 12 2V7.42C12 8.52457 12.8954 9.42 14 9.42H19.4217C20.5263 9.42 21.4217 8.52457 21.4217 7.42V2C21.4217 0.89543 20.5263 0 19.4217 0Z" fill="#333332"/>
<path d="M19.4217 12H14C12.8954 12 12 12.8954 12 14V19.42C12 20.5246 12.8954 21.42 14 21.42H19.4217C20.5263 21.42 21.4217 20.5246 21.4217 19.42V14C21.4217 12.8954 20.5263 12 19.4217 12Z" fill="#333332"/>
<path d="M43.4217 0H38C36.8954 0 36 0.89543 36 2V7.42C36 8.52457 36.8954 9.42 38 9.42H43.4217C44.5263 9.42 45.4217 8.52457 45.4217 7.42V2C45.4217 0.89543 44.5263 0 43.4217 0Z" fill="#333332"/>
<path d="M43.4217 12H38C36.8954 12 36 12.8954 36 14V19.42C36 20.5246 36.8954 21.42 38 21.42H43.4217C44.5263 21.42 45.4217 20.5246 45.4217 19.42V14C45.4217 12.8954 44.5263 12 43.4217 12Z" fill="#333332"/>
</g>
<defs>
<clipPath id="clip0_24_1643">
<rect width="46" height="22" fill="white"/>
</clipPath>
</defs>
</svg>
