<svg width="147" height="63" viewBox="0 0 147 63" fill="none" xmlns="http://www.w3.org/2000/svg">
<path d="M5.34766 7.454C6.71566 7.454 7.89766 7.712 8.89366 8.228C9.90166 8.732 10.6697 9.458 11.1977 10.406C11.7377 11.354 12.0077 12.47 12.0077 13.754C12.0077 15.038 11.7377 16.154 11.1977 17.102C10.6697 18.038 9.90166 18.758 8.89366 19.262C7.89766 19.754 6.71566 20 5.34766 20H1.44166V7.454H5.34766ZM5.34766 18.65C6.96766 18.65 8.20366 18.224 9.05566 17.372C9.90766 16.508 10.3337 15.302 10.3337 13.754C10.3337 12.194 9.90166 10.976 9.03766 10.1C8.18566 9.224 6.95566 8.786 5.34766 8.786H3.07966V18.65H5.34766ZM23.1682 14.69C23.1682 15.002 23.1502 15.332 23.1142 15.68H15.2302C15.2902 16.652 15.6202 17.414 16.2202 17.966C16.8322 18.506 17.5702 18.776 18.4342 18.776C19.1422 18.776 19.7302 18.614 20.1982 18.29C20.6782 17.954 21.0142 17.51 21.2062 16.958H22.9702C22.7062 17.906 22.1782 18.68 21.3862 19.28C20.5942 19.868 19.6102 20.162 18.4342 20.162C17.4982 20.162 16.6582 19.952 15.9142 19.532C15.1822 19.112 14.6062 18.518 14.1862 17.75C13.7662 16.97 13.5562 16.07 13.5562 15.05C13.5562 14.03 13.7602 13.136 14.1682 12.368C14.5762 11.6 15.1462 11.012 15.8782 10.604C16.6222 10.184 17.4742 9.974 18.4342 9.974C19.3702 9.974 20.1982 10.178 20.9182 10.586C21.6382 10.994 22.1902 11.558 22.5742 12.278C22.9702 12.986 23.1682 13.79 23.1682 14.69ZM21.4762 14.348C21.4762 13.724 21.3382 13.19 21.0622 12.746C20.7862 12.29 20.4082 11.948 19.9282 11.72C19.4602 11.48 18.9382 11.36 18.3622 11.36C17.5342 11.36 16.8262 11.624 16.2382 12.152C15.6622 12.68 15.3322 13.412 15.2482 14.348H21.4762Z" fill="#333332" fill-opacity="0.2"/>
<path d="M65.8782 48.21H60.4062L59.3982 51H57.6702L62.2062 38.526H64.0962L68.6142 51H66.8862L65.8782 48.21ZM65.4102 46.878L63.1422 40.542L60.8742 46.878H65.4102ZM72.5891 42.486V48.3C72.5891 48.78 72.6911 49.122 72.8951 49.326C73.0991 49.518 73.4531 49.614 73.9571 49.614H75.1631V51H73.6871C72.7751 51 72.0911 50.79 71.6351 50.37C71.1791 49.95 70.9511 49.26 70.9511 48.3V42.486H69.6731V41.136H70.9511V38.652H72.5891V41.136H75.1631V42.486H72.5891ZM86.1477 45.69C86.1477 46.002 86.1297 46.332 86.0937 46.68H78.2097C78.2697 47.652 78.5997 48.414 79.1997 48.966C79.8117 49.506 80.5497 49.776 81.4137 49.776C82.1217 49.776 82.7097 49.614 83.1777 49.29C83.6577 48.954 83.9937 48.51 84.1857 47.958H85.9497C85.6857 48.906 85.1577 49.68 84.3657 50.28C83.5737 50.868 82.5897 51.162 81.4137 51.162C80.4777 51.162 79.6377 50.952 78.8937 50.532C78.1617 50.112 77.5857 49.518 77.1657 48.75C76.7457 47.97 76.5357 47.07 76.5357 46.05C76.5357 45.03 76.7397 44.136 77.1477 43.368C77.5557 42.6 78.1257 42.012 78.8577 41.604C79.6017 41.184 80.4537 40.974 81.4137 40.974C82.3497 40.974 83.1777 41.178 83.8977 41.586C84.6177 41.994 85.1697 42.558 85.5537 43.278C85.9497 43.986 86.1477 44.79 86.1477 45.69ZM84.4557 45.348C84.4557 44.724 84.3177 44.19 84.0417 43.746C83.7657 43.29 83.3877 42.948 82.9077 42.72C82.4397 42.48 81.9177 42.36 81.3417 42.36C80.5137 42.36 79.8057 42.624 79.2177 43.152C78.6417 43.68 78.3117 44.412 78.2277 45.348H84.4557ZM83.1057 38.346L79.2717 40.398V39.174L83.1057 36.924V38.346Z" fill="#333332" fill-opacity="0.2"/>
<path d="M1.87181 38.6V35.504H7.65581V53H4.19981V38.6H1.87181ZM13.9031 43.736C12.3031 42.904 11.5031 41.616 11.5031 39.872C11.5031 39.008 11.7191 38.224 12.1511 37.52C12.5991 36.8 13.2631 36.232 14.1431 35.816C15.0391 35.384 16.1271 35.168 17.4071 35.168C18.6871 35.168 19.7671 35.384 20.6471 35.816C21.5431 36.232 22.2071 36.8 22.6391 37.52C23.0871 38.224 23.3111 39.008 23.3111 39.872C23.3111 40.752 23.0951 41.528 22.6631 42.2C22.2311 42.856 21.6551 43.368 20.9351 43.736C21.8151 44.12 22.5031 44.68 22.9991 45.416C23.4951 46.152 23.7431 47.024 23.7431 48.032C23.7431 49.12 23.4631 50.072 22.9031 50.888C22.3591 51.688 21.6071 52.304 20.6471 52.736C19.6871 53.168 18.6071 53.384 17.4071 53.384C16.2071 53.384 15.1271 53.168 14.1671 52.736C13.2231 52.304 12.4711 51.688 11.9111 50.888C11.3671 50.072 11.0951 49.12 11.0951 48.032C11.0951 47.024 11.3431 46.152 11.8391 45.416C12.3351 44.664 13.0231 44.104 13.9031 43.736ZM20.0471 40.352C20.0471 39.568 19.8071 38.96 19.3271 38.528C18.8631 38.096 18.2231 37.88 17.4071 37.88C16.6071 37.88 15.9671 38.096 15.4871 38.528C15.0231 38.96 14.7911 39.576 14.7911 40.376C14.7911 41.096 15.0311 41.672 15.5111 42.104C16.0071 42.536 16.6391 42.752 17.4071 42.752C18.1751 42.752 18.8071 42.536 19.3031 42.104C19.7991 41.656 20.0471 41.072 20.0471 40.352ZM17.4071 45.2C16.4951 45.2 15.7511 45.432 15.1751 45.896C14.6151 46.36 14.3351 47.024 14.3351 47.888C14.3351 48.688 14.6071 49.344 15.1511 49.856C15.7111 50.352 16.4631 50.6 17.4071 50.6C18.3511 50.6 19.0951 50.344 19.6391 49.832C20.1831 49.32 20.4551 48.672 20.4551 47.888C20.4551 47.04 20.1751 46.384 19.6151 45.92C19.0551 45.44 18.3191 45.2 17.4071 45.2ZM34.269 39.512C35.277 39.512 36.173 39.736 36.957 40.184C37.741 40.616 38.349 41.264 38.781 42.128C39.229 42.976 39.453 44 39.453 45.2V53H36.093V45.656C36.093 44.6 35.829 43.792 35.301 43.232C34.773 42.656 34.053 42.368 33.141 42.368C32.213 42.368 31.477 42.656 30.933 43.232C30.405 43.792 30.141 44.6 30.141 45.656V53H26.781V35.24H30.141V41.36C30.573 40.784 31.149 40.336 31.869 40.016C32.589 39.68 33.389 39.512 34.269 39.512Z" fill="#333332"/>
<path d="M105.613 49.208C107.149 47.928 108.373 46.864 109.285 46.016C110.197 45.152 110.957 44.256 111.565 43.328C112.173 42.4 112.477 41.488 112.477 40.592C112.477 39.776 112.285 39.136 111.901 38.672C111.517 38.208 110.925 37.976 110.125 37.976C109.325 37.976 108.709 38.248 108.277 38.792C107.845 39.32 107.621 40.048 107.605 40.976H104.341C104.405 39.056 104.973 37.6 106.045 36.608C107.133 35.616 108.509 35.12 110.173 35.12C111.997 35.12 113.397 35.608 114.373 36.584C115.349 37.544 115.837 38.816 115.837 40.4C115.837 41.648 115.501 42.84 114.829 43.976C114.157 45.112 113.389 46.104 112.525 46.952C111.661 47.784 110.533 48.792 109.141 49.976H116.221V52.76H104.365V50.264L105.613 49.208ZM119.394 49.208C120.93 47.928 122.154 46.864 123.066 46.016C123.978 45.152 124.738 44.256 125.346 43.328C125.954 42.4 126.258 41.488 126.258 40.592C126.258 39.776 126.066 39.136 125.682 38.672C125.298 38.208 124.706 37.976 123.906 37.976C123.106 37.976 122.49 38.248 122.058 38.792C121.626 39.32 121.402 40.048 121.386 40.976H118.122C118.186 39.056 118.754 37.6 119.826 36.608C120.914 35.616 122.29 35.12 123.954 35.12C125.778 35.12 127.178 35.608 128.154 36.584C129.13 37.544 129.618 38.816 129.618 40.4C129.618 41.648 129.282 42.84 128.61 43.976C127.938 45.112 127.17 46.104 126.306 46.952C125.442 47.784 124.314 48.792 122.922 49.976H130.002V52.76H118.146V50.264L119.394 49.208ZM139.992 39.512C141 39.512 141.896 39.736 142.68 40.184C143.464 40.616 144.072 41.264 144.504 42.128C144.952 42.976 145.176 44 145.176 45.2V53H141.816V45.656C141.816 44.6 141.552 43.792 141.024 43.232C140.496 42.656 139.776 42.368 138.864 42.368C137.936 42.368 137.2 42.656 136.656 43.232C136.128 43.792 135.864 44.6 135.864 45.656V53H132.504V35.24H135.864V41.36C136.296 40.784 136.872 40.336 137.592 40.016C138.312 39.68 139.112 39.512 139.992 39.512Z" fill="#333332"/>
</svg>
