<svg width="144" height="36" viewBox="0 0 144 36" fill="none" xmlns="http://www.w3.org/2000/svg">
<path d="M1.02033 13H2.2508V9.09668H4.6092L6.7215 13H8.16389L5.88068 8.90527C7.11115 8.51562 7.86311 7.45605 7.86311 6.08887V6.0752C7.86311 4.29785 6.61897 3.13574 4.71857 3.13574H1.02033V13ZM2.2508 8.00977V4.22949H4.55451C5.81916 4.22949 6.59162 4.92676 6.59162 6.10254V6.11621C6.59162 7.32617 5.87385 8.00977 4.6092 8.00977H2.2508ZM12.4911 13.1367C14.453 13.1367 15.7792 11.7148 15.7792 9.44531V9.43164C15.7792 7.16211 14.4462 5.75391 12.4843 5.75391C10.5224 5.75391 9.19618 7.16895 9.19618 9.43164V9.44531C9.19618 11.708 10.5155 13.1367 12.4911 13.1367ZM12.4979 12.084C11.2401 12.084 10.413 11.1201 10.413 9.44531V9.43164C10.413 7.77051 11.247 6.80664 12.4843 6.80664C13.7421 6.80664 14.5624 7.76367 14.5624 9.43164V9.44531C14.5624 11.1133 13.7489 12.084 12.4979 12.084ZM20.2431 13.1367C22.205 13.1367 23.5312 11.7148 23.5312 9.44531V9.43164C23.5312 7.16211 22.1982 5.75391 20.2363 5.75391C18.2744 5.75391 16.9482 7.16895 16.9482 9.43164V9.44531C16.9482 11.708 18.2675 13.1367 20.2431 13.1367ZM20.25 12.084C18.9922 12.084 18.165 11.1201 18.165 9.44531V9.43164C18.165 7.77051 18.999 6.80664 20.2363 6.80664C21.4941 6.80664 22.3144 7.76367 22.3144 9.43164V9.44531C22.3144 11.1133 21.5009 12.084 20.25 12.084ZM25.0489 13H26.2383V8.54297C26.2383 7.55176 26.9219 6.80664 27.8653 6.80664C28.7471 6.80664 29.3213 7.37402 29.3213 8.23535V13H30.5108V8.48145C30.5108 7.51074 31.1739 6.80664 32.1172 6.80664C33.0537 6.80664 33.5938 7.3877 33.5938 8.36523V13H34.7832V8.0918C34.7832 6.67676 33.8741 5.75391 32.4659 5.75391C31.4678 5.75391 30.6338 6.2666 30.2373 7.12109H30.21C29.9024 6.25293 29.1846 5.75391 28.2139 5.75391C27.2979 5.75391 26.5869 6.22559 26.2657 6.92969H26.2383V5.89062H25.0489V13ZM40.1495 13.1367C41.9679 13.1367 43.171 11.6875 43.171 9.44531V9.43848C43.171 7.19629 41.9542 5.75391 40.17 5.75391C39.1651 5.75391 38.338 6.25977 37.8937 7.08008H37.8663V3.13574H36.6769V13H37.8663V11.7969H37.8937C38.338 12.624 39.131 13.1367 40.1495 13.1367ZM39.9171 12.084C38.714 12.084 37.8595 11.0381 37.8595 9.44531V9.43848C37.8595 7.85254 38.7208 6.80664 39.9171 6.80664C41.1749 6.80664 41.9542 7.81836 41.9542 9.43848V9.44531C41.9542 11.0791 41.1749 12.084 39.9171 12.084ZM46.7599 13.1367C47.7101 13.1367 48.5646 12.624 48.9816 11.8447H49.009V13H50.1984V8.08496C50.1984 6.66309 49.1457 5.75391 47.464 5.75391C45.7892 5.75391 44.7707 6.69727 44.6681 7.86621L44.6613 7.94141H45.8097L45.8234 7.87988C45.9601 7.24414 46.5344 6.80664 47.4504 6.80664C48.4416 6.80664 49.009 7.33301 49.009 8.20117V8.7959L46.9719 8.91211C45.3381 9.00781 44.3947 9.7666 44.3947 10.9766V10.9902C44.3947 12.2822 45.3449 13.1367 46.7599 13.1367ZM45.6115 10.9902V10.9766C45.6115 10.3135 46.1584 9.88965 47.1086 9.83496L49.009 9.71875V10.2998C49.009 11.332 48.1476 12.1045 47.0265 12.1045C46.1721 12.1045 45.6115 11.6738 45.6115 10.9902Z" fill="#333332" fill-opacity="0.5"/>
<path d="M0.9375 32H3.29688V28.4453H5.46875C7.84375 28.4453 9.42969 26.9141 9.42969 24.5938V24.5781C9.42969 22.2578 7.84375 20.7266 5.46875 20.7266H0.9375V32ZM4.89062 22.5938C6.24219 22.5938 7.03906 23.3047 7.03906 24.5859V24.6016C7.03906 25.8828 6.24219 26.6016 4.89062 26.6016H3.29688V22.5938H4.89062ZM10.9473 32H13.2286V27.3125C13.2286 26.0938 13.8848 25.4219 15.0098 25.4219C15.338 25.4219 15.6505 25.4688 15.838 25.5469V23.5391C15.6661 23.4922 15.4317 23.4531 15.1817 23.4531C14.2051 23.4531 13.5255 24.0547 13.2755 25.0859H13.2286V23.625H10.9473V32ZM20.6525 32.1719C23.1837 32.1719 24.8009 30.5469 24.8009 27.8125V27.7969C24.8009 25.0859 23.1525 23.4531 20.6447 23.4531C18.1447 23.4531 16.504 25.1016 16.504 27.7969V27.8125C16.504 30.5391 18.1056 32.1719 20.6525 32.1719ZM20.6603 30.3828C19.5353 30.3828 18.8244 29.4531 18.8244 27.8125V27.7969C18.8244 26.1797 19.5431 25.2422 20.6447 25.2422C21.754 25.2422 22.4806 26.1797 22.4806 27.7969V27.8125C22.4806 29.4453 21.7697 30.3828 20.6603 30.3828ZM26.2951 32H28.5764V27.1875C28.5764 26.0938 29.2248 25.3438 30.2483 25.3438C31.2717 25.3438 31.7873 25.9688 31.7873 27.0625V32H34.0686V26.5938C34.0686 24.6328 33.0217 23.4531 31.1779 23.4531C29.9123 23.4531 29.0529 24.0391 28.6233 25H28.5764V23.625H26.2951V32ZM39.1565 32.1719C39.6331 32.1719 40.0003 32.125 40.2581 32.0859V30.4141C40.1175 30.4297 39.969 30.4531 39.7659 30.4531C39.0784 30.4531 38.7268 30.1875 38.7268 29.4062V25.3438H40.2581V23.625H38.7268V21.5781H36.4222V23.625H35.2581V25.3438H36.4222V29.6562C36.4222 31.4531 37.2972 32.1719 39.1565 32.1719ZM45.5492 32.1719C48.0804 32.1719 49.6976 30.5469 49.6976 27.8125V27.7969C49.6976 25.0859 48.0492 23.4531 45.5414 23.4531C43.0414 23.4531 41.4007 25.1016 41.4007 27.7969V27.8125C41.4007 30.5391 43.0023 32.1719 45.5492 32.1719ZM45.557 30.3828C44.432 30.3828 43.7211 29.4531 43.7211 27.8125V27.7969C43.7211 26.1797 44.4398 25.2422 45.5414 25.2422C46.6507 25.2422 47.3773 26.1797 47.3773 27.7969V27.8125C47.3773 29.4453 46.6664 30.3828 45.557 30.3828ZM54.6782 34.7344H56.9595V30.5703H57.0063C57.4595 31.5625 58.4048 32.1719 59.6001 32.1719C61.6938 32.1719 62.9907 30.5312 62.9907 27.8125V27.8047C62.9907 25.0781 61.6938 23.4531 59.5688 23.4531C58.3813 23.4531 57.4673 24.0703 57.0142 25.0859H56.9595V23.625H54.6782V34.7344ZM58.8188 30.2812C57.7095 30.2812 56.9517 29.3281 56.9517 27.8203V27.8125C56.9517 26.2969 57.7095 25.3438 58.8188 25.3438C59.9517 25.3438 60.6704 26.2734 60.6704 27.8047V27.8125C60.6704 29.3359 59.9517 30.2812 58.8188 30.2812ZM66.9849 32.1328C68.0865 32.1328 68.9771 31.6094 69.4537 30.75H69.5006V32H71.7818V26.2578C71.7818 24.5703 70.3834 23.4531 68.2193 23.4531C66.0084 23.4531 64.6802 24.5625 64.5552 26.1094L64.5474 26.2031H66.6334L66.649 26.1328C66.7584 25.5938 67.274 25.1953 68.1256 25.1953C69.0162 25.1953 69.5006 25.6562 69.5006 26.3984V26.9141L67.4302 27.0391C65.3521 27.1719 64.1724 28.0625 64.1724 29.5859V29.6016C64.1724 31.0781 65.3052 32.1328 66.9849 32.1328ZM66.4302 29.4844V29.4688C66.4302 28.875 66.8912 28.5 67.774 28.4453L69.5006 28.3359V28.9375C69.5006 29.8125 68.7506 30.4688 67.7271 30.4688C66.9381 30.4688 66.4302 30.1016 66.4302 29.4844ZM73.5729 32H75.8541V27.3125C75.8541 26.0938 76.5104 25.4219 77.6354 25.4219C77.9635 25.4219 78.276 25.4688 78.4635 25.5469V23.5391C78.2916 23.4922 78.0573 23.4531 77.8073 23.4531C76.8307 23.4531 76.151 24.0547 75.901 25.0859H75.8541V23.625H73.5729V32ZM82.0046 32.1328C83.1062 32.1328 83.9968 31.6094 84.4734 30.75H84.5202V32H86.8015V26.2578C86.8015 24.5703 85.403 23.4531 83.239 23.4531C81.028 23.4531 79.6999 24.5625 79.5749 26.1094L79.5671 26.2031H81.653L81.6687 26.1328C81.778 25.5938 82.2937 25.1953 83.1452 25.1953C84.0359 25.1953 84.5202 25.6562 84.5202 26.3984V26.9141L82.4499 27.0391C80.3718 27.1719 79.1921 28.0625 79.1921 29.5859V29.6016C79.1921 31.0781 80.3249 32.1328 82.0046 32.1328ZM81.4499 29.4844V29.4688C81.4499 28.875 81.9109 28.5 82.7937 28.4453L84.5202 28.3359V28.9375C84.5202 29.8125 83.7702 30.4688 82.7468 30.4688C81.9577 30.4688 81.4499 30.1016 81.4499 29.4844ZM94.5712 32.1328C95.6727 32.1328 96.5633 31.6094 97.0399 30.75H97.0868V32H99.368V26.2578C99.368 24.5703 97.9696 23.4531 95.8055 23.4531C93.5946 23.4531 92.2665 24.5625 92.1415 26.1094L92.1337 26.2031H94.2196L94.2352 26.1328C94.3446 25.5938 94.8602 25.1953 95.7118 25.1953C96.6024 25.1953 97.0868 25.6562 97.0868 26.3984V26.9141L95.0165 27.0391C92.9383 27.1719 91.7587 28.0625 91.7587 29.5859V29.6016C91.7587 31.0781 92.8915 32.1328 94.5712 32.1328ZM94.0165 29.4844V29.4688C94.0165 28.875 94.4774 28.5 95.3602 28.4453L97.0868 28.3359V28.9375C97.0868 29.8125 96.3368 30.4688 95.3133 30.4688C94.5243 30.4688 94.0165 30.1016 94.0165 29.4844ZM104.604 32.1719C106.761 32.1719 108.268 31.0938 108.268 29.4531V29.4453C108.268 28.2109 107.55 27.5234 105.8 27.1562L104.378 26.8516C103.534 26.6719 103.245 26.3906 103.245 25.9609V25.9531C103.245 25.4141 103.737 25.0625 104.526 25.0625C105.37 25.0625 105.862 25.5156 105.94 26.1172L105.948 26.1797H108.05V26.1016C107.995 24.6328 106.753 23.4531 104.526 23.4531C102.393 23.4531 101.018 24.4844 101.018 26.0781V26.0859C101.018 27.3359 101.839 28.1484 103.464 28.4922L104.886 28.7891C105.706 28.9688 105.987 29.2266 105.987 29.6719V29.6797C105.987 30.2188 105.464 30.5547 104.604 30.5547C103.69 30.5547 103.198 30.1719 103.05 29.5156L103.034 29.4453H100.808L100.815 29.5156C100.995 31.1016 102.284 32.1719 104.604 32.1719ZM109.708 34.7344H111.989V30.5703H112.036C112.489 31.5625 113.435 32.1719 114.63 32.1719C116.724 32.1719 118.021 30.5312 118.021 27.8125V27.8047C118.021 25.0781 116.724 23.4531 114.599 23.4531C113.411 23.4531 112.497 24.0703 112.044 25.0859H111.989V23.625H109.708V34.7344ZM113.849 30.2812C112.739 30.2812 111.981 29.3281 111.981 27.8203V27.8125C111.981 26.2969 112.739 25.3438 113.849 25.3438C114.981 25.3438 115.7 26.2734 115.7 27.8047V27.8125C115.7 29.3359 114.981 30.2812 113.849 30.2812ZM120.71 22.5469C121.398 22.5469 121.929 22.0078 121.929 21.3594C121.929 20.7109 121.398 20.1719 120.71 20.1719C120.023 20.1719 119.491 20.7109 119.491 21.3594C119.491 22.0078 120.023 22.5469 120.71 22.5469ZM119.569 32H121.851V23.625H119.569V32ZM123.696 32H125.978V27.3125C125.978 26.0938 126.634 25.4219 127.759 25.4219C128.087 25.4219 128.4 25.4688 128.587 25.5469V23.5391C128.415 23.4922 128.181 23.4531 127.931 23.4531C126.954 23.4531 126.275 24.0547 126.025 25.0859H125.978V23.625H123.696V32ZM132.128 32.1328C133.23 32.1328 134.12 31.6094 134.597 30.75H134.644V32H136.925V26.2578C136.925 24.5703 135.527 23.4531 133.363 23.4531C131.152 23.4531 129.823 24.5625 129.698 26.1094L129.691 26.2031H131.777L131.792 26.1328C131.902 25.5938 132.417 25.1953 133.269 25.1953C134.159 25.1953 134.644 25.6562 134.644 26.3984V26.9141L132.573 27.0391C130.495 27.1719 129.316 28.0625 129.316 29.5859V29.6016C129.316 31.0781 130.448 32.1328 132.128 32.1328ZM131.573 29.4844V29.4688C131.573 28.875 132.034 28.5 132.917 28.4453L134.644 28.3359V28.9375C134.644 29.8125 133.894 30.4688 132.87 30.4688C132.081 30.4688 131.573 30.1016 131.573 29.4844ZM138.716 32H140.997V27.3125C140.997 26.0938 141.654 25.4219 142.779 25.4219C143.107 25.4219 143.419 25.4688 143.607 25.5469V23.5391C143.435 23.4922 143.2 23.4531 142.95 23.4531C141.974 23.4531 141.294 24.0547 141.044 25.0859H140.997V23.625H138.716V32Z" fill="#333332"/>
</svg>
